<?xml version="1.0" encoding="UTF-8"?>
<!--Generator: Apple Native CoreSVG 228-->
<!DOCTYPE svg
PUBLIC "-//W3C//DTD SVG 1.1//EN"
       "http://www.w3.org/Graphics/SVG/1.1/DTD/svg11.dtd">
<svg version="1.1" xmlns="http://www.w3.org/2000/svg" xmlns:xlink="http://www.w3.org/1999/xlink" width="3300" height="2200">
 <!--glyph: "", point size: 100.0, font version: "19.0d5e1internal", template writer version: "101"-->
 <style>.monochrome-0{fill:#000000}
.monochrome-1{fill:#000000}
.hierarchical-0:secondary{fill:#000000}
.hierarchical-1:primary{fill:#000000}
</style>
 <g id="Notes">
  <rect height="2200" id="artboard" style="fill:white;opacity:1" width="3300" x="0" y="0"/>
  <line style="fill:none;stroke:black;opacity:1;stroke-width:0.5;" x1="263" x2="3036" y1="292" y2="292"/>
  <text style="stroke:none;fill:black;font-family:sans-serif;font-size:13;font-weight:bold;" transform="matrix(1 0 0 1 263 322)">Weight/Scale Variations</text>
  <text style="stroke:none;fill:black;font-family:sans-serif;font-size:13;text-anchor:middle;" transform="matrix(1 0 0 1 559.711 322)">Ultralight</text>
  <text style="stroke:none;fill:black;font-family:sans-serif;font-size:13;text-anchor:middle;" transform="matrix(1 0 0 1 856.422 322)">Thin</text>
  <text style="stroke:none;fill:black;font-family:sans-serif;font-size:13;text-anchor:middle;" transform="matrix(1 0 0 1 1153.13 322)">Light</text>
  <text style="stroke:none;fill:black;font-family:sans-serif;font-size:13;text-anchor:middle;" transform="matrix(1 0 0 1 1449.84 322)">Regular</text>
  <text style="stroke:none;fill:black;font-family:sans-serif;font-size:13;text-anchor:middle;" transform="matrix(1 0 0 1 1746.56 322)">Medium</text>
  <text style="stroke:none;fill:black;font-family:sans-serif;font-size:13;text-anchor:middle;" transform="matrix(1 0 0 1 2043.27 322)">Semibold</text>
  <text style="stroke:none;fill:black;font-family:sans-serif;font-size:13;text-anchor:middle;" transform="matrix(1 0 0 1 2339.98 322)">Bold</text>
  <text style="stroke:none;fill:black;font-family:sans-serif;font-size:13;text-anchor:middle;" transform="matrix(1 0 0 1 2636.69 322)">Heavy</text>
  <text style="stroke:none;fill:black;font-family:sans-serif;font-size:13;text-anchor:middle;" transform="matrix(1 0 0 1 2933.4 322)">Black</text>
  <line style="fill:none;stroke:black;opacity:1;stroke-width:0.5;" x1="263" x2="3036" y1="1903" y2="1903"/>
  <g transform="matrix(1 0 0 1 263 1933)">
   <path d="M9.24805 0.830078C13.5547 0.830078 17.1387-2.74414 17.1387-7.05078C17.1387-11.3574 13.5449-14.9316 9.23828-14.9316C4.94141-14.9316 1.36719-11.3574 1.36719-7.05078C1.36719-2.74414 4.95117 0.830078 9.24805 0.830078ZM9.24805-0.654297C5.70312-0.654297 2.87109-3.49609 2.87109-7.05078C2.87109-10.6055 5.69336-13.4473 9.23828-13.4473C12.793-13.4473 15.6445-10.6055 15.6445-7.05078C15.6445-3.49609 12.8027-0.654297 9.24805-0.654297ZM5.6543-7.05078C5.6543-6.62109 5.95703-6.32812 6.40625-6.32812L8.50586-6.32812L8.50586-4.20898C8.50586-3.76953 8.79883-3.4668 9.22852-3.4668C9.67773-3.4668 9.9707-3.76953 9.9707-4.20898L9.9707-6.32812L12.0898-6.32812C12.5293-6.32812 12.832-6.62109 12.832-7.05078C12.832-7.49023 12.5293-7.79297 12.0898-7.79297L9.9707-7.79297L9.9707-9.90234C9.9707-10.3516 9.67773-10.6543 9.22852-10.6543C8.79883-10.6543 8.50586-10.3516 8.50586-9.90234L8.50586-7.79297L6.40625-7.79297C5.95703-7.79297 5.6543-7.49023 5.6543-7.05078Z"/>
  </g>
  <g transform="matrix(1 0 0 1 281.867 1933)">
   <path d="M11.709 2.91016C17.1582 2.91016 21.6699-1.61133 21.6699-7.05078C21.6699-12.5 17.1484-17.0117 11.6992-17.0117C6.25977-17.0117 1.74805-12.5 1.74805-7.05078C1.74805-1.61133 6.26953 2.91016 11.709 2.91016ZM11.709 1.25C7.09961 1.25 3.41797-2.44141 3.41797-7.05078C3.41797-11.6602 7.08984-15.3516 11.6992-15.3516C16.3086-15.3516 20.0098-11.6602 20.0098-7.05078C20.0098-2.44141 16.3184 1.25 11.709 1.25ZM7.17773-7.05078C7.17773-6.57227 7.50977-6.25 8.00781-6.25L10.8789-6.25L10.8789-3.36914C10.8789-2.88086 11.2109-2.53906 11.6895-2.53906C12.1777-2.53906 12.5195-2.87109 12.5195-3.36914L12.5195-6.25L15.4004-6.25C15.8887-6.25 16.2305-6.57227 16.2305-7.05078C16.2305-7.53906 15.8887-7.88086 15.4004-7.88086L12.5195-7.88086L12.5195-10.752C12.5195-11.25 12.1777-11.5918 11.6895-11.5918C11.2109-11.5918 10.8789-11.25 10.8789-10.752L10.8789-7.88086L8.00781-7.88086C7.50977-7.88086 7.17773-7.53906 7.17773-7.05078Z"/>
  </g>
  <g transform="matrix(1 0 0 1 305.646 1933)">
   <path d="M14.9707 5.66406C21.9336 5.66406 27.6953-0.0976562 27.6953-7.05078C27.6953-14.0137 21.9238-19.7754 14.9609-19.7754C8.00781-19.7754 2.25586-14.0137 2.25586-7.05078C2.25586-0.0976562 8.01758 5.66406 14.9707 5.66406ZM14.9707 3.84766C8.93555 3.84766 4.08203-1.01562 4.08203-7.05078C4.08203-13.0957 8.92578-17.9492 14.9609-17.9492C21.0059-17.9492 25.8691-13.0957 25.8691-7.05078C25.8691-1.01562 21.0156 3.84766 14.9707 3.84766ZM9.19922-7.05078C9.19922-6.5332 9.57031-6.17188 10.1172-6.17188L14.0625-6.17188L14.0625-2.2168C14.0625-1.67969 14.4336-1.29883 14.9512-1.29883C15.4883-1.29883 15.8594-1.66992 15.8594-2.2168L15.8594-6.17188L19.8145-6.17188C20.3516-6.17188 20.7324-6.5332 20.7324-7.05078C20.7324-7.59766 20.3613-7.96875 19.8145-7.96875L15.8594-7.96875L15.8594-11.9141C15.8594-12.4609 15.4883-12.8418 14.9512-12.8418C14.4336-12.8418 14.0625-12.4609 14.0625-11.9141L14.0625-7.96875L10.1172-7.96875C9.57031-7.96875 9.19922-7.59766 9.19922-7.05078Z"/>
  </g>
  <text style="stroke:none;fill:black;font-family:sans-serif;font-size:13;font-weight:bold;" transform="matrix(1 0 0 1 263 1953)">Design Variations</text>
  <text style="stroke:none;fill:black;font-family:sans-serif;font-size:13;" transform="matrix(1 0 0 1 263 1971)">Symbols are supported in up to nine weights and three scales.</text>
  <text style="stroke:none;fill:black;font-family:sans-serif;font-size:13;" transform="matrix(1 0 0 1 263 1989)">For optimal layout with text and other symbols, vertically align</text>
  <text style="stroke:none;fill:black;font-family:sans-serif;font-size:13;" transform="matrix(1 0 0 1 263 2007)">symbols with the adjacent text.</text>
  <line style="fill:none;stroke:#00AEEF;stroke-width:0.5;opacity:1.0;" x1="776" x2="776" y1="1919" y2="1933"/>
  <g transform="matrix(1 0 0 1 776 1933)">
   <path d="M3.31055 0.15625C3.82812 0.15625 4.08203-0.0390625 4.26758-0.585938L5.52734-4.0332L11.2891-4.0332L12.5488-0.585938C12.7344-0.0390625 12.9883 0.15625 13.4961 0.15625C14.0137 0.15625 14.3457-0.15625 14.3457-0.644531C14.3457-0.810547 14.3164-0.966797 14.2383-1.17188L9.6582-13.3691C9.43359-13.9648 9.0332-14.2676 8.4082-14.2676C7.80273-14.2676 7.39258-13.9746 7.17773-13.3789L2.59766-1.16211C2.51953-0.957031 2.49023-0.800781 2.49023-0.634766C2.49023-0.146484 2.80273 0.15625 3.31055 0.15625ZM6.00586-5.51758L8.37891-12.0898L8.42773-12.0898L10.8008-5.51758Z"/>
  </g>
  <line style="fill:none;stroke:#00AEEF;stroke-width:0.5;opacity:1.0;" x1="793.197" x2="793.197" y1="1919" y2="1933"/>
  <text style="stroke:none;fill:black;font-family:sans-serif;font-size:13;font-weight:bold;" transform="matrix(1 0 0 1 776 1953)">Margins</text>
  <text style="stroke:none;fill:black;font-family:sans-serif;font-size:13;" transform="matrix(1 0 0 1 776 1971)">Leading and trailing margins on the left and right side of each symbol</text>
  <text style="stroke:none;fill:black;font-family:sans-serif;font-size:13;" transform="matrix(1 0 0 1 776 1989)">can be adjusted by modifying the x-location of the margin guidelines.</text>
  <text style="stroke:none;fill:black;font-family:sans-serif;font-size:13;" transform="matrix(1 0 0 1 776 2007)">Modifications are automatically applied proportionally to all</text>
  <text style="stroke:none;fill:black;font-family:sans-serif;font-size:13;" transform="matrix(1 0 0 1 776 2025)">scales and weights.</text>
  <g transform="matrix(1 0 0 1 1289 1933)">
   <path d="M2.8418 1.86523L4.54102 3.57422C5.40039 4.44336 6.38672 4.38477 7.31445 3.35938L18.0078-8.42773L17.041-9.4043L6.42578 2.27539C6.07422 2.67578 5.74219 2.77344 5.27344 2.30469L4.10156 1.14258C3.63281 0.683594 3.74023 0.341797 4.14062-0.0195312L15.6152-10.8203L14.6387-11.7871L3.04688-0.898438C2.06055 0.0195312 1.98242 0.996094 2.8418 1.86523ZM9.25781-16.3281C8.83789-15.918 8.80859-15.3418 9.04297-14.9512C9.27734-14.5898 9.73633-14.3555 10.3809-14.5215C11.8457-14.8633 13.3691-14.9219 14.7949-13.9844L14.209-12.5293C13.8672-11.6992 14.043-11.1133 14.5801-10.5664L16.875-8.25195C17.3633-7.76367 17.7734-7.74414 18.3398-7.8418L19.4043-8.03711L20.0684-7.36328L20.0293-6.80664C19.9902-6.30859 20.1172-5.92773 20.6055-5.44922L21.3672-4.70703C21.8457-4.22852 22.4609-4.19922 22.9297-4.66797L25.8398-7.58789C26.3086-8.05664 26.2891-8.65234 25.8105-9.13086L25.0391-9.89258C24.5605-10.3711 24.1895-10.5273 23.7109-10.4883L23.1348-10.4395L22.4902-11.0742L22.7344-12.1973C22.8613-12.7637 22.7051-13.2031 22.1191-13.7891L19.9219-15.9766C16.582-19.2969 12.1484-19.2188 9.25781-16.3281ZM10.752-15.957C13.1836-17.7344 16.4746-17.4316 18.7012-15.2051L21.1328-12.793C21.3672-12.5586 21.4062-12.373 21.3379-12.0312L21.0156-10.5469L22.5195-9.0625L23.5059-9.12109C23.7598-9.13086 23.8379-9.11133 24.0332-8.91602L24.6094-8.33984L22.168-5.89844L21.5918-6.47461C21.3965-6.66992 21.3672-6.74805 21.377-7.01172L21.4453-7.98828L19.9512-9.47266L18.4277-9.21875C18.1055-9.15039 17.959-9.17969 17.7148-9.41406L15.7129-11.416C15.459-11.6504 15.4297-11.8164 15.5859-12.1875L16.4648-14.2773C14.9023-15.7324 12.8711-16.3574 10.8398-15.7617C10.6836-15.7227 10.625-15.8496 10.752-15.957Z"/>
  </g>
  <text style="stroke:none;fill:black;font-family:sans-serif;font-size:13;font-weight:bold;" transform="matrix(1 0 0 1 1289 1953)">Exporting</text>
  <text style="stroke:none;fill:black;font-family:sans-serif;font-size:13;" transform="matrix(1 0 0 1 1289 1971)">Symbols should be outlined when exporting to ensure the</text>
  <text style="stroke:none;fill:black;font-family:sans-serif;font-size:13;" transform="matrix(1 0 0 1 1289 1989)">design is preserved when submitting to Xcode.</text>
  <text id="template-version" style="stroke:none;fill:black;font-family:sans-serif;font-size:13;text-anchor:end;" transform="matrix(1 0 0 1 3036 1933)">Template v.4.0</text>
  <text style="stroke:none;fill:black;font-family:sans-serif;font-size:13;text-anchor:end;" transform="matrix(1 0 0 1 3036 1951)">Requires Xcode 14 or greater</text>
  <text id="descriptive-name" style="stroke:none;fill:black;font-family:sans-serif;font-size:13;text-anchor:end;" transform="matrix(1 0 0 1 3036 1969)">Generated from Flashcards</text>
  <text style="stroke:none;fill:black;font-family:sans-serif;font-size:13;text-anchor:end;" transform="matrix(1 0 0 1 3036 1987)">Typeset at 100 points</text>
  <text style="stroke:none;fill:black;font-family:sans-serif;font-size:13;" transform="matrix(1 0 0 1 263 726)">Small</text>
  <text style="stroke:none;fill:black;font-family:sans-serif;font-size:13;" transform="matrix(1 0 0 1 263 1156)">Medium</text>
  <text style="stroke:none;fill:black;font-family:sans-serif;font-size:13;" transform="matrix(1 0 0 1 263 1586)">Large</text>
 </g>
 <g id="Guides">
  <g id="H-reference" style="fill:#27AAE1;stroke:none;" transform="matrix(1 0 0 1 339 696)">
   <path d="M0.993654 0L3.63775 0L29.3281-67.1323L30.0303-67.1323L30.0303-70.459L28.1226-70.459ZM11.6885-24.4799L46.9815-24.4799L46.2315-26.7285L12.4385-26.7285ZM55.1196 0L57.7637 0L30.6382-70.459L29.4326-70.459L29.4326-67.1323Z"/>
  </g>
  <line id="Baseline-S" style="fill:none;stroke:#27AAE1;opacity:1;stroke-width:0.5;" x1="263" x2="3036" y1="696" y2="696"/>
  <line id="Capline-S" style="fill:none;stroke:#27AAE1;opacity:1;stroke-width:0.5;" x1="263" x2="3036" y1="625.541" y2="625.541"/>
  <g id="H-reference" style="fill:#27AAE1;stroke:none;" transform="matrix(1 0 0 1 339 1126)">
   <path d="M0.993654 0L3.63775 0L29.3281-67.1323L30.0303-67.1323L30.0303-70.459L28.1226-70.459ZM11.6885-24.4799L46.9815-24.4799L46.2315-26.7285L12.4385-26.7285ZM55.1196 0L57.7637 0L30.6382-70.459L29.4326-70.459L29.4326-67.1323Z"/>
  </g>
  <line id="Baseline-M" style="fill:none;stroke:#27AAE1;opacity:1;stroke-width:0.5;" x1="263" x2="3036" y1="1126" y2="1126"/>
  <line id="Capline-M" style="fill:none;stroke:#27AAE1;opacity:1;stroke-width:0.5;" x1="263" x2="3036" y1="1055.54" y2="1055.54"/>
  <g id="H-reference" style="fill:#27AAE1;stroke:none;" transform="matrix(1 0 0 1 339 1556)">
   <path d="M0.993654 0L3.63775 0L29.3281-67.1323L30.0303-67.1323L30.0303-70.459L28.1226-70.459ZM11.6885-24.4799L46.9815-24.4799L46.2315-26.7285L12.4385-26.7285ZM55.1196 0L57.7637 0L30.6382-70.459L29.4326-70.459L29.4326-67.1323Z"/>
  </g>
  <line id="Baseline-L" style="fill:none;stroke:#27AAE1;opacity:1;stroke-width:0.5;" x1="263" x2="3036" y1="1556" y2="1556"/>
  <line id="Capline-L" style="fill:none;stroke:#27AAE1;opacity:1;stroke-width:0.5;" x1="263" x2="3036" y1="1485.54" y2="1485.54"/>
  <line id="left-margin-Ultralight-S" style="fill:none;stroke:#00AEEF;stroke-width:0.5;opacity:1.0;" x1="507.128" x2="507.128" y1="600.785" y2="720.121"/>
  <line id="right-margin-Ultralight-S" style="fill:none;stroke:#00AEEF;stroke-width:0.5;opacity:1.0;" x1="612.295" x2="612.295" y1="600.785" y2="720.121"/>
  <line id="left-margin-Regular-S" style="fill:none;stroke:#00AEEF;stroke-width:0.5;opacity:1.0;" x1="1394.4" x2="1394.4" y1="600.785" y2="720.121"/>
  <line id="right-margin-Regular-S" style="fill:none;stroke:#00AEEF;stroke-width:0.5;opacity:1.0;" x1="1505.29" x2="1505.29" y1="600.785" y2="720.121"/>
  <line id="left-margin-Black-S" style="fill:none;stroke:#00AEEF;stroke-width:0.5;opacity:1.0;" x1="2873.15" x2="2873.15" y1="600.785" y2="720.121"/>
  <line id="right-margin-Black-S" style="fill:none;stroke:#00AEEF;stroke-width:0.5;opacity:1.0;" x1="2993.65" x2="2993.65" y1="600.785" y2="720.121"/>
 </g>
 <g id="Symbols">
  <g id="Ultralight-S" transform="matrix(1 0 0 1 507.128 696)">
   <path class="monochrome-0 hierarchical-0:secondary" d="M80.90345764160156 -29.204833984375 83.76638793945312 -12.968269348144531C84.32319641113281 -9.814682006835938 82.8758316040039 -6.771385192871094 80.34012603759766 -5.1439208984375C80.70447540283203 -6.130622863769531 80.90345764160156 -7.1974334716796875 80.90345764160156 -8.310722351074219ZM29.096538543701172 -41.25519561767578 26.233612060546875 -57.49174499511719C25.676799774169922 -60.645320892333984 27.124164581298828 -63.688621520996094 29.659881591796875 -65.31610107421875C29.295528411865234 -64.32939147949219 29.096538543701172 -63.262577056884766 29.096538543701172 -62.149288177490234ZM49.864627838134766 0.8316726684570312 44.50655746459961 1.776397705078125C42.628116607666016 2.108062744140625 40.78880310058594 1.7286376953125 39.264530181884766 0.8316726684570312ZM60.1353874206543 -71.29168701171875 65.49343872070312 -72.23639678955078C67.37188720703125 -72.56806945800781 69.21119689941406 -72.18864440917969 70.73546600341797 -71.29168701171875Z"/>
   <path class="monochrome-1 hierarchical-1:primary" d="M38.23893737792969 -69.85260772705078H71.76106262207031C76.01548767089844 -69.85260772705078 79.4643783569336 -66.4037094116211 79.4643783569336 -62.149288177490234V-8.310722351074219C79.4643783569336 -4.056297302246094 76.01548767089844 -0.6074066162109375 71.76106262207031 -0.6074066162109375H38.23893737792969C33.98451232910156 -0.6074066162109375 30.535619735717773 -4.056297302246094 30.535619735717773 -8.310722351074219V-62.149288177490234C30.535619735717773 -66.4037094116211 33.98451232910156 -69.85260772705078 38.23893737792969 -69.85260772705078ZM38.23893737792969 -64.94279479980469C36.69612121582031 -64.94279479980469 35.44542694091797 -63.692100524902344 35.44542694091797 -62.149288177490234V-8.310722351074219C35.44542694091797 -6.767906188964844 36.69612121582031 -5.5172119140625 38.23893737792969 -5.5172119140625H71.76106262207031C73.30387878417969 -5.5172119140625 74.55457305908203 -6.767906188964844 74.55457305908203 -8.310722351074219V-62.149288177490234C74.55457305908203 -63.692100524902344 73.30387878417969 -64.94279479980469 71.76106262207031 -64.94279479980469ZM52.19294357299805 -48.33918762207031Q50.738624572753906 -49.25511932373047 50.361080169677734 -50.07624053955078Q50.2967414855957 -50.21337890625 50.26457214355469 -50.36236572265625Q50.00553894042969 -51.584739685058594 50.740318298339844 -52.31951904296875Q50.96887969970703 -52.546382904052734 51.273624420166016 -52.64796447753906Q51.73074722290039 -52.79864501953125 52.6669921875 -52.749549865722656Q52.71270751953125 -52.74616241455078 52.758419036865234 -52.74108123779297Q57.075660705566406 -52.217933654785156 57.925567626953125 -50.29295349121094Q57.93572235107422 -50.267555236816406 57.94588088989258 -50.24385452270508Q58.56553649902344 -48.674407958984375 58.3318977355957 -47.621337890625Q58.32851028442383 -47.604408264160156 58.323429107666016 -47.585784912109375Q58.295631408691406 -47.47496795654297 58.26237869262695 -47.371620178222656Q59.74589538574219 -47.5582275390625 61.35734939575195 -47.748313903808594Q64.79421997070312 -48.41706848144531 66.13340759277344 -47.430023193359375Q69.27568054199219 -45.17998504638672 69.37557983398438 -44.216644287109375Q69.38233947753906 -44.145538330078125 69.38233947753906 -44.07612228393555Q69.38233947753906 -42.79279708862305 67.14584350585938 -42.0089225769043Q67.12045288085938 -42.000457763671875 67.0933609008789 -41.99199295043945Q65.66105651855469 -41.55519104003906 63.85457992553711 -40.241390228271484Q62.879276275634766 -39.55353546142578 62.0780029296875 -39.69113540649414Q62.39968490600586 -38.129417419433594 60.67167282104492 -37.493595123291016Q60.58701705932617 -37.46311950683594 60.49728775024414 -37.44280242919922Q59.90754699707031 -37.31240463256836 56.609981536865234 -34.798397064208984Q56.745426177978516 -34.52886199951172 56.87299728393555 -34.22182846069336Q58.26490783691406 -34.39426040649414 59.975833892822266 -34.54771041870117Q62.401954650878906 -34.89478302001953 64.79421997070312 -35.345130920410156Q66.13340759277344 -35.751461029052734 67.04087829589844 -35.333282470703125Q68.7626953125 -34.556175231933594 69.95458984375 -33.4066047668457Q71.06015014648438 -32.299354553222656 70.33213806152344 -30.94662094116211Q70.25933837890625 -30.811176300048828 70.1594467163086 -30.69605255126953Q69.43482971191406 -29.869850158691406 67.95003509521484 -30.062854766845703Q62.677490234375 -30.520755767822266 57.70846939086914 -30.08776092529297Q58.20880889892578 -24.601478576660156 57.34993362426758 -21.402973175048828Q57.33808517456055 -21.364036560058594 57.32623291015625 -21.3267822265625Q56.510189056396484 -18.880348205566406 55.17776870727539 -18.159114837646484Q55.15745162963867 -18.147262573242188 55.13713455200195 -18.137104034423828Q53.59646987915039 -17.36846923828125 52.25897216796875 -18.775379180908203Q52.21156692504883 -18.824481964111328 52.170936584472656 -18.87865447998047Q50.90115737915039 -20.51751708984375 48.620635986328125 -22.3900146484375Q48.19060516357422 -22.73708724975586 47.99421310424805 -23.01305389404297Q47.64375686645508 -23.505725860595703 47.71316909790039 -24.064430236816406Q47.82490921020508 -24.978668212890625 48.65449905395508 -25.225849151611328Q49.3249397277832 -25.511974334716797 50.12236022949219 -25.274951934814453Q51.896663665771484 -24.72978973388672 52.846458435058594 -24.496150970458984L52.90571212768555 -24.443668365478516Q53.45482635498047 -25.999481201171875 53.167572021484375 -29.686691284179688Q49.9754524230957 -29.366783142089844 47.37625503540039 -28.760913848876953Q47.340702056884766 -28.752445220947266 47.30514907836914 -28.74567413330078Q44.95859909057617 -28.329185485839844 44.31355285644531 -28.18189239501953Q43.25371170043945 -27.728160858154297 42.403804779052734 -28.068458557128906Q41.159423828125 -28.566211700439453 40.424644470214844 -29.118141174316406Q39.19888687133789 -30.071319580078125 39.29539108276367 -31.232746124267578Q39.30046844482422 -31.30046844482422 39.312320709228516 -31.366497039794922Q39.600135803222656 -32.92747497558594 41.220375061035156 -32.834354400634766Q44.75204849243164 -32.871604919433594 47.04780578613281 -33.21359634399414Q47.066429138183594 -33.216983795166016 47.08674621582031 -33.21867752075195Q50.505470275878906 -33.62922668457031 52.372802734375 -33.785980224609375Q52.19457244873047 -34.28504180908203 51.98469924926758 -34.73225021362305Q51.344730377197266 -36.029117584228516 52.064273834228516 -36.841773986816406Q52.38062286376953 -37.24158477783203 52.73923110961914 -37.412811279296875Q51.873958587646484 -37.10664367675781 51.48017501831055 -36.97721862792969Q49.690635681152344 -36.03758239746094 47.99082946777344 -36.91457748413086Q47.95188903808594 -36.93489074707031 47.914642333984375 -36.95690155029297Q46.878501892089844 -37.58163070678711 46.45185852050781 -38.37397384643555Q46.41461181640625 -38.44169235229492 46.38582992553711 -38.5111083984375Q45.94055938720703 -39.62512969970703 46.60761642456055 -40.4174690246582Q47.17816925048828 -41.096378326416016 48.263404846191406 -41.0523567199707Q50.13590621948242 -40.98802185058594 50.83174133300781 -41.181026458740234Q54.1196174621582 -42.1020393371582 56.276546478271484 -42.8774528503418Q57.65806579589844 -43.35996627807617 58.86012268066406 -42.726768493652344Q58.883827209472656 -42.71492004394531 58.90583419799805 -42.70137405395508Q60.00137710571289 -42.07145309448242 60.71589660644531 -41.5098876953125Q60.7755241394043 -41.87307357788086 60.9882698059082 -42.284889221191406Q61.39290237426758 -43.256690979003906 61.64516830444336 -43.87803649902344Q61.618080139160156 -43.87464904785156 61.59099197387695 -43.872955322265625Q53.52705383300781 -43.309173583984375 48.29218673706055 -41.70417404174805Q48.2363166809082 -41.6872444152832 48.18044662475586 -41.675392150878906Q47.32184982299805 -41.490272521972656 46.601680755615234 -41.542213439941406Q45.228153228759766 -38.37371063232422 44.68940734863281 -37.61887741088867Q44.66400909423828 -37.58332443237305 44.63692092895508 -37.5511589050293Q43.83611297607422 -36.5675048828125 42.87785720825195 -36.5675048828125Q41.76045227050781 -36.5675048828125 41.159423828125 -37.720462799072266Q40.88007354736328 -38.15387725830078 40.79203414916992 -38.673641204833984Q40.06233596801758 -41.038814544677734 42.12953567504883 -43.27362060546875Q43.280799865722656 -44.72624588012695 43.21476745605469 -45.22569274902344Q43.1927604675293 -45.39160919189453 43.211387634277344 -45.55752944946289Q43.35021209716797 -46.769744873046875 44.21704864501953 -47.18284225463867Q45.205780029296875 -47.653507232666016 46.191131591796875 -46.791751861572266Q46.75505447387695 -46.321937561035156 47.0740852355957 -45.79528045654297Q48.207332611083984 -45.928993225097656 49.372344970703125 -46.09591293334961Q51.479801177978516 -46.45198440551758 54.11991882324219 -46.822486877441406Q53.12668991088867 -47.65165328979492 52.19294357299805 -48.33918762207031ZM54.05445098876953 -37.34742736816406Q54.29774856567383 -37.70782470703125 54.53610610961914 -38.05568313598633Q53.655574798583984 -37.73828125 53.004180908203125 -37.50677490234375Q53.49317932128906 -37.622589111328125 54.05445098876953 -37.34742736816406ZM61.971923828125 -44.52477264404297Q61.97514343261719 -44.775840759277344 62.068626403808594 -45.01007843017578Q61.965457916259766 -44.75275802612305 61.971923828125 -44.52477264404297ZM49.48069763183594 -22.63888931274414H49.47731399536133Q49.41297912597656 -22.621959686279297 49.346946716308594 -22.610107421875Q49.41636276245117 -22.621959686279297 49.48069763183594 -22.63888931274414Z"/>
  </g>
  <g id="Regular-S" transform="matrix(1 0 0 1 1394.4 696)">
   <path class="monochrome-0 hierarchical-0:secondary" d="M80.90345764160156 -29.204833984375 83.76638793945312 -12.968269348144531C84.32319641113281 -9.814682006835938 82.8758316040039 -6.771385192871094 80.34012603759766 -5.1439208984375C80.70447540283203 -6.130622863769531 80.90345764160156 -7.1974334716796875 80.90345764160156 -8.310722351074219ZM29.096538543701172 -41.25519561767578 26.233612060546875 -57.49174499511719C25.676799774169922 -60.645320892333984 27.124164581298828 -63.688621520996094 29.659881591796875 -65.31610107421875C29.295528411865234 -64.32939147949219 29.096538543701172 -63.262577056884766 29.096538543701172 -62.149288177490234ZM49.864627838134766 0.8316726684570312 44.50655746459961 1.776397705078125C42.628116607666016 2.108062744140625 40.78880310058594 1.7286376953125 39.264530181884766 0.8316726684570312ZM60.1353874206543 -71.29168701171875 65.49343872070312 -72.23639678955078C67.37188720703125 -72.56806945800781 69.21119689941406 -72.18864440917969 70.73546600341797 -71.29168701171875Z"/>
   <path class="monochrome-1 hierarchical-1:primary" d="M38.23893737792969 -69.85260772705078H71.76106262207031C76.01548767089844 -69.85260772705078 79.4643783569336 -66.4037094116211 79.4643783569336 -62.149288177490234V-8.310722351074219C79.4643783569336 -4.056297302246094 76.01548767089844 -0.6074066162109375 71.76106262207031 -0.6074066162109375H38.23893737792969C33.98451232910156 -0.6074066162109375 30.535619735717773 -4.056297302246094 30.535619735717773 -8.310722351074219V-62.149288177490234C30.535619735717773 -66.4037094116211 33.98451232910156 -69.85260772705078 38.23893737792969 -69.85260772705078ZM38.23893737792969 -64.94279479980469C36.69612121582031 -64.94279479980469 35.44542694091797 -63.692100524902344 35.44542694091797 -62.149288177490234V-8.310722351074219C35.44542694091797 -6.767906188964844 36.69612121582031 -5.5172119140625 38.23893737792969 -5.5172119140625H71.76106262207031C73.30387878417969 -5.5172119140625 74.55457305908203 -6.767906188964844 74.55457305908203 -8.310722351074219V-62.149288177490234C74.55457305908203 -63.692100524902344 73.30387878417969 -64.94279479980469 71.76106262207031 -64.94279479980469ZM52.19294357299805 -48.33918762207031Q50.738624572753906 -49.25511932373047 50.361080169677734 -50.07624053955078Q50.2967414855957 -50.21337890625 50.26457214355469 -50.36236572265625Q50.00553894042969 -51.584739685058594 50.740318298339844 -52.31951904296875Q50.96887969970703 -52.546382904052734 51.273624420166016 -52.64796447753906Q51.73074722290039 -52.79864501953125 52.6669921875 -52.749549865722656Q52.71270751953125 -52.74616241455078 52.758419036865234 -52.74108123779297Q57.075660705566406 -52.217933654785156 57.925567626953125 -50.29295349121094Q57.93572235107422 -50.267555236816406 57.94588088989258 -50.24385452270508Q58.56553649902344 -48.674407958984375 58.3318977355957 -47.621337890625Q58.32851028442383 -47.604408264160156 58.323429107666016 -47.585784912109375Q58.295631408691406 -47.47496795654297 58.26237869262695 -47.371620178222656Q59.74589538574219 -47.5582275390625 61.35734939575195 -47.748313903808594Q64.79421997070312 -48.41706848144531 66.13340759277344 -47.430023193359375Q69.27568054199219 -45.17998504638672 69.37557983398438 -44.216644287109375Q69.38233947753906 -44.145538330078125 69.38233947753906 -44.07612228393555Q69.38233947753906 -42.79279708862305 67.14584350585938 -42.0089225769043Q67.12045288085938 -42.000457763671875 67.0933609008789 -41.99199295043945Q65.66105651855469 -41.55519104003906 63.85457992553711 -40.241390228271484Q62.879276275634766 -39.55353546142578 62.0780029296875 -39.69113540649414Q62.39968490600586 -38.129417419433594 60.67167282104492 -37.493595123291016Q60.58701705932617 -37.46311950683594 60.49728775024414 -37.44280242919922Q59.90754699707031 -37.31240463256836 56.609981536865234 -34.798397064208984Q56.745426177978516 -34.52886199951172 56.87299728393555 -34.22182846069336Q58.26490783691406 -34.39426040649414 59.975833892822266 -34.54771041870117Q62.401954650878906 -34.89478302001953 64.79421997070312 -35.345130920410156Q66.13340759277344 -35.751461029052734 67.04087829589844 -35.333282470703125Q68.7626953125 -34.556175231933594 69.95458984375 -33.4066047668457Q71.06015014648438 -32.299354553222656 70.33213806152344 -30.94662094116211Q70.25933837890625 -30.811176300048828 70.1594467163086 -30.69605255126953Q69.43482971191406 -29.869850158691406 67.95003509521484 -30.062854766845703Q62.677490234375 -30.520755767822266 57.70846939086914 -30.08776092529297Q58.20880889892578 -24.601478576660156 57.34993362426758 -21.402973175048828Q57.33808517456055 -21.364036560058594 57.32623291015625 -21.3267822265625Q56.510189056396484 -18.880348205566406 55.17776870727539 -18.159114837646484Q55.15745162963867 -18.147262573242188 55.13713455200195 -18.137104034423828Q53.59646987915039 -17.36846923828125 52.25897216796875 -18.775379180908203Q52.21156692504883 -18.824481964111328 52.170936584472656 -18.87865447998047Q50.90115737915039 -20.51751708984375 48.620635986328125 -22.3900146484375Q48.19060516357422 -22.73708724975586 47.99421310424805 -23.01305389404297Q47.64375686645508 -23.505725860595703 47.71316909790039 -24.064430236816406Q47.82490921020508 -24.978668212890625 48.65449905395508 -25.225849151611328Q49.3249397277832 -25.511974334716797 50.12236022949219 -25.274951934814453Q51.896663665771484 -24.72978973388672 52.846458435058594 -24.496150970458984L52.90571212768555 -24.443668365478516Q53.45482635498047 -25.999481201171875 53.167572021484375 -29.686691284179688Q49.9754524230957 -29.366783142089844 47.37625503540039 -28.760913848876953Q47.340702056884766 -28.752445220947266 47.30514907836914 -28.74567413330078Q44.95859909057617 -28.329185485839844 44.31355285644531 -28.18189239501953Q43.25371170043945 -27.728160858154297 42.403804779052734 -28.068458557128906Q41.159423828125 -28.566211700439453 40.424644470214844 -29.118141174316406Q39.19888687133789 -30.071319580078125 39.29539108276367 -31.232746124267578Q39.30046844482422 -31.30046844482422 39.312320709228516 -31.366497039794922Q39.600135803222656 -32.92747497558594 41.220375061035156 -32.834354400634766Q44.75204849243164 -32.871604919433594 47.04780578613281 -33.21359634399414Q47.066429138183594 -33.216983795166016 47.08674621582031 -33.21867752075195Q50.505470275878906 -33.62922668457031 52.372802734375 -33.785980224609375Q52.19457244873047 -34.28504180908203 51.98469924926758 -34.73225021362305Q51.344730377197266 -36.029117584228516 52.064273834228516 -36.841773986816406Q52.38062286376953 -37.24158477783203 52.73923110961914 -37.412811279296875Q51.873958587646484 -37.10664367675781 51.48017501831055 -36.97721862792969Q49.690635681152344 -36.03758239746094 47.99082946777344 -36.91457748413086Q47.95188903808594 -36.93489074707031 47.914642333984375 -36.95690155029297Q46.878501892089844 -37.58163070678711 46.45185852050781 -38.37397384643555Q46.41461181640625 -38.44169235229492 46.38582992553711 -38.5111083984375Q45.94055938720703 -39.62512969970703 46.60761642456055 -40.4174690246582Q47.17816925048828 -41.096378326416016 48.263404846191406 -41.0523567199707Q50.13590621948242 -40.98802185058594 50.83174133300781 -41.181026458740234Q54.1196174621582 -42.1020393371582 56.276546478271484 -42.8774528503418Q57.65806579589844 -43.35996627807617 58.86012268066406 -42.726768493652344Q58.883827209472656 -42.71492004394531 58.90583419799805 -42.70137405395508Q60.00137710571289 -42.07145309448242 60.71589660644531 -41.5098876953125Q60.7755241394043 -41.87307357788086 60.9882698059082 -42.284889221191406Q61.39290237426758 -43.256690979003906 61.64516830444336 -43.87803649902344Q61.618080139160156 -43.87464904785156 61.59099197387695 -43.872955322265625Q53.52705383300781 -43.309173583984375 48.29218673706055 -41.70417404174805Q48.2363166809082 -41.6872444152832 48.18044662475586 -41.675392150878906Q47.32184982299805 -41.490272521972656 46.601680755615234 -41.542213439941406Q45.228153228759766 -38.37371063232422 44.68940734863281 -37.61887741088867Q44.66400909423828 -37.58332443237305 44.63692092895508 -37.5511589050293Q43.83611297607422 -36.5675048828125 42.87785720825195 -36.5675048828125Q41.76045227050781 -36.5675048828125 41.159423828125 -37.720462799072266Q40.88007354736328 -38.15387725830078 40.79203414916992 -38.673641204833984Q40.06233596801758 -41.038814544677734 42.12953567504883 -43.27362060546875Q43.280799865722656 -44.72624588012695 43.21476745605469 -45.22569274902344Q43.1927604675293 -45.39160919189453 43.211387634277344 -45.55752944946289Q43.35021209716797 -46.769744873046875 44.21704864501953 -47.18284225463867Q45.205780029296875 -47.653507232666016 46.191131591796875 -46.791751861572266Q46.75505447387695 -46.321937561035156 47.0740852355957 -45.79528045654297Q48.207332611083984 -45.928993225097656 49.372344970703125 -46.09591293334961Q51.479801177978516 -46.45198440551758 54.11991882324219 -46.822486877441406Q53.12668991088867 -47.65165328979492 52.19294357299805 -48.33918762207031ZM54.05445098876953 -37.34742736816406Q54.29774856567383 -37.70782470703125 54.53610610961914 -38.05568313598633Q53.655574798583984 -37.73828125 53.004180908203125 -37.50677490234375Q53.49317932128906 -37.622589111328125 54.05445098876953 -37.34742736816406ZM61.971923828125 -44.52477264404297Q61.97514343261719 -44.775840759277344 62.068626403808594 -45.01007843017578Q61.965457916259766 -44.75275802612305 61.971923828125 -44.52477264404297ZM49.48069763183594 -22.63888931274414H49.47731399536133Q49.41297912597656 -22.621959686279297 49.346946716308594 -22.610107421875Q49.41636276245117 -22.621959686279297 49.48069763183594 -22.63888931274414Z"/>
  </g>
  <g id="Black-S" transform="matrix(1 0 0 1 2873.15 696)">
   <path class="monochrome-0 hierarchical-0:secondary" d="M80.90345764160156 -29.204833984375 83.76638793945312 -12.968269348144531C84.32319641113281 -9.814682006835938 82.8758316040039 -6.771385192871094 80.34012603759766 -5.1439208984375C80.70447540283203 -6.130622863769531 80.90345764160156 -7.1974334716796875 80.90345764160156 -8.310722351074219ZM29.096538543701172 -41.25519561767578 26.233612060546875 -57.49174499511719C25.676799774169922 -60.645320892333984 27.124164581298828 -63.688621520996094 29.659881591796875 -65.31610107421875C29.295528411865234 -64.32939147949219 29.096538543701172 -63.262577056884766 29.096538543701172 -62.149288177490234ZM49.864627838134766 0.8316726684570312 44.50655746459961 1.776397705078125C42.628116607666016 2.108062744140625 40.78880310058594 1.7286376953125 39.264530181884766 0.8316726684570312ZM60.1353874206543 -71.29168701171875 65.49343872070312 -72.23639678955078C67.37188720703125 -72.56806945800781 69.21119689941406 -72.18864440917969 70.73546600341797 -71.29168701171875Z"/>
   <path class="monochrome-1 hierarchical-1:primary" d="M38.23893737792969 -69.85260772705078H71.76106262207031C76.01548767089844 -69.85260772705078 79.4643783569336 -66.4037094116211 79.4643783569336 -62.149288177490234V-8.310722351074219C79.4643783569336 -4.056297302246094 76.01548767089844 -0.6074066162109375 71.76106262207031 -0.6074066162109375H38.23893737792969C33.98451232910156 -0.6074066162109375 30.535619735717773 -4.056297302246094 30.535619735717773 -8.310722351074219V-62.149288177490234C30.535619735717773 -66.4037094116211 33.98451232910156 -69.85260772705078 38.23893737792969 -69.85260772705078ZM38.23893737792969 -64.94279479980469C36.69612121582031 -64.94279479980469 35.44542694091797 -63.692100524902344 35.44542694091797 -62.149288177490234V-8.310722351074219C35.44542694091797 -6.767906188964844 36.69612121582031 -5.5172119140625 38.23893737792969 -5.5172119140625H71.76106262207031C73.30387878417969 -5.5172119140625 74.55457305908203 -6.767906188964844 74.55457305908203 -8.310722351074219V-62.149288177490234C74.55457305908203 -63.692100524902344 73.30387878417969 -64.94279479980469 71.76106262207031 -64.94279479980469ZM52.19294357299805 -48.33918762207031Q50.738624572753906 -49.25511932373047 50.361080169677734 -50.07624053955078Q50.2967414855957 -50.21337890625 50.26457214355469 -50.36236572265625Q50.00553894042969 -51.584739685058594 50.740318298339844 -52.31951904296875Q50.96887969970703 -52.546382904052734 51.273624420166016 -52.64796447753906Q51.73074722290039 -52.79864501953125 52.6669921875 -52.749549865722656Q52.71270751953125 -52.74616241455078 52.758419036865234 -52.74108123779297Q57.075660705566406 -52.217933654785156 57.925567626953125 -50.29295349121094Q57.93572235107422 -50.267555236816406 57.94588088989258 -50.24385452270508Q58.56553649902344 -48.674407958984375 58.3318977355957 -47.621337890625Q58.32851028442383 -47.604408264160156 58.323429107666016 -47.585784912109375Q58.295631408691406 -47.47496795654297 58.26237869262695 -47.371620178222656Q59.74589538574219 -47.5582275390625 61.35734939575195 -47.748313903808594Q64.79421997070312 -48.41706848144531 66.13340759277344 -47.430023193359375Q69.27568054199219 -45.17998504638672 69.37557983398438 -44.216644287109375Q69.38233947753906 -44.145538330078125 69.38233947753906 -44.07612228393555Q69.38233947753906 -42.79279708862305 67.14584350585938 -42.0089225769043Q67.12045288085938 -42.000457763671875 67.0933609008789 -41.99199295043945Q65.66105651855469 -41.55519104003906 63.85457992553711 -40.241390228271484Q62.879276275634766 -39.55353546142578 62.0780029296875 -39.69113540649414Q62.39968490600586 -38.129417419433594 60.67167282104492 -37.493595123291016Q60.58701705932617 -37.46311950683594 60.49728775024414 -37.44280242919922Q59.90754699707031 -37.31240463256836 56.609981536865234 -34.798397064208984Q56.745426177978516 -34.52886199951172 56.87299728393555 -34.22182846069336Q58.26490783691406 -34.39426040649414 59.975833892822266 -34.54771041870117Q62.401954650878906 -34.89478302001953 64.79421997070312 -35.345130920410156Q66.13340759277344 -35.751461029052734 67.04087829589844 -35.333282470703125Q68.7626953125 -34.556175231933594 69.95458984375 -33.4066047668457Q71.06015014648438 -32.299354553222656 70.33213806152344 -30.94662094116211Q70.25933837890625 -30.811176300048828 70.1594467163086 -30.69605255126953Q69.43482971191406 -29.869850158691406 67.95003509521484 -30.062854766845703Q62.677490234375 -30.520755767822266 57.70846939086914 -30.08776092529297Q58.20880889892578 -24.601478576660156 57.34993362426758 -21.402973175048828Q57.33808517456055 -21.364036560058594 57.32623291015625 -21.3267822265625Q56.510189056396484 -18.880348205566406 55.17776870727539 -18.159114837646484Q55.15745162963867 -18.147262573242188 55.13713455200195 -18.137104034423828Q53.59646987915039 -17.36846923828125 52.25897216796875 -18.775379180908203Q52.21156692504883 -18.824481964111328 52.170936584472656 -18.87865447998047Q50.90115737915039 -20.51751708984375 48.620635986328125 -22.3900146484375Q48.19060516357422 -22.73708724975586 47.99421310424805 -23.01305389404297Q47.64375686645508 -23.505725860595703 47.71316909790039 -24.064430236816406Q47.82490921020508 -24.978668212890625 48.65449905395508 -25.225849151611328Q49.3249397277832 -25.511974334716797 50.12236022949219 -25.274951934814453Q51.896663665771484 -24.72978973388672 52.846458435058594 -24.496150970458984L52.90571212768555 -24.443668365478516Q53.45482635498047 -25.999481201171875 53.167572021484375 -29.686691284179688Q49.9754524230957 -29.366783142089844 47.37625503540039 -28.760913848876953Q47.340702056884766 -28.752445220947266 47.30514907836914 -28.74567413330078Q44.95859909057617 -28.329185485839844 44.31355285644531 -28.18189239501953Q43.25371170043945 -27.728160858154297 42.403804779052734 -28.068458557128906Q41.159423828125 -28.566211700439453 40.424644470214844 -29.118141174316406Q39.19888687133789 -30.071319580078125 39.29539108276367 -31.232746124267578Q39.30046844482422 -31.30046844482422 39.312320709228516 -31.366497039794922Q39.600135803222656 -32.92747497558594 41.220375061035156 -32.834354400634766Q44.75204849243164 -32.871604919433594 47.04780578613281 -33.21359634399414Q47.066429138183594 -33.216983795166016 47.08674621582031 -33.21867752075195Q50.505470275878906 -33.62922668457031 52.372802734375 -33.785980224609375Q52.19457244873047 -34.28504180908203 51.98469924926758 -34.73225021362305Q51.344730377197266 -36.029117584228516 52.064273834228516 -36.841773986816406Q52.38062286376953 -37.24158477783203 52.73923110961914 -37.412811279296875Q51.873958587646484 -37.10664367675781 51.48017501831055 -36.97721862792969Q49.690635681152344 -36.03758239746094 47.99082946777344 -36.91457748413086Q47.95188903808594 -36.93489074707031 47.914642333984375 -36.95690155029297Q46.878501892089844 -37.58163070678711 46.45185852050781 -38.37397384643555Q46.41461181640625 -38.44169235229492 46.38582992553711 -38.5111083984375Q45.94055938720703 -39.62512969970703 46.60761642456055 -40.4174690246582Q47.17816925048828 -41.096378326416016 48.263404846191406 -41.0523567199707Q50.13590621948242 -40.98802185058594 50.83174133300781 -41.181026458740234Q54.1196174621582 -42.1020393371582 56.276546478271484 -42.8774528503418Q57.65806579589844 -43.35996627807617 58.86012268066406 -42.726768493652344Q58.883827209472656 -42.71492004394531 58.90583419799805 -42.70137405395508Q60.00137710571289 -42.07145309448242 60.71589660644531 -41.5098876953125Q60.7755241394043 -41.87307357788086 60.9882698059082 -42.284889221191406Q61.39290237426758 -43.256690979003906 61.64516830444336 -43.87803649902344Q61.618080139160156 -43.87464904785156 61.59099197387695 -43.872955322265625Q53.52705383300781 -43.309173583984375 48.29218673706055 -41.70417404174805Q48.2363166809082 -41.6872444152832 48.18044662475586 -41.675392150878906Q47.32184982299805 -41.490272521972656 46.601680755615234 -41.542213439941406Q45.228153228759766 -38.37371063232422 44.68940734863281 -37.61887741088867Q44.66400909423828 -37.58332443237305 44.63692092895508 -37.5511589050293Q43.83611297607422 -36.5675048828125 42.87785720825195 -36.5675048828125Q41.76045227050781 -36.5675048828125 41.159423828125 -37.720462799072266Q40.88007354736328 -38.15387725830078 40.79203414916992 -38.673641204833984Q40.06233596801758 -41.038814544677734 42.12953567504883 -43.27362060546875Q43.280799865722656 -44.72624588012695 43.21476745605469 -45.22569274902344Q43.1927604675293 -45.39160919189453 43.211387634277344 -45.55752944946289Q43.35021209716797 -46.769744873046875 44.21704864501953 -47.18284225463867Q45.205780029296875 -47.653507232666016 46.191131591796875 -46.791751861572266Q46.75505447387695 -46.321937561035156 47.0740852355957 -45.79528045654297Q48.207332611083984 -45.928993225097656 49.372344970703125 -46.09591293334961Q51.479801177978516 -46.45198440551758 54.11991882324219 -46.822486877441406Q53.12668991088867 -47.65165328979492 52.19294357299805 -48.33918762207031ZM54.05445098876953 -37.34742736816406Q54.29774856567383 -37.70782470703125 54.53610610961914 -38.05568313598633Q53.655574798583984 -37.73828125 53.004180908203125 -37.50677490234375Q53.49317932128906 -37.622589111328125 54.05445098876953 -37.34742736816406ZM61.971923828125 -44.52477264404297Q61.97514343261719 -44.775840759277344 62.068626403808594 -45.01007843017578Q61.965457916259766 -44.75275802612305 61.971923828125 -44.52477264404297ZM49.48069763183594 -22.63888931274414H49.47731399536133Q49.41297912597656 -22.621959686279297 49.346946716308594 -22.610107421875Q49.41636276245117 -22.621959686279297 49.48069763183594 -22.63888931274414Z"/>
  </g>
 </g>
</svg>
