<?xml version="1.0" encoding="UTF-8"?>
<!--Generator: Apple Native CoreSVG 228-->
<!DOCTYPE svg
PUBLIC "-//W3C//DTD SVG 1.1//EN"
       "http://www.w3.org/Graphics/SVG/1.1/DTD/svg11.dtd">
<svg version="1.1" xmlns="http://www.w3.org/2000/svg" xmlns:xlink="http://www.w3.org/1999/xlink" width="3300" height="2200">
 <!--glyph: "", point size: 100.0, font version: "19.0d5e1internal", template writer version: "101"-->
 <style>.monochrome-0{fill:#000000}
.monochrome-1{fill:#000000}
.hierarchical-0:secondary{fill:#000000}
.hierarchical-1:primary{fill:#000000}
</style>
 <g id="Notes">
  <rect height="2200" id="artboard" style="fill:white;opacity:1" width="3300" x="0" y="0"/>
  <line style="fill:none;stroke:black;opacity:1;stroke-width:0.5;" x1="263" x2="3036" y1="292" y2="292"/>
  <text style="stroke:none;fill:black;font-family:sans-serif;font-size:13;font-weight:bold;" transform="matrix(1 0 0 1 263 322)">Weight/Scale Variations</text>
  <text style="stroke:none;fill:black;font-family:sans-serif;font-size:13;text-anchor:middle;" transform="matrix(1 0 0 1 559.711 322)">Ultralight</text>
  <text style="stroke:none;fill:black;font-family:sans-serif;font-size:13;text-anchor:middle;" transform="matrix(1 0 0 1 856.422 322)">Thin</text>
  <text style="stroke:none;fill:black;font-family:sans-serif;font-size:13;text-anchor:middle;" transform="matrix(1 0 0 1 1153.13 322)">Light</text>
  <text style="stroke:none;fill:black;font-family:sans-serif;font-size:13;text-anchor:middle;" transform="matrix(1 0 0 1 1449.84 322)">Regular</text>
  <text style="stroke:none;fill:black;font-family:sans-serif;font-size:13;text-anchor:middle;" transform="matrix(1 0 0 1 1746.56 322)">Medium</text>
  <text style="stroke:none;fill:black;font-family:sans-serif;font-size:13;text-anchor:middle;" transform="matrix(1 0 0 1 2043.27 322)">Semibold</text>
  <text style="stroke:none;fill:black;font-family:sans-serif;font-size:13;text-anchor:middle;" transform="matrix(1 0 0 1 2339.98 322)">Bold</text>
  <text style="stroke:none;fill:black;font-family:sans-serif;font-size:13;text-anchor:middle;" transform="matrix(1 0 0 1 2636.69 322)">Heavy</text>
  <text style="stroke:none;fill:black;font-family:sans-serif;font-size:13;text-anchor:middle;" transform="matrix(1 0 0 1 2933.4 322)">Black</text>
  <line style="fill:none;stroke:black;opacity:1;stroke-width:0.5;" x1="263" x2="3036" y1="1903" y2="1903"/>
  <g transform="matrix(1 0 0 1 263 1933)">
   <path d="M9.24805 0.830078C13.5547 0.830078 17.1387-2.74414 17.1387-7.05078C17.1387-11.3574 13.5449-14.9316 9.23828-14.9316C4.94141-14.9316 1.36719-11.3574 1.36719-7.05078C1.36719-2.74414 4.95117 0.830078 9.24805 0.830078ZM9.24805-0.654297C5.70312-0.654297 2.87109-3.49609 2.87109-7.05078C2.87109-10.6055 5.69336-13.4473 9.23828-13.4473C12.793-13.4473 15.6445-10.6055 15.6445-7.05078C15.6445-3.49609 12.8027-0.654297 9.24805-0.654297ZM5.6543-7.05078C5.6543-6.62109 5.95703-6.32812 6.40625-6.32812L8.50586-6.32812L8.50586-4.20898C8.50586-3.76953 8.79883-3.4668 9.22852-3.4668C9.67773-3.4668 9.9707-3.76953 9.9707-4.20898L9.9707-6.32812L12.0898-6.32812C12.5293-6.32812 12.832-6.62109 12.832-7.05078C12.832-7.49023 12.5293-7.79297 12.0898-7.79297L9.9707-7.79297L9.9707-9.90234C9.9707-10.3516 9.67773-10.6543 9.22852-10.6543C8.79883-10.6543 8.50586-10.3516 8.50586-9.90234L8.50586-7.79297L6.40625-7.79297C5.95703-7.79297 5.6543-7.49023 5.6543-7.05078Z"/>
  </g>
  <g transform="matrix(1 0 0 1 281.867 1933)">
   <path d="M11.709 2.91016C17.1582 2.91016 21.6699-1.61133 21.6699-7.05078C21.6699-12.5 17.1484-17.0117 11.6992-17.0117C6.25977-17.0117 1.74805-12.5 1.74805-7.05078C1.74805-1.61133 6.26953 2.91016 11.709 2.91016ZM11.709 1.25C7.09961 1.25 3.41797-2.44141 3.41797-7.05078C3.41797-11.6602 7.08984-15.3516 11.6992-15.3516C16.3086-15.3516 20.0098-11.6602 20.0098-7.05078C20.0098-2.44141 16.3184 1.25 11.709 1.25ZM7.17773-7.05078C7.17773-6.57227 7.50977-6.25 8.00781-6.25L10.8789-6.25L10.8789-3.36914C10.8789-2.88086 11.2109-2.53906 11.6895-2.53906C12.1777-2.53906 12.5195-2.87109 12.5195-3.36914L12.5195-6.25L15.4004-6.25C15.8887-6.25 16.2305-6.57227 16.2305-7.05078C16.2305-7.53906 15.8887-7.88086 15.4004-7.88086L12.5195-7.88086L12.5195-10.752C12.5195-11.25 12.1777-11.5918 11.6895-11.5918C11.2109-11.5918 10.8789-11.25 10.8789-10.752L10.8789-7.88086L8.00781-7.88086C7.50977-7.88086 7.17773-7.53906 7.17773-7.05078Z"/>
  </g>
  <g transform="matrix(1 0 0 1 305.646 1933)">
   <path d="M14.9707 5.66406C21.9336 5.66406 27.6953-0.0976562 27.6953-7.05078C27.6953-14.0137 21.9238-19.7754 14.9609-19.7754C8.00781-19.7754 2.25586-14.0137 2.25586-7.05078C2.25586-0.0976562 8.01758 5.66406 14.9707 5.66406ZM14.9707 3.84766C8.93555 3.84766 4.08203-1.01562 4.08203-7.05078C4.08203-13.0957 8.92578-17.9492 14.9609-17.9492C21.0059-17.9492 25.8691-13.0957 25.8691-7.05078C25.8691-1.01562 21.0156 3.84766 14.9707 3.84766ZM9.19922-7.05078C9.19922-6.5332 9.57031-6.17188 10.1172-6.17188L14.0625-6.17188L14.0625-2.2168C14.0625-1.67969 14.4336-1.29883 14.9512-1.29883C15.4883-1.29883 15.8594-1.66992 15.8594-2.2168L15.8594-6.17188L19.8145-6.17188C20.3516-6.17188 20.7324-6.5332 20.7324-7.05078C20.7324-7.59766 20.3613-7.96875 19.8145-7.96875L15.8594-7.96875L15.8594-11.9141C15.8594-12.4609 15.4883-12.8418 14.9512-12.8418C14.4336-12.8418 14.0625-12.4609 14.0625-11.9141L14.0625-7.96875L10.1172-7.96875C9.57031-7.96875 9.19922-7.59766 9.19922-7.05078Z"/>
  </g>
  <text style="stroke:none;fill:black;font-family:sans-serif;font-size:13;font-weight:bold;" transform="matrix(1 0 0 1 263 1953)">Design Variations</text>
  <text style="stroke:none;fill:black;font-family:sans-serif;font-size:13;" transform="matrix(1 0 0 1 263 1971)">Symbols are supported in up to nine weights and three scales.</text>
  <text style="stroke:none;fill:black;font-family:sans-serif;font-size:13;" transform="matrix(1 0 0 1 263 1989)">For optimal layout with text and other symbols, vertically align</text>
  <text style="stroke:none;fill:black;font-family:sans-serif;font-size:13;" transform="matrix(1 0 0 1 263 2007)">symbols with the adjacent text.</text>
  <line style="fill:none;stroke:#00AEEF;stroke-width:0.5;opacity:1.0;" x1="776" x2="776" y1="1919" y2="1933"/>
  <g transform="matrix(1 0 0 1 776 1933)">
   <path d="M3.31055 0.15625C3.82812 0.15625 4.08203-0.0390625 4.26758-0.585938L5.52734-4.0332L11.2891-4.0332L12.5488-0.585938C12.7344-0.0390625 12.9883 0.15625 13.4961 0.15625C14.0137 0.15625 14.3457-0.15625 14.3457-0.644531C14.3457-0.810547 14.3164-0.966797 14.2383-1.17188L9.6582-13.3691C9.43359-13.9648 9.0332-14.2676 8.4082-14.2676C7.80273-14.2676 7.39258-13.9746 7.17773-13.3789L2.59766-1.16211C2.51953-0.957031 2.49023-0.800781 2.49023-0.634766C2.49023-0.146484 2.80273 0.15625 3.31055 0.15625ZM6.00586-5.51758L8.37891-12.0898L8.42773-12.0898L10.8008-5.51758Z"/>
  </g>
  <line style="fill:none;stroke:#00AEEF;stroke-width:0.5;opacity:1.0;" x1="793.197" x2="793.197" y1="1919" y2="1933"/>
  <text style="stroke:none;fill:black;font-family:sans-serif;font-size:13;font-weight:bold;" transform="matrix(1 0 0 1 776 1953)">Margins</text>
  <text style="stroke:none;fill:black;font-family:sans-serif;font-size:13;" transform="matrix(1 0 0 1 776 1971)">Leading and trailing margins on the left and right side of each symbol</text>
  <text style="stroke:none;fill:black;font-family:sans-serif;font-size:13;" transform="matrix(1 0 0 1 776 1989)">can be adjusted by modifying the x-location of the margin guidelines.</text>
  <text style="stroke:none;fill:black;font-family:sans-serif;font-size:13;" transform="matrix(1 0 0 1 776 2007)">Modifications are automatically applied proportionally to all</text>
  <text style="stroke:none;fill:black;font-family:sans-serif;font-size:13;" transform="matrix(1 0 0 1 776 2025)">scales and weights.</text>
  <g transform="matrix(1 0 0 1 1289 1933)">
   <path d="M2.8418 1.86523L4.54102 3.57422C5.40039 4.44336 6.38672 4.38477 7.31445 3.35938L18.0078-8.42773L17.041-9.4043L6.42578 2.27539C6.07422 2.67578 5.74219 2.77344 5.27344 2.30469L4.10156 1.14258C3.63281 0.683594 3.74023 0.341797 4.14062-0.0195312L15.6152-10.8203L14.6387-11.7871L3.04688-0.898438C2.06055 0.0195312 1.98242 0.996094 2.8418 1.86523ZM9.25781-16.3281C8.83789-15.918 8.80859-15.3418 9.04297-14.9512C9.27734-14.5898 9.73633-14.3555 10.3809-14.5215C11.8457-14.8633 13.3691-14.9219 14.7949-13.9844L14.209-12.5293C13.8672-11.6992 14.043-11.1133 14.5801-10.5664L16.875-8.25195C17.3633-7.76367 17.7734-7.74414 18.3398-7.8418L19.4043-8.03711L20.0684-7.36328L20.0293-6.80664C19.9902-6.30859 20.1172-5.92773 20.6055-5.44922L21.3672-4.70703C21.8457-4.22852 22.4609-4.19922 22.9297-4.66797L25.8398-7.58789C26.3086-8.05664 26.2891-8.65234 25.8105-9.13086L25.0391-9.89258C24.5605-10.3711 24.1895-10.5273 23.7109-10.4883L23.1348-10.4395L22.4902-11.0742L22.7344-12.1973C22.8613-12.7637 22.7051-13.2031 22.1191-13.7891L19.9219-15.9766C16.582-19.2969 12.1484-19.2188 9.25781-16.3281ZM10.752-15.957C13.1836-17.7344 16.4746-17.4316 18.7012-15.2051L21.1328-12.793C21.3672-12.5586 21.4062-12.373 21.3379-12.0312L21.0156-10.5469L22.5195-9.0625L23.5059-9.12109C23.7598-9.13086 23.8379-9.11133 24.0332-8.91602L24.6094-8.33984L22.168-5.89844L21.5918-6.47461C21.3965-6.66992 21.3672-6.74805 21.377-7.01172L21.4453-7.98828L19.9512-9.47266L18.4277-9.21875C18.1055-9.15039 17.959-9.17969 17.7148-9.41406L15.7129-11.416C15.459-11.6504 15.4297-11.8164 15.5859-12.1875L16.4648-14.2773C14.9023-15.7324 12.8711-16.3574 10.8398-15.7617C10.6836-15.7227 10.625-15.8496 10.752-15.957Z"/>
  </g>
  <text style="stroke:none;fill:black;font-family:sans-serif;font-size:13;font-weight:bold;" transform="matrix(1 0 0 1 1289 1953)">Exporting</text>
  <text style="stroke:none;fill:black;font-family:sans-serif;font-size:13;" transform="matrix(1 0 0 1 1289 1971)">Symbols should be outlined when exporting to ensure the</text>
  <text style="stroke:none;fill:black;font-family:sans-serif;font-size:13;" transform="matrix(1 0 0 1 1289 1989)">design is preserved when submitting to Xcode.</text>
  <text id="template-version" style="stroke:none;fill:black;font-family:sans-serif;font-size:13;text-anchor:end;" transform="matrix(1 0 0 1 3036 1933)">Template v.4.0</text>
  <text style="stroke:none;fill:black;font-family:sans-serif;font-size:13;text-anchor:end;" transform="matrix(1 0 0 1 3036 1951)">Requires Xcode 14 or greater</text>
  <text id="descriptive-name" style="stroke:none;fill:black;font-family:sans-serif;font-size:13;text-anchor:end;" transform="matrix(1 0 0 1 3036 1969)">Generated from Practice</text>
  <text style="stroke:none;fill:black;font-family:sans-serif;font-size:13;text-anchor:end;" transform="matrix(1 0 0 1 3036 1987)">Typeset at 100 points</text>
  <text style="stroke:none;fill:black;font-family:sans-serif;font-size:13;" transform="matrix(1 0 0 1 263 726)">Small</text>
  <text style="stroke:none;fill:black;font-family:sans-serif;font-size:13;" transform="matrix(1 0 0 1 263 1156)">Medium</text>
  <text style="stroke:none;fill:black;font-family:sans-serif;font-size:13;" transform="matrix(1 0 0 1 263 1586)">Large</text>
 </g>
 <g id="Guides">
  <g id="H-reference" style="fill:#27AAE1;stroke:none;" transform="matrix(1 0 0 1 339 696)">
   <path d="M0.993654 0L3.63775 0L29.3281-67.1323L30.0303-67.1323L30.0303-70.459L28.1226-70.459ZM11.6885-24.4799L46.9815-24.4799L46.2315-26.7285L12.4385-26.7285ZM55.1196 0L57.7637 0L30.6382-70.459L29.4326-70.459L29.4326-67.1323Z"/>
  </g>
  <line id="Baseline-S" style="fill:none;stroke:#27AAE1;opacity:1;stroke-width:0.5;" x1="263" x2="3036" y1="696" y2="696"/>
  <line id="Capline-S" style="fill:none;stroke:#27AAE1;opacity:1;stroke-width:0.5;" x1="263" x2="3036" y1="625.541" y2="625.541"/>
  <g id="H-reference" style="fill:#27AAE1;stroke:none;" transform="matrix(1 0 0 1 339 1126)">
   <path d="M0.993654 0L3.63775 0L29.3281-67.1323L30.0303-67.1323L30.0303-70.459L28.1226-70.459ZM11.6885-24.4799L46.9815-24.4799L46.2315-26.7285L12.4385-26.7285ZM55.1196 0L57.7637 0L30.6382-70.459L29.4326-70.459L29.4326-67.1323Z"/>
  </g>
  <line id="Baseline-M" style="fill:none;stroke:#27AAE1;opacity:1;stroke-width:0.5;" x1="263" x2="3036" y1="1126" y2="1126"/>
  <line id="Capline-M" style="fill:none;stroke:#27AAE1;opacity:1;stroke-width:0.5;" x1="263" x2="3036" y1="1055.54" y2="1055.54"/>
  <g id="H-reference" style="fill:#27AAE1;stroke:none;" transform="matrix(1 0 0 1 339 1556)">
   <path d="M0.993654 0L3.63775 0L29.3281-67.1323L30.0303-67.1323L30.0303-70.459L28.1226-70.459ZM11.6885-24.4799L46.9815-24.4799L46.2315-26.7285L12.4385-26.7285ZM55.1196 0L57.7637 0L30.6382-70.459L29.4326-70.459L29.4326-67.1323Z"/>
  </g>
  <line id="Baseline-L" style="fill:none;stroke:#27AAE1;opacity:1;stroke-width:0.5;" x1="263" x2="3036" y1="1556" y2="1556"/>
  <line id="Capline-L" style="fill:none;stroke:#27AAE1;opacity:1;stroke-width:0.5;" x1="263" x2="3036" y1="1485.54" y2="1485.54"/>
  <line id="left-margin-Ultralight-S" style="fill:none;stroke:#00AEEF;stroke-width:0.5;opacity:1.0;" x1="507.128" x2="507.128" y1="600.785" y2="720.121"/>
  <line id="right-margin-Ultralight-S" style="fill:none;stroke:#00AEEF;stroke-width:0.5;opacity:1.0;" x1="612.295" x2="612.295" y1="600.785" y2="720.121"/>
  <line id="left-margin-Regular-S" style="fill:none;stroke:#00AEEF;stroke-width:0.5;opacity:1.0;" x1="1394.4" x2="1394.4" y1="600.785" y2="720.121"/>
  <line id="right-margin-Regular-S" style="fill:none;stroke:#00AEEF;stroke-width:0.5;opacity:1.0;" x1="1505.29" x2="1505.29" y1="600.785" y2="720.121"/>
  <line id="left-margin-Black-S" style="fill:none;stroke:#00AEEF;stroke-width:0.5;opacity:1.0;" x1="2873.15" x2="2873.15" y1="600.785" y2="720.121"/>
  <line id="right-margin-Black-S" style="fill:none;stroke:#00AEEF;stroke-width:0.5;opacity:1.0;" x1="2993.65" x2="2993.65" y1="600.785" y2="720.121"/>
 </g>
 <g id="Symbols">
  <g id="Ultralight-S" transform="matrix(1 0 0 1 507.128 696)">
   <path class="monochrome-0 hierarchical-0:secondary" d="M51.730438232421875 -51.882198333740234Q50.015892028808594 -52.96227264404297 49.59046173095703 -53.87914276123047Q49.52994918823242 -54.00933837890625 49.5006103515625 -54.14870071411133Q49.21821594238281 -55.45982360839844 49.98655319213867 -56.22266387939453Q50.19926452636719 -56.43354034423828 50.481658935546875 -56.52889633178711Q50.98044204711914 -56.695770263671875 52.07334899902344 -56.63892364501953Q52.11735916137695 -56.6370849609375 52.16136932373047 -56.63158416748047Q57.31051254272461 -56.00627899169922 58.27505874633789 -53.818626403808594Q58.28422927856445 -53.79662322998047 58.29339599609375 -53.77278518676758Q59.01955795288086 -51.93170928955078 58.75366973876953 -50.741607666015625L58.74633026123047 -50.71227264404297Q58.621612548828125 -50.2116813659668 58.39693832397461 -49.855491638183594Q60.571590423583984 -50.132347106933594 62.97494125366211 -50.41520690917969Q67.0990219116211 -51.222049713134766 68.62469482421875 -50.092464447021484Q72.38936614990234 -47.39503479003906 72.49388885498047 -46.37547302246094Q72.501220703125 -46.3094596862793 72.501220703125 -46.243446350097656Q72.501220703125 -44.93048858642578 69.98716735839844 -44.048458099365234Q69.96332550048828 -44.04112243652344 69.93765258789062 -44.03378677368164Q68.09107971191406 -43.468994140625 65.79156494140625 -41.798458099365234Q64.36858367919922 -40.7935676574707 63.34718704223633 -41.37302780151367Q63.288509368896484 -41.406036376953125 63.23349380493164 -41.44454574584961Q63.119014739990234 -41.52641677856445 63.022483825683594 -41.61425018310547Q63.242530822753906 -41.31315231323242 63.32884979248047 -41.04112243652344Q63.91748046875 -39.15970230102539 61.920536041259766 -38.42620849609375Q61.83985137939453 -38.39686584472656 61.75733184814453 -38.3785285949707Q60.9194221496582 -38.19269561767578 56.4903450012207 -34.807533264160156Q56.796958923339844 -34.252769470214844 57.074073791503906 -33.53739547729492Q58.920143127441406 -33.773155212402344 61.24021911621094 -33.98122024536133Q64.28423309326172 -34.41764831542969 67.28606414794922 -34.98060989379883Q68.82640838623047 -35.453712463378906 69.82579040527344 -34.993446350097656Q71.9034194946289 -34.052734375 73.3319091796875 -32.67559814453125Q74.5 -31.50749969482422 73.7316665649414 -30.086353302001953Q73.663818359375 -29.959823608398438 73.5702896118164 -29.851634979248047Q72.81112670898438 -28.980606079101562 71.16626739501953 -29.19515609741211Q64.34540557861328 -29.792335510253906 57.93121337890625 -29.19226837158203Q58.619361877441406 -22.149917602539062 57.53606033325195 -18.121192932128906Q57.526893615722656 -18.084522247314453 57.51405715942383 -18.047847747802734Q56.54950714111328 -15.154197692871094 55.02933883666992 -14.332687377929688Q55.01100158691406 -14.321685791015625 54.9926643371582 -14.312515258789062Q53.33863067626953 -13.485496520996094 51.878971099853516 -15.024002075195312Q51.8349609375 -15.071685791015625 51.79645538330078 -15.121192932128906Q50.18642807006836 -17.196990966796875 47.31112289428711 -19.557010650634766Q46.819679260253906 -19.956771850585938 46.60696792602539 -20.253833770751953Q46.2585563659668 -20.73794174194336 46.3264045715332 -21.280731201171875Q46.432762145996094 -22.155426025390625 47.23227310180664 -22.393810272216797Q47.94742965698242 -22.709217071533203 48.80929183959961 -22.45065689086914Q51.02994918823242 -21.770339965820312 52.223716735839844 -21.476940155029297Q52.46393585205078 -21.418262481689453 52.65647888183594 -21.376083374023438Q53.5407600402832 -23.433895111083984 53.085689544677734 -28.770801544189453Q48.844505310058594 -28.368675231933594 45.418701171875 -27.56863021850586Q45.38569641113281 -27.561294555664062 45.35268783569336 -27.55579376220703Q42.360023498535156 -27.022174835205078 41.567848205566406 -26.84062957763672Q40.38325119018555 -26.323516845703125 39.46821594238281 -26.688430786132812Q37.97005081176758 -27.288066864013672 37.10268783569336 -27.939044952392578Q35.74571990966797 -28.993446350097656 35.85207748413086 -30.22388458251953Q35.85574722290039 -30.282562255859375 35.86674880981445 -30.33940887451172Q36.15464401245117 -31.943931579589844 37.836185455322266 -31.84490966796875Q42.270172119140625 -31.89075469970703 45.16197967529297 -32.32168197631836Q45.17848205566406 -32.32535171508789 45.19681930541992 -32.32718276977539Q49.97903060913086 -32.90166091918945 52.27452087402344 -33.07975769042969Q51.981597900390625 -33.99359893798828 51.61124801635742 -34.78256607055664Q50.9272575378418 -36.15787124633789 51.651588439941406 -36.97571563720703Q52.60398483276367 -38.183406829833984 53.94968795776367 -37.33153533935547Q54.73142623901367 -38.49488830566406 55.47127151489258 -39.553958892822266Q51.499385833740234 -38.116302490234375 50.461490631103516 -37.775230407714844Q48.402198791503906 -36.68231964111328 46.458431243896484 -37.68537521362305Q46.42176055908203 -37.70371627807617 46.38508605957031 -37.7257194519043Q45.19131851196289 -38.44454574584961 44.712711334228516 -39.33391189575195Q44.67787170410156 -39.39809036254883 44.650367736816406 -39.465938568115234Q44.186431884765625 -40.6266975402832 44.85940933227539 -41.42803955078125Q45.444374084472656 -42.12486267089844 46.599632263183594 -42.07535171508789Q48.9926643371582 -41.99100112915039 49.918704986572266 -42.25139236450195Q54.028114318847656 -43.39931106567383 56.72188186645508 -44.37119674682617Q58.276893615722656 -44.91215133666992 59.61735916137695 -44.20799255371094Q59.639366149902344 -44.19515609741211 59.66136932373047 -44.18415069580078Q61.79964065551758 -42.95182800292969 62.709877014160156 -41.9864616394043Q62.24739456176758 -42.74287033081055 62.817237854003906 -43.84307861328125Q63.48838424682617 -45.44576644897461 63.8257942199707 -46.29112243652344Q63.85879898071289 -46.3791389465332 63.88997268676758 -46.45615768432617Q63.62591552734375 -46.443321228027344 63.23899841308594 -46.39748001098633Q63.207820892333984 -46.3938102722168 63.1766471862793 -46.39197540283203Q53.0929069519043 -45.68598556518555 46.52995300292969 -43.67620849609375Q46.478607177734375 -43.65970230102539 46.4254264831543 -43.64870071411133Q45.24052429199219 -43.39250564575195 44.292381286621094 -43.519100189208984Q42.507110595703125 -39.376705169677734 41.8355712890625 -38.43721008300781Q41.813568115234375 -38.404205322265625 41.787899017333984 -38.37303161621094Q40.913204193115234 -37.29662322998047 39.9101448059082 -37.29662322998047Q38.7567253112793 -37.29662322998047 38.12041473388672 -38.53256607055664Q37.79951095581055 -39.02217483520508 37.705989837646484 -39.608970642089844Q36.84596633911133 -42.35224914550781 39.28300857543945 -44.97999572753906Q40.83251953125 -46.93476486206055 40.72616195678711 -47.72510528564453Q40.705989837646484 -47.88280487060547 40.724327087402344 -48.04234313964844Q40.872859954833984 -49.329627990722656 41.747554779052734 -49.745887756347656Q42.7414436340332 -50.220829010009766 43.77200698852539 -49.318626403808594Q44.542884826660156 -48.67702865600586 44.91118621826172 -47.9519157409668Q46.45881652832031 -48.13166046142578 48.05562210083008 -48.359580993652344Q51.061279296875 -48.86810302734375 54.94120407104492 -49.39958953857422Q54.66272735595703 -49.55759048461914 54.396697998046875 -49.77339553833008Q53.01955795288086 -50.93415069580078 51.730438232421875 -51.882198333740234ZM64.0843505859375 -46.870582580566406Q64.0990219116211 -47.08513259887695 64.18521118164062 -47.28500747680664Q64.08985900878906 -47.06496047973633 64.0843505859375 -46.870582580566406ZM48.128971099853516 -19.97510528564453Q48.12530517578125 -19.97510528564453 48.121639251708984 -19.976940155029297Q48.017581939697266 -19.938339233398438 47.90888595581055 -19.918167114257812Q48.025943756103516 -19.939640045166016 48.128971099853516 -19.97510528564453Z"/>
   <path class="monochrome-1 hierarchical-1:primary" d="M29.32762908935547 -72.72999572753906H80.67237091064453C87.20458984375 -72.72999572753906 92.5 -67.43458557128906 92.5 -60.902366638183594V-9.557624816894531C92.5 -3.0254058837890625 87.20458984375 2.2700042724609375 80.67237091064453 2.2700042724609375H29.32762908935547C22.79541015625 2.2700042724609375 17.5 -3.0254058837890625 17.5 -9.557624816894531V-60.902366638183594C17.5 -67.43458557128906 22.79541015625 -72.72999572753906 29.32762908935547 -72.72999572753906ZM29.32762908935547 -67.41214752197266C25.732376098632812 -67.41214752197266 22.817848205566406 -64.49761962890625 22.817848205566406 -60.902366638183594V-9.557624816894531C22.817848205566406 -5.962371826171875 25.732376098632812 -3.0478439331054688 29.32762908935547 -3.0478439331054688H80.67237091064453C84.26762390136719 -3.0478439331054688 87.1821517944336 -5.962371826171875 87.1821517944336 -9.557624816894531V-60.902366638183594C87.1821517944336 -64.49761962890625 84.26762390136719 -67.41214752197266 80.67237091064453 -67.41214752197266ZM51.69926834106445 -36.78867721557617H53.44131851196289V-38.53072738647461Q53.44131851196289 -39.17620849609375 53.89792060852051 -39.632808685302734Q54.354522705078125 -40.08940887451172 54.99999809265137 -40.08940887451172Q55.64547348022461 -40.08940887451172 56.10207557678223 -39.632808685302734Q56.558677673339844 -39.17620849609375 56.558677673339844 -38.53072738647461V-36.55607223510742Q56.70486831665039 -36.4627799987793 56.8355712890625 -36.33207321166992Q57.29217529296875 -35.87547302246094 57.29217529296875 -35.229997634887695Q57.29217529296875 -34.58452224731445 56.8355712890625 -34.1279182434082Q56.63990783691406 -33.9322509765625 56.40956497192383 -33.82044219970703Q56.29774475097656 -33.590087890625 56.10207748413086 -33.39442443847656Q55.64547348022461 -32.93782043457031 54.99999809265137 -32.93782043457031Q54.354522705078125 -32.93782043457031 53.89792251586914 -33.39442443847656Q53.767215728759766 -33.52512741088867 53.67392349243164 -33.67131805419922H51.69926834106445Q51.05378723144531 -33.67131805419922 50.59718704223633 -34.127920150756836Q50.140586853027344 -34.58452224731445 50.140586853027344 -35.229997634887695Q50.140586853027344 -35.87547302246094 50.59718704223633 -36.332075119018555Q51.05378723144531 -36.78867721557617 51.69926834106445 -36.78867721557617ZM35.562347412109375 -36.78867721557617H39.59657669067383Q40.2420539855957 -36.78867721557617 40.69865608215332 -36.332075119018555Q41.15525817871094 -35.87547302246094 41.15525817871094 -35.229997634887695Q41.15525817871094 -34.58452224731445 40.69865608215332 -34.127920150756836Q40.2420539855957 -33.67131805419922 39.59657669067383 -33.67131805419922H35.562347412109375Q34.9168701171875 -33.67131805419922 34.460269927978516 -34.127920150756836Q34.00366973876953 -34.58452224731445 34.00366973876953 -35.229997634887695Q34.00366973876953 -35.87547302246094 34.460269927978516 -36.332075119018555Q34.9168701171875 -36.78867721557617 35.562347412109375 -36.78867721557617ZM43.63080596923828 -36.78867721557617H47.665035247802734Q48.31051254272461 -36.78867721557617 48.76711463928223 -36.332075119018555Q49.223716735839844 -35.87547302246094 49.223716735839844 -35.229997634887695Q49.223716735839844 -34.58452224731445 48.76711463928223 -34.127920150756836Q48.31051254272461 -33.67131805419922 47.665035247802734 -33.67131805419922H43.63080596923828Q42.985328674316406 -33.67131805419922 42.52872848510742 -34.127920150756836Q42.07212829589844 -34.58452224731445 42.07212829589844 -35.229997634887695Q42.07212829589844 -35.87547302246094 42.52872848510742 -36.332075119018555Q42.985328674316406 -36.78867721557617 43.63080596923828 -36.78867721557617ZM56.558677673339844 -62.736106872558594V-58.701881408691406Q56.558677673339844 -58.05640411376953 56.10207557678223 -57.599802017211914Q55.64547348022461 -57.1431999206543 54.99999809265137 -57.1431999206543Q54.354522705078125 -57.1431999206543 53.89792060852051 -57.599802017211914Q53.44131851196289 -58.05640411376953 53.44131851196289 -58.701881408691406V-62.736106872558594Q53.44131851196289 -63.38158416748047 53.89792060852051 -63.83818817138672Q54.354522705078125 -64.29479217529297 54.99999809265137 -64.29479217529297Q55.64547348022461 -64.29479217529297 56.10207557678223 -63.83818817138672Q56.558677673339844 -63.38158416748047 56.558677673339844 -62.736106872558594ZM56.558677673339844 -54.66764831542969V-50.633419036865234Q56.558677673339844 -49.987945556640625 56.10207557678223 -49.531341552734375Q55.64547348022461 -49.074737548828125 54.99999809265137 -49.074737548828125Q54.354522705078125 -49.074737548828125 53.89792060852051 -49.531341552734375Q53.44131851196289 -49.987945556640625 53.44131851196289 -50.633419036865234V-54.66764831542969Q53.44131851196289 -55.31312561035156 53.89792060852051 -55.76972579956055Q54.354522705078125 -56.22632598876953 54.99999809265137 -56.22632598876953Q55.64547348022461 -56.22632598876953 56.10207557678223 -55.76972579956055Q56.558677673339844 -55.31312561035156 56.558677673339844 -54.66764831542969ZM75.90464782714844 -36.78867721557617H79.93887329101562Q80.5843505859375 -36.78867721557617 81.04095458984375 -36.332075119018555Q81.49755859375 -35.87547302246094 81.49755859375 -35.229997634887695Q81.49755859375 -34.58452224731445 81.04095458984375 -34.127920150756836Q80.5843505859375 -33.67131805419922 79.93887329101562 -33.67131805419922H75.90464782714844Q75.25917053222656 -33.67131805419922 74.80256652832031 -34.127920150756836Q74.34596252441406 -34.58452224731445 74.34596252441406 -35.229997634887695Q74.34596252441406 -35.87547302246094 74.80256652832031 -36.332075119018555Q75.25917053222656 -36.78867721557617 75.90464782714844 -36.78867721557617ZM67.83618927001953 -36.78867721557617H71.87041473388672Q72.5158920288086 -36.78867721557617 72.97249221801758 -36.332075119018555Q73.42909240722656 -35.87547302246094 73.42909240722656 -35.229997634887695Q73.42909240722656 -34.58452224731445 72.97249221801758 -34.127920150756836Q72.5158920288086 -33.67131805419922 71.87041473388672 -33.67131805419922H67.83618927001953Q67.19071197509766 -33.67131805419922 66.7341079711914 -34.127920150756836Q66.27750396728516 -34.58452224731445 66.27750396728516 -35.229997634887695Q66.27750396728516 -35.87547302246094 66.7341079711914 -36.332075119018555Q67.19071197509766 -36.78867721557617 67.83618927001953 -36.78867721557617ZM56.558677673339844 -46.59918975830078V-42.56496047973633Q56.558677673339844 -41.91948318481445 56.10207557678223 -41.462881088256836Q55.64547348022461 -41.00627899169922 54.99999809265137 -41.00627899169922Q54.354522705078125 -41.00627899169922 53.89792060852051 -41.462881088256836Q53.44131851196289 -41.91948318481445 53.44131851196289 -42.56496047973633V-46.59918975830078Q53.44131851196289 -47.244667053222656 53.89792060852051 -47.70126724243164Q54.354522705078125 -48.157867431640625 54.99999809265137 -48.157867431640625Q55.64547348022461 -48.157867431640625 56.10207557678223 -47.70126724243164Q56.558677673339844 -47.244667053222656 56.558677673339844 -46.59918975830078ZM56.558677673339844 -22.393810272216797V-18.359580993652344Q56.558677673339844 -17.714107513427734 56.10207557678223 -17.257505416870117Q55.64547348022461 -16.8009033203125 54.99999809265137 -16.8009033203125Q54.354522705078125 -16.8009033203125 53.89792060852051 -17.257505416870117Q53.44131851196289 -17.714107513427734 53.44131851196289 -18.359580993652344V-22.393810272216797Q53.44131851196289 -23.039287567138672 53.89792060852051 -23.49588966369629Q54.354522705078125 -23.952491760253906 54.99999809265137 -23.952491760253906Q55.64547348022461 -23.952491760253906 56.10207557678223 -23.49588966369629Q56.558677673339844 -23.039287567138672 56.558677673339844 -22.393810272216797ZM56.558677673339844 -30.462268829345703V-26.428043365478516Q56.558677673339844 -25.782562255859375 56.10207557678223 -25.32596206665039Q55.64547348022461 -24.869361877441406 54.99999809265137 -24.869361877441406Q54.354522705078125 -24.869361877441406 53.89792060852051 -25.32596206665039Q53.44131851196289 -25.782562255859375 53.44131851196289 -26.428043365478516V-30.462268829345703Q53.44131851196289 -31.107749938964844 53.89792060852051 -31.564350128173828Q54.354522705078125 -32.02095031738281 54.99999809265137 -32.02095031738281Q55.64547348022461 -32.02095031738281 56.10207557678223 -31.564350128173828Q56.558677673339844 -31.107749938964844 56.558677673339844 -30.462268829345703ZM56.558677673339844 -14.325347900390625V-10.291122436523438Q56.558677673339844 -9.645645141601562 56.10207557678223 -9.189041137695312Q55.64547348022461 -8.732437133789062 54.99999809265137 -8.732437133789062Q54.354522705078125 -8.732437133789062 53.89792060852051 -9.189041137695312Q53.44131851196289 -9.645645141601562 53.44131851196289 -10.291122436523438V-14.325347900390625Q53.44131851196289 -14.9708251953125 53.89792060852051 -15.42742919921875Q54.354522705078125 -15.884033203125 54.99999809265137 -15.884033203125Q55.64547348022461 -15.884033203125 56.10207557678223 -15.42742919921875Q56.558677673339844 -14.9708251953125 56.558677673339844 -14.325347900390625ZM59.76772689819336 -36.78867721557617H63.80195236206055Q64.44743347167969 -36.78867721557617 64.90403366088867 -36.332075119018555Q65.36063385009766 -35.87547302246094 65.36063385009766 -35.229997634887695Q65.36063385009766 -34.58452224731445 64.90403366088867 -34.127920150756836Q64.44743347167969 -33.67131805419922 63.80195236206055 -33.67131805419922H59.76772689819336Q59.12224578857422 -33.67131805419922 58.665645599365234 -34.127920150756836Q58.20904541015625 -34.58452224731445 58.20904541015625 -35.229997634887695Q58.20904541015625 -35.87547302246094 58.665645599365234 -36.332075119018555Q59.12224578857422 -36.78867721557617 59.76772689819336 -36.78867721557617ZM27.49388885498047 -36.78867721557617H31.528118133544922Q32.1735954284668 -36.78867721557617 32.63019561767578 -36.332075119018555Q33.086795806884766 -35.87547302246094 33.086795806884766 -35.229997634887695Q33.086795806884766 -34.58452224731445 32.63019561767578 -34.127920150756836Q32.1735954284668 -33.67131805419922 31.528118133544922 -33.67131805419922H27.49388885498047Q26.848411560058594 -33.67131805419922 26.391809463500977 -34.127920150756836Q25.93520736694336 -34.58452224731445 25.93520736694336 -35.229997634887695Q25.93520736694336 -35.87547302246094 26.391809463500977 -36.332075119018555Q26.848411560058594 -36.78867721557617 27.49388885498047 -36.78867721557617Z"/>
  </g>
  <g id="Regular-S" transform="matrix(1 0 0 1 1394.4 696)">
   <path class="monochrome-0 hierarchical-0:secondary" d="M51.730438232421875 -51.882198333740234Q50.015892028808594 -52.96227264404297 49.59046173095703 -53.87914276123047Q49.52994918823242 -54.00933837890625 49.5006103515625 -54.14870071411133Q49.21821594238281 -55.45982360839844 49.98655319213867 -56.22266387939453Q50.19926452636719 -56.43354034423828 50.481658935546875 -56.52889633178711Q50.98044204711914 -56.695770263671875 52.07334899902344 -56.63892364501953Q52.11735916137695 -56.6370849609375 52.16136932373047 -56.63158416748047Q57.31051254272461 -56.00627899169922 58.27505874633789 -53.818626403808594Q58.28422927856445 -53.79662322998047 58.29339599609375 -53.77278518676758Q59.01955795288086 -51.93170928955078 58.75366973876953 -50.741607666015625L58.74633026123047 -50.71227264404297Q58.621612548828125 -50.2116813659668 58.39693832397461 -49.855491638183594Q60.571590423583984 -50.132347106933594 62.97494125366211 -50.41520690917969Q67.0990219116211 -51.222049713134766 68.62469482421875 -50.092464447021484Q72.38936614990234 -47.39503479003906 72.49388885498047 -46.37547302246094Q72.501220703125 -46.3094596862793 72.501220703125 -46.243446350097656Q72.501220703125 -44.93048858642578 69.98716735839844 -44.048458099365234Q69.96332550048828 -44.04112243652344 69.93765258789062 -44.03378677368164Q68.09107971191406 -43.468994140625 65.79156494140625 -41.798458099365234Q64.36858367919922 -40.7935676574707 63.34718704223633 -41.37302780151367Q63.288509368896484 -41.406036376953125 63.23349380493164 -41.44454574584961Q63.119014739990234 -41.52641677856445 63.022483825683594 -41.61425018310547Q63.242530822753906 -41.31315231323242 63.32884979248047 -41.04112243652344Q63.91748046875 -39.15970230102539 61.920536041259766 -38.42620849609375Q61.83985137939453 -38.39686584472656 61.75733184814453 -38.3785285949707Q60.9194221496582 -38.19269561767578 56.4903450012207 -34.807533264160156Q56.796958923339844 -34.252769470214844 57.074073791503906 -33.53739547729492Q58.920143127441406 -33.773155212402344 61.24021911621094 -33.98122024536133Q64.28423309326172 -34.41764831542969 67.28606414794922 -34.98060989379883Q68.82640838623047 -35.453712463378906 69.82579040527344 -34.993446350097656Q71.9034194946289 -34.052734375 73.3319091796875 -32.67559814453125Q74.5 -31.50749969482422 73.7316665649414 -30.086353302001953Q73.663818359375 -29.959823608398438 73.5702896118164 -29.851634979248047Q72.81112670898438 -28.980606079101562 71.16626739501953 -29.19515609741211Q64.34540557861328 -29.792335510253906 57.93121337890625 -29.19226837158203Q58.619361877441406 -22.149917602539062 57.53606033325195 -18.121192932128906Q57.526893615722656 -18.084522247314453 57.51405715942383 -18.047847747802734Q56.54950714111328 -15.154197692871094 55.02933883666992 -14.332687377929688Q55.01100158691406 -14.321685791015625 54.9926643371582 -14.312515258789062Q53.33863067626953 -13.485496520996094 51.878971099853516 -15.024002075195312Q51.8349609375 -15.071685791015625 51.79645538330078 -15.121192932128906Q50.18642807006836 -17.196990966796875 47.31112289428711 -19.557010650634766Q46.819679260253906 -19.956771850585938 46.60696792602539 -20.253833770751953Q46.2585563659668 -20.73794174194336 46.3264045715332 -21.280731201171875Q46.432762145996094 -22.155426025390625 47.23227310180664 -22.393810272216797Q47.94742965698242 -22.709217071533203 48.80929183959961 -22.45065689086914Q51.02994918823242 -21.770339965820312 52.223716735839844 -21.476940155029297Q52.46393585205078 -21.418262481689453 52.65647888183594 -21.376083374023438Q53.5407600402832 -23.433895111083984 53.085689544677734 -28.770801544189453Q48.844505310058594 -28.368675231933594 45.418701171875 -27.56863021850586Q45.38569641113281 -27.561294555664062 45.35268783569336 -27.55579376220703Q42.360023498535156 -27.022174835205078 41.567848205566406 -26.84062957763672Q40.38325119018555 -26.323516845703125 39.46821594238281 -26.688430786132812Q37.97005081176758 -27.288066864013672 37.10268783569336 -27.939044952392578Q35.74571990966797 -28.993446350097656 35.85207748413086 -30.22388458251953Q35.85574722290039 -30.282562255859375 35.86674880981445 -30.33940887451172Q36.15464401245117 -31.943931579589844 37.836185455322266 -31.84490966796875Q42.270172119140625 -31.89075469970703 45.16197967529297 -32.32168197631836Q45.17848205566406 -32.32535171508789 45.19681930541992 -32.32718276977539Q49.97903060913086 -32.90166091918945 52.27452087402344 -33.07975769042969Q51.981597900390625 -33.99359893798828 51.61124801635742 -34.78256607055664Q50.9272575378418 -36.15787124633789 51.651588439941406 -36.97571563720703Q52.60398483276367 -38.183406829833984 53.94968795776367 -37.33153533935547Q54.73142623901367 -38.49488830566406 55.47127151489258 -39.553958892822266Q51.499385833740234 -38.116302490234375 50.461490631103516 -37.775230407714844Q48.402198791503906 -36.68231964111328 46.458431243896484 -37.68537521362305Q46.42176055908203 -37.70371627807617 46.38508605957031 -37.7257194519043Q45.19131851196289 -38.44454574584961 44.712711334228516 -39.33391189575195Q44.67787170410156 -39.39809036254883 44.650367736816406 -39.465938568115234Q44.186431884765625 -40.6266975402832 44.85940933227539 -41.42803955078125Q45.444374084472656 -42.12486267089844 46.599632263183594 -42.07535171508789Q48.9926643371582 -41.99100112915039 49.918704986572266 -42.25139236450195Q54.028114318847656 -43.39931106567383 56.72188186645508 -44.37119674682617Q58.276893615722656 -44.91215133666992 59.61735916137695 -44.20799255371094Q59.639366149902344 -44.19515609741211 59.66136932373047 -44.18415069580078Q61.79964065551758 -42.95182800292969 62.709877014160156 -41.9864616394043Q62.24739456176758 -42.74287033081055 62.817237854003906 -43.84307861328125Q63.48838424682617 -45.44576644897461 63.8257942199707 -46.29112243652344Q63.85879898071289 -46.3791389465332 63.88997268676758 -46.45615768432617Q63.62591552734375 -46.443321228027344 63.23899841308594 -46.39748001098633Q63.207820892333984 -46.3938102722168 63.1766471862793 -46.39197540283203Q53.0929069519043 -45.68598556518555 46.52995300292969 -43.67620849609375Q46.478607177734375 -43.65970230102539 46.4254264831543 -43.64870071411133Q45.24052429199219 -43.39250564575195 44.292381286621094 -43.519100189208984Q42.507110595703125 -39.376705169677734 41.8355712890625 -38.43721008300781Q41.813568115234375 -38.404205322265625 41.787899017333984 -38.37303161621094Q40.913204193115234 -37.29662322998047 39.9101448059082 -37.29662322998047Q38.7567253112793 -37.29662322998047 38.12041473388672 -38.53256607055664Q37.79951095581055 -39.02217483520508 37.705989837646484 -39.608970642089844Q36.84596633911133 -42.35224914550781 39.28300857543945 -44.97999572753906Q40.83251953125 -46.93476486206055 40.72616195678711 -47.72510528564453Q40.705989837646484 -47.88280487060547 40.724327087402344 -48.04234313964844Q40.872859954833984 -49.329627990722656 41.747554779052734 -49.745887756347656Q42.7414436340332 -50.220829010009766 43.77200698852539 -49.318626403808594Q44.542884826660156 -48.67702865600586 44.91118621826172 -47.9519157409668Q46.45881652832031 -48.13166046142578 48.05562210083008 -48.359580993652344Q51.061279296875 -48.86810302734375 54.94120407104492 -49.39958953857422Q54.66272735595703 -49.55759048461914 54.396697998046875 -49.77339553833008Q53.01955795288086 -50.93415069580078 51.730438232421875 -51.882198333740234ZM64.0843505859375 -46.870582580566406Q64.0990219116211 -47.08513259887695 64.18521118164062 -47.28500747680664Q64.08985900878906 -47.06496047973633 64.0843505859375 -46.870582580566406ZM48.128971099853516 -19.97510528564453Q48.12530517578125 -19.97510528564453 48.121639251708984 -19.976940155029297Q48.017581939697266 -19.938339233398438 47.90888595581055 -19.918167114257812Q48.025943756103516 -19.939640045166016 48.128971099853516 -19.97510528564453Z"/>
   <path class="monochrome-1 hierarchical-1:primary" d="M29.32762908935547 -72.72999572753906H80.67237091064453C87.20458984375 -72.72999572753906 92.5 -67.43458557128906 92.5 -60.902366638183594V-9.557624816894531C92.5 -3.0254058837890625 87.20458984375 2.2700042724609375 80.67237091064453 2.2700042724609375H29.32762908935547C22.79541015625 2.2700042724609375 17.5 -3.0254058837890625 17.5 -9.557624816894531V-60.902366638183594C17.5 -67.43458557128906 22.79541015625 -72.72999572753906 29.32762908935547 -72.72999572753906ZM29.32762908935547 -67.41214752197266C25.732376098632812 -67.41214752197266 22.817848205566406 -64.49761962890625 22.817848205566406 -60.902366638183594V-9.557624816894531C22.817848205566406 -5.962371826171875 25.732376098632812 -3.0478439331054688 29.32762908935547 -3.0478439331054688H80.67237091064453C84.26762390136719 -3.0478439331054688 87.1821517944336 -5.962371826171875 87.1821517944336 -9.557624816894531V-60.902366638183594C87.1821517944336 -64.49761962890625 84.26762390136719 -67.41214752197266 80.67237091064453 -67.41214752197266ZM51.69926834106445 -36.78867721557617H53.44131851196289V-38.53072738647461Q53.44131851196289 -39.17620849609375 53.89792060852051 -39.632808685302734Q54.354522705078125 -40.08940887451172 54.99999809265137 -40.08940887451172Q55.64547348022461 -40.08940887451172 56.10207557678223 -39.632808685302734Q56.558677673339844 -39.17620849609375 56.558677673339844 -38.53072738647461V-36.55607223510742Q56.70486831665039 -36.4627799987793 56.8355712890625 -36.33207321166992Q57.29217529296875 -35.87547302246094 57.29217529296875 -35.229997634887695Q57.29217529296875 -34.58452224731445 56.8355712890625 -34.1279182434082Q56.63990783691406 -33.9322509765625 56.40956497192383 -33.82044219970703Q56.29774475097656 -33.590087890625 56.10207748413086 -33.39442443847656Q55.64547348022461 -32.93782043457031 54.99999809265137 -32.93782043457031Q54.354522705078125 -32.93782043457031 53.89792251586914 -33.39442443847656Q53.767215728759766 -33.52512741088867 53.67392349243164 -33.67131805419922H51.69926834106445Q51.05378723144531 -33.67131805419922 50.59718704223633 -34.127920150756836Q50.140586853027344 -34.58452224731445 50.140586853027344 -35.229997634887695Q50.140586853027344 -35.87547302246094 50.59718704223633 -36.332075119018555Q51.05378723144531 -36.78867721557617 51.69926834106445 -36.78867721557617ZM35.562347412109375 -36.78867721557617H39.59657669067383Q40.2420539855957 -36.78867721557617 40.69865608215332 -36.332075119018555Q41.15525817871094 -35.87547302246094 41.15525817871094 -35.229997634887695Q41.15525817871094 -34.58452224731445 40.69865608215332 -34.127920150756836Q40.2420539855957 -33.67131805419922 39.59657669067383 -33.67131805419922H35.562347412109375Q34.9168701171875 -33.67131805419922 34.460269927978516 -34.127920150756836Q34.00366973876953 -34.58452224731445 34.00366973876953 -35.229997634887695Q34.00366973876953 -35.87547302246094 34.460269927978516 -36.332075119018555Q34.9168701171875 -36.78867721557617 35.562347412109375 -36.78867721557617ZM43.63080596923828 -36.78867721557617H47.665035247802734Q48.31051254272461 -36.78867721557617 48.76711463928223 -36.332075119018555Q49.223716735839844 -35.87547302246094 49.223716735839844 -35.229997634887695Q49.223716735839844 -34.58452224731445 48.76711463928223 -34.127920150756836Q48.31051254272461 -33.67131805419922 47.665035247802734 -33.67131805419922H43.63080596923828Q42.985328674316406 -33.67131805419922 42.52872848510742 -34.127920150756836Q42.07212829589844 -34.58452224731445 42.07212829589844 -35.229997634887695Q42.07212829589844 -35.87547302246094 42.52872848510742 -36.332075119018555Q42.985328674316406 -36.78867721557617 43.63080596923828 -36.78867721557617ZM56.558677673339844 -62.736106872558594V-58.701881408691406Q56.558677673339844 -58.05640411376953 56.10207557678223 -57.599802017211914Q55.64547348022461 -57.1431999206543 54.99999809265137 -57.1431999206543Q54.354522705078125 -57.1431999206543 53.89792060852051 -57.599802017211914Q53.44131851196289 -58.05640411376953 53.44131851196289 -58.701881408691406V-62.736106872558594Q53.44131851196289 -63.38158416748047 53.89792060852051 -63.83818817138672Q54.354522705078125 -64.29479217529297 54.99999809265137 -64.29479217529297Q55.64547348022461 -64.29479217529297 56.10207557678223 -63.83818817138672Q56.558677673339844 -63.38158416748047 56.558677673339844 -62.736106872558594ZM56.558677673339844 -54.66764831542969V-50.633419036865234Q56.558677673339844 -49.987945556640625 56.10207557678223 -49.531341552734375Q55.64547348022461 -49.074737548828125 54.99999809265137 -49.074737548828125Q54.354522705078125 -49.074737548828125 53.89792060852051 -49.531341552734375Q53.44131851196289 -49.987945556640625 53.44131851196289 -50.633419036865234V-54.66764831542969Q53.44131851196289 -55.31312561035156 53.89792060852051 -55.76972579956055Q54.354522705078125 -56.22632598876953 54.99999809265137 -56.22632598876953Q55.64547348022461 -56.22632598876953 56.10207557678223 -55.76972579956055Q56.558677673339844 -55.31312561035156 56.558677673339844 -54.66764831542969ZM75.90464782714844 -36.78867721557617H79.93887329101562Q80.5843505859375 -36.78867721557617 81.04095458984375 -36.332075119018555Q81.49755859375 -35.87547302246094 81.49755859375 -35.229997634887695Q81.49755859375 -34.58452224731445 81.04095458984375 -34.127920150756836Q80.5843505859375 -33.67131805419922 79.93887329101562 -33.67131805419922H75.90464782714844Q75.25917053222656 -33.67131805419922 74.80256652832031 -34.127920150756836Q74.34596252441406 -34.58452224731445 74.34596252441406 -35.229997634887695Q74.34596252441406 -35.87547302246094 74.80256652832031 -36.332075119018555Q75.25917053222656 -36.78867721557617 75.90464782714844 -36.78867721557617ZM67.83618927001953 -36.78867721557617H71.87041473388672Q72.5158920288086 -36.78867721557617 72.97249221801758 -36.332075119018555Q73.42909240722656 -35.87547302246094 73.42909240722656 -35.229997634887695Q73.42909240722656 -34.58452224731445 72.97249221801758 -34.127920150756836Q72.5158920288086 -33.67131805419922 71.87041473388672 -33.67131805419922H67.83618927001953Q67.19071197509766 -33.67131805419922 66.7341079711914 -34.127920150756836Q66.27750396728516 -34.58452224731445 66.27750396728516 -35.229997634887695Q66.27750396728516 -35.87547302246094 66.7341079711914 -36.332075119018555Q67.19071197509766 -36.78867721557617 67.83618927001953 -36.78867721557617ZM56.558677673339844 -46.59918975830078V-42.56496047973633Q56.558677673339844 -41.91948318481445 56.10207557678223 -41.462881088256836Q55.64547348022461 -41.00627899169922 54.99999809265137 -41.00627899169922Q54.354522705078125 -41.00627899169922 53.89792060852051 -41.462881088256836Q53.44131851196289 -41.91948318481445 53.44131851196289 -42.56496047973633V-46.59918975830078Q53.44131851196289 -47.244667053222656 53.89792060852051 -47.70126724243164Q54.354522705078125 -48.157867431640625 54.99999809265137 -48.157867431640625Q55.64547348022461 -48.157867431640625 56.10207557678223 -47.70126724243164Q56.558677673339844 -47.244667053222656 56.558677673339844 -46.59918975830078ZM56.558677673339844 -22.393810272216797V-18.359580993652344Q56.558677673339844 -17.714107513427734 56.10207557678223 -17.257505416870117Q55.64547348022461 -16.8009033203125 54.99999809265137 -16.8009033203125Q54.354522705078125 -16.8009033203125 53.89792060852051 -17.257505416870117Q53.44131851196289 -17.714107513427734 53.44131851196289 -18.359580993652344V-22.393810272216797Q53.44131851196289 -23.039287567138672 53.89792060852051 -23.49588966369629Q54.354522705078125 -23.952491760253906 54.99999809265137 -23.952491760253906Q55.64547348022461 -23.952491760253906 56.10207557678223 -23.49588966369629Q56.558677673339844 -23.039287567138672 56.558677673339844 -22.393810272216797ZM56.558677673339844 -30.462268829345703V-26.428043365478516Q56.558677673339844 -25.782562255859375 56.10207557678223 -25.32596206665039Q55.64547348022461 -24.869361877441406 54.99999809265137 -24.869361877441406Q54.354522705078125 -24.869361877441406 53.89792060852051 -25.32596206665039Q53.44131851196289 -25.782562255859375 53.44131851196289 -26.428043365478516V-30.462268829345703Q53.44131851196289 -31.107749938964844 53.89792060852051 -31.564350128173828Q54.354522705078125 -32.02095031738281 54.99999809265137 -32.02095031738281Q55.64547348022461 -32.02095031738281 56.10207557678223 -31.564350128173828Q56.558677673339844 -31.107749938964844 56.558677673339844 -30.462268829345703ZM56.558677673339844 -14.325347900390625V-10.291122436523438Q56.558677673339844 -9.645645141601562 56.10207557678223 -9.189041137695312Q55.64547348022461 -8.732437133789062 54.99999809265137 -8.732437133789062Q54.354522705078125 -8.732437133789062 53.89792060852051 -9.189041137695312Q53.44131851196289 -9.645645141601562 53.44131851196289 -10.291122436523438V-14.325347900390625Q53.44131851196289 -14.9708251953125 53.89792060852051 -15.42742919921875Q54.354522705078125 -15.884033203125 54.99999809265137 -15.884033203125Q55.64547348022461 -15.884033203125 56.10207557678223 -15.42742919921875Q56.558677673339844 -14.9708251953125 56.558677673339844 -14.325347900390625ZM59.76772689819336 -36.78867721557617H63.80195236206055Q64.44743347167969 -36.78867721557617 64.90403366088867 -36.332075119018555Q65.36063385009766 -35.87547302246094 65.36063385009766 -35.229997634887695Q65.36063385009766 -34.58452224731445 64.90403366088867 -34.127920150756836Q64.44743347167969 -33.67131805419922 63.80195236206055 -33.67131805419922H59.76772689819336Q59.12224578857422 -33.67131805419922 58.665645599365234 -34.127920150756836Q58.20904541015625 -34.58452224731445 58.20904541015625 -35.229997634887695Q58.20904541015625 -35.87547302246094 58.665645599365234 -36.332075119018555Q59.12224578857422 -36.78867721557617 59.76772689819336 -36.78867721557617ZM27.49388885498047 -36.78867721557617H31.528118133544922Q32.1735954284668 -36.78867721557617 32.63019561767578 -36.332075119018555Q33.086795806884766 -35.87547302246094 33.086795806884766 -35.229997634887695Q33.086795806884766 -34.58452224731445 32.63019561767578 -34.127920150756836Q32.1735954284668 -33.67131805419922 31.528118133544922 -33.67131805419922H27.49388885498047Q26.848411560058594 -33.67131805419922 26.391809463500977 -34.127920150756836Q25.93520736694336 -34.58452224731445 25.93520736694336 -35.229997634887695Q25.93520736694336 -35.87547302246094 26.391809463500977 -36.332075119018555Q26.848411560058594 -36.78867721557617 27.49388885498047 -36.78867721557617Z"/>
  </g>
  <g id="Black-S" transform="matrix(1 0 0 1 2873.15 696)">
   <path class="monochrome-0 hierarchical-0:secondary" d="M51.730438232421875 -51.882198333740234Q50.015892028808594 -52.96227264404297 49.59046173095703 -53.87914276123047Q49.52994918823242 -54.00933837890625 49.5006103515625 -54.14870071411133Q49.21821594238281 -55.45982360839844 49.98655319213867 -56.22266387939453Q50.19926452636719 -56.43354034423828 50.481658935546875 -56.52889633178711Q50.98044204711914 -56.695770263671875 52.07334899902344 -56.63892364501953Q52.11735916137695 -56.6370849609375 52.16136932373047 -56.63158416748047Q57.31051254272461 -56.00627899169922 58.27505874633789 -53.818626403808594Q58.28422927856445 -53.79662322998047 58.29339599609375 -53.77278518676758Q59.01955795288086 -51.93170928955078 58.75366973876953 -50.741607666015625L58.74633026123047 -50.71227264404297Q58.621612548828125 -50.2116813659668 58.39693832397461 -49.855491638183594Q60.571590423583984 -50.132347106933594 62.97494125366211 -50.41520690917969Q67.0990219116211 -51.222049713134766 68.62469482421875 -50.092464447021484Q72.38936614990234 -47.39503479003906 72.49388885498047 -46.37547302246094Q72.501220703125 -46.3094596862793 72.501220703125 -46.243446350097656Q72.501220703125 -44.93048858642578 69.98716735839844 -44.048458099365234Q69.96332550048828 -44.04112243652344 69.93765258789062 -44.03378677368164Q68.09107971191406 -43.468994140625 65.79156494140625 -41.798458099365234Q64.36858367919922 -40.7935676574707 63.34718704223633 -41.37302780151367Q63.288509368896484 -41.406036376953125 63.23349380493164 -41.44454574584961Q63.119014739990234 -41.52641677856445 63.022483825683594 -41.61425018310547Q63.242530822753906 -41.31315231323242 63.32884979248047 -41.04112243652344Q63.91748046875 -39.15970230102539 61.920536041259766 -38.42620849609375Q61.83985137939453 -38.39686584472656 61.75733184814453 -38.3785285949707Q60.9194221496582 -38.19269561767578 56.4903450012207 -34.807533264160156Q56.796958923339844 -34.252769470214844 57.074073791503906 -33.53739547729492Q58.920143127441406 -33.773155212402344 61.24021911621094 -33.98122024536133Q64.28423309326172 -34.41764831542969 67.28606414794922 -34.98060989379883Q68.82640838623047 -35.453712463378906 69.82579040527344 -34.993446350097656Q71.9034194946289 -34.052734375 73.3319091796875 -32.67559814453125Q74.5 -31.50749969482422 73.7316665649414 -30.086353302001953Q73.663818359375 -29.959823608398438 73.5702896118164 -29.851634979248047Q72.81112670898438 -28.980606079101562 71.16626739501953 -29.19515609741211Q64.34540557861328 -29.792335510253906 57.93121337890625 -29.19226837158203Q58.619361877441406 -22.149917602539062 57.53606033325195 -18.121192932128906Q57.526893615722656 -18.084522247314453 57.51405715942383 -18.047847747802734Q56.54950714111328 -15.154197692871094 55.02933883666992 -14.332687377929688Q55.01100158691406 -14.321685791015625 54.9926643371582 -14.312515258789062Q53.33863067626953 -13.485496520996094 51.878971099853516 -15.024002075195312Q51.8349609375 -15.071685791015625 51.79645538330078 -15.121192932128906Q50.18642807006836 -17.196990966796875 47.31112289428711 -19.557010650634766Q46.819679260253906 -19.956771850585938 46.60696792602539 -20.253833770751953Q46.2585563659668 -20.73794174194336 46.3264045715332 -21.280731201171875Q46.432762145996094 -22.155426025390625 47.23227310180664 -22.393810272216797Q47.94742965698242 -22.709217071533203 48.80929183959961 -22.45065689086914Q51.02994918823242 -21.770339965820312 52.223716735839844 -21.476940155029297Q52.46393585205078 -21.418262481689453 52.65647888183594 -21.376083374023438Q53.5407600402832 -23.433895111083984 53.085689544677734 -28.770801544189453Q48.844505310058594 -28.368675231933594 45.418701171875 -27.56863021850586Q45.38569641113281 -27.561294555664062 45.35268783569336 -27.55579376220703Q42.360023498535156 -27.022174835205078 41.567848205566406 -26.84062957763672Q40.38325119018555 -26.323516845703125 39.46821594238281 -26.688430786132812Q37.97005081176758 -27.288066864013672 37.10268783569336 -27.939044952392578Q35.74571990966797 -28.993446350097656 35.85207748413086 -30.22388458251953Q35.85574722290039 -30.282562255859375 35.86674880981445 -30.33940887451172Q36.15464401245117 -31.943931579589844 37.836185455322266 -31.84490966796875Q42.270172119140625 -31.89075469970703 45.16197967529297 -32.32168197631836Q45.17848205566406 -32.32535171508789 45.19681930541992 -32.32718276977539Q49.97903060913086 -32.90166091918945 52.27452087402344 -33.07975769042969Q51.981597900390625 -33.99359893798828 51.61124801635742 -34.78256607055664Q50.9272575378418 -36.15787124633789 51.651588439941406 -36.97571563720703Q52.60398483276367 -38.183406829833984 53.94968795776367 -37.33153533935547Q54.73142623901367 -38.49488830566406 55.47127151489258 -39.553958892822266Q51.499385833740234 -38.116302490234375 50.461490631103516 -37.775230407714844Q48.402198791503906 -36.68231964111328 46.458431243896484 -37.68537521362305Q46.42176055908203 -37.70371627807617 46.38508605957031 -37.7257194519043Q45.19131851196289 -38.44454574584961 44.712711334228516 -39.33391189575195Q44.67787170410156 -39.39809036254883 44.650367736816406 -39.465938568115234Q44.186431884765625 -40.6266975402832 44.85940933227539 -41.42803955078125Q45.444374084472656 -42.12486267089844 46.599632263183594 -42.07535171508789Q48.9926643371582 -41.99100112915039 49.918704986572266 -42.25139236450195Q54.028114318847656 -43.39931106567383 56.72188186645508 -44.37119674682617Q58.276893615722656 -44.91215133666992 59.61735916137695 -44.20799255371094Q59.639366149902344 -44.19515609741211 59.66136932373047 -44.18415069580078Q61.79964065551758 -42.95182800292969 62.709877014160156 -41.9864616394043Q62.24739456176758 -42.74287033081055 62.817237854003906 -43.84307861328125Q63.48838424682617 -45.44576644897461 63.8257942199707 -46.29112243652344Q63.85879898071289 -46.3791389465332 63.88997268676758 -46.45615768432617Q63.62591552734375 -46.443321228027344 63.23899841308594 -46.39748001098633Q63.207820892333984 -46.3938102722168 63.1766471862793 -46.39197540283203Q53.0929069519043 -45.68598556518555 46.52995300292969 -43.67620849609375Q46.478607177734375 -43.65970230102539 46.4254264831543 -43.64870071411133Q45.24052429199219 -43.39250564575195 44.292381286621094 -43.519100189208984Q42.507110595703125 -39.376705169677734 41.8355712890625 -38.43721008300781Q41.813568115234375 -38.404205322265625 41.787899017333984 -38.37303161621094Q40.913204193115234 -37.29662322998047 39.9101448059082 -37.29662322998047Q38.7567253112793 -37.29662322998047 38.12041473388672 -38.53256607055664Q37.79951095581055 -39.02217483520508 37.705989837646484 -39.608970642089844Q36.84596633911133 -42.35224914550781 39.28300857543945 -44.97999572753906Q40.83251953125 -46.93476486206055 40.72616195678711 -47.72510528564453Q40.705989837646484 -47.88280487060547 40.724327087402344 -48.04234313964844Q40.872859954833984 -49.329627990722656 41.747554779052734 -49.745887756347656Q42.7414436340332 -50.220829010009766 43.77200698852539 -49.318626403808594Q44.542884826660156 -48.67702865600586 44.91118621826172 -47.9519157409668Q46.45881652832031 -48.13166046142578 48.05562210083008 -48.359580993652344Q51.061279296875 -48.86810302734375 54.94120407104492 -49.39958953857422Q54.66272735595703 -49.55759048461914 54.396697998046875 -49.77339553833008Q53.01955795288086 -50.93415069580078 51.730438232421875 -51.882198333740234ZM64.0843505859375 -46.870582580566406Q64.0990219116211 -47.08513259887695 64.18521118164062 -47.28500747680664Q64.08985900878906 -47.06496047973633 64.0843505859375 -46.870582580566406ZM48.128971099853516 -19.97510528564453Q48.12530517578125 -19.97510528564453 48.121639251708984 -19.976940155029297Q48.017581939697266 -19.938339233398438 47.90888595581055 -19.918167114257812Q48.025943756103516 -19.939640045166016 48.128971099853516 -19.97510528564453Z"/>
   <path class="monochrome-1 hierarchical-1:primary" d="M29.32762908935547 -72.72999572753906H80.67237091064453C87.20458984375 -72.72999572753906 92.5 -67.43458557128906 92.5 -60.902366638183594V-9.557624816894531C92.5 -3.0254058837890625 87.20458984375 2.2700042724609375 80.67237091064453 2.2700042724609375H29.32762908935547C22.79541015625 2.2700042724609375 17.5 -3.0254058837890625 17.5 -9.557624816894531V-60.902366638183594C17.5 -67.43458557128906 22.79541015625 -72.72999572753906 29.32762908935547 -72.72999572753906ZM29.32762908935547 -67.41214752197266C25.732376098632812 -67.41214752197266 22.817848205566406 -64.49761962890625 22.817848205566406 -60.902366638183594V-9.557624816894531C22.817848205566406 -5.962371826171875 25.732376098632812 -3.0478439331054688 29.32762908935547 -3.0478439331054688H80.67237091064453C84.26762390136719 -3.0478439331054688 87.1821517944336 -5.962371826171875 87.1821517944336 -9.557624816894531V-60.902366638183594C87.1821517944336 -64.49761962890625 84.26762390136719 -67.41214752197266 80.67237091064453 -67.41214752197266ZM51.69926834106445 -36.78867721557617H53.44131851196289V-38.53072738647461Q53.44131851196289 -39.17620849609375 53.89792060852051 -39.632808685302734Q54.354522705078125 -40.08940887451172 54.99999809265137 -40.08940887451172Q55.64547348022461 -40.08940887451172 56.10207557678223 -39.632808685302734Q56.558677673339844 -39.17620849609375 56.558677673339844 -38.53072738647461V-36.55607223510742Q56.70486831665039 -36.4627799987793 56.8355712890625 -36.33207321166992Q57.29217529296875 -35.87547302246094 57.29217529296875 -35.229997634887695Q57.29217529296875 -34.58452224731445 56.8355712890625 -34.1279182434082Q56.63990783691406 -33.9322509765625 56.40956497192383 -33.82044219970703Q56.29774475097656 -33.590087890625 56.10207748413086 -33.39442443847656Q55.64547348022461 -32.93782043457031 54.99999809265137 -32.93782043457031Q54.354522705078125 -32.93782043457031 53.89792251586914 -33.39442443847656Q53.767215728759766 -33.52512741088867 53.67392349243164 -33.67131805419922H51.69926834106445Q51.05378723144531 -33.67131805419922 50.59718704223633 -34.127920150756836Q50.140586853027344 -34.58452224731445 50.140586853027344 -35.229997634887695Q50.140586853027344 -35.87547302246094 50.59718704223633 -36.332075119018555Q51.05378723144531 -36.78867721557617 51.69926834106445 -36.78867721557617ZM35.562347412109375 -36.78867721557617H39.59657669067383Q40.2420539855957 -36.78867721557617 40.69865608215332 -36.332075119018555Q41.15525817871094 -35.87547302246094 41.15525817871094 -35.229997634887695Q41.15525817871094 -34.58452224731445 40.69865608215332 -34.127920150756836Q40.2420539855957 -33.67131805419922 39.59657669067383 -33.67131805419922H35.562347412109375Q34.9168701171875 -33.67131805419922 34.460269927978516 -34.127920150756836Q34.00366973876953 -34.58452224731445 34.00366973876953 -35.229997634887695Q34.00366973876953 -35.87547302246094 34.460269927978516 -36.332075119018555Q34.9168701171875 -36.78867721557617 35.562347412109375 -36.78867721557617ZM43.63080596923828 -36.78867721557617H47.665035247802734Q48.31051254272461 -36.78867721557617 48.76711463928223 -36.332075119018555Q49.223716735839844 -35.87547302246094 49.223716735839844 -35.229997634887695Q49.223716735839844 -34.58452224731445 48.76711463928223 -34.127920150756836Q48.31051254272461 -33.67131805419922 47.665035247802734 -33.67131805419922H43.63080596923828Q42.985328674316406 -33.67131805419922 42.52872848510742 -34.127920150756836Q42.07212829589844 -34.58452224731445 42.07212829589844 -35.229997634887695Q42.07212829589844 -35.87547302246094 42.52872848510742 -36.332075119018555Q42.985328674316406 -36.78867721557617 43.63080596923828 -36.78867721557617ZM56.558677673339844 -62.736106872558594V-58.701881408691406Q56.558677673339844 -58.05640411376953 56.10207557678223 -57.599802017211914Q55.64547348022461 -57.1431999206543 54.99999809265137 -57.1431999206543Q54.354522705078125 -57.1431999206543 53.89792060852051 -57.599802017211914Q53.44131851196289 -58.05640411376953 53.44131851196289 -58.701881408691406V-62.736106872558594Q53.44131851196289 -63.38158416748047 53.89792060852051 -63.83818817138672Q54.354522705078125 -64.29479217529297 54.99999809265137 -64.29479217529297Q55.64547348022461 -64.29479217529297 56.10207557678223 -63.83818817138672Q56.558677673339844 -63.38158416748047 56.558677673339844 -62.736106872558594ZM56.558677673339844 -54.66764831542969V-50.633419036865234Q56.558677673339844 -49.987945556640625 56.10207557678223 -49.531341552734375Q55.64547348022461 -49.074737548828125 54.99999809265137 -49.074737548828125Q54.354522705078125 -49.074737548828125 53.89792060852051 -49.531341552734375Q53.44131851196289 -49.987945556640625 53.44131851196289 -50.633419036865234V-54.66764831542969Q53.44131851196289 -55.31312561035156 53.89792060852051 -55.76972579956055Q54.354522705078125 -56.22632598876953 54.99999809265137 -56.22632598876953Q55.64547348022461 -56.22632598876953 56.10207557678223 -55.76972579956055Q56.558677673339844 -55.31312561035156 56.558677673339844 -54.66764831542969ZM75.90464782714844 -36.78867721557617H79.93887329101562Q80.5843505859375 -36.78867721557617 81.04095458984375 -36.332075119018555Q81.49755859375 -35.87547302246094 81.49755859375 -35.229997634887695Q81.49755859375 -34.58452224731445 81.04095458984375 -34.127920150756836Q80.5843505859375 -33.67131805419922 79.93887329101562 -33.67131805419922H75.90464782714844Q75.25917053222656 -33.67131805419922 74.80256652832031 -34.127920150756836Q74.34596252441406 -34.58452224731445 74.34596252441406 -35.229997634887695Q74.34596252441406 -35.87547302246094 74.80256652832031 -36.332075119018555Q75.25917053222656 -36.78867721557617 75.90464782714844 -36.78867721557617ZM67.83618927001953 -36.78867721557617H71.87041473388672Q72.5158920288086 -36.78867721557617 72.97249221801758 -36.332075119018555Q73.42909240722656 -35.87547302246094 73.42909240722656 -35.229997634887695Q73.42909240722656 -34.58452224731445 72.97249221801758 -34.127920150756836Q72.5158920288086 -33.67131805419922 71.87041473388672 -33.67131805419922H67.83618927001953Q67.19071197509766 -33.67131805419922 66.7341079711914 -34.127920150756836Q66.27750396728516 -34.58452224731445 66.27750396728516 -35.229997634887695Q66.27750396728516 -35.87547302246094 66.7341079711914 -36.332075119018555Q67.19071197509766 -36.78867721557617 67.83618927001953 -36.78867721557617ZM56.558677673339844 -46.59918975830078V-42.56496047973633Q56.558677673339844 -41.91948318481445 56.10207557678223 -41.462881088256836Q55.64547348022461 -41.00627899169922 54.99999809265137 -41.00627899169922Q54.354522705078125 -41.00627899169922 53.89792060852051 -41.462881088256836Q53.44131851196289 -41.91948318481445 53.44131851196289 -42.56496047973633V-46.59918975830078Q53.44131851196289 -47.244667053222656 53.89792060852051 -47.70126724243164Q54.354522705078125 -48.157867431640625 54.99999809265137 -48.157867431640625Q55.64547348022461 -48.157867431640625 56.10207557678223 -47.70126724243164Q56.558677673339844 -47.244667053222656 56.558677673339844 -46.59918975830078ZM56.558677673339844 -22.393810272216797V-18.359580993652344Q56.558677673339844 -17.714107513427734 56.10207557678223 -17.257505416870117Q55.64547348022461 -16.8009033203125 54.99999809265137 -16.8009033203125Q54.354522705078125 -16.8009033203125 53.89792060852051 -17.257505416870117Q53.44131851196289 -17.714107513427734 53.44131851196289 -18.359580993652344V-22.393810272216797Q53.44131851196289 -23.039287567138672 53.89792060852051 -23.49588966369629Q54.354522705078125 -23.952491760253906 54.99999809265137 -23.952491760253906Q55.64547348022461 -23.952491760253906 56.10207557678223 -23.49588966369629Q56.558677673339844 -23.039287567138672 56.558677673339844 -22.393810272216797ZM56.558677673339844 -30.462268829345703V-26.428043365478516Q56.558677673339844 -25.782562255859375 56.10207557678223 -25.32596206665039Q55.64547348022461 -24.869361877441406 54.99999809265137 -24.869361877441406Q54.354522705078125 -24.869361877441406 53.89792060852051 -25.32596206665039Q53.44131851196289 -25.782562255859375 53.44131851196289 -26.428043365478516V-30.462268829345703Q53.44131851196289 -31.107749938964844 53.89792060852051 -31.564350128173828Q54.354522705078125 -32.02095031738281 54.99999809265137 -32.02095031738281Q55.64547348022461 -32.02095031738281 56.10207557678223 -31.564350128173828Q56.558677673339844 -31.107749938964844 56.558677673339844 -30.462268829345703ZM56.558677673339844 -14.325347900390625V-10.291122436523438Q56.558677673339844 -9.645645141601562 56.10207557678223 -9.189041137695312Q55.64547348022461 -8.732437133789062 54.99999809265137 -8.732437133789062Q54.354522705078125 -8.732437133789062 53.89792060852051 -9.189041137695312Q53.44131851196289 -9.645645141601562 53.44131851196289 -10.291122436523438V-14.325347900390625Q53.44131851196289 -14.9708251953125 53.89792060852051 -15.42742919921875Q54.354522705078125 -15.884033203125 54.99999809265137 -15.884033203125Q55.64547348022461 -15.884033203125 56.10207557678223 -15.42742919921875Q56.558677673339844 -14.9708251953125 56.558677673339844 -14.325347900390625ZM59.76772689819336 -36.78867721557617H63.80195236206055Q64.44743347167969 -36.78867721557617 64.90403366088867 -36.332075119018555Q65.36063385009766 -35.87547302246094 65.36063385009766 -35.229997634887695Q65.36063385009766 -34.58452224731445 64.90403366088867 -34.127920150756836Q64.44743347167969 -33.67131805419922 63.80195236206055 -33.67131805419922H59.76772689819336Q59.12224578857422 -33.67131805419922 58.665645599365234 -34.127920150756836Q58.20904541015625 -34.58452224731445 58.20904541015625 -35.229997634887695Q58.20904541015625 -35.87547302246094 58.665645599365234 -36.332075119018555Q59.12224578857422 -36.78867721557617 59.76772689819336 -36.78867721557617ZM27.49388885498047 -36.78867721557617H31.528118133544922Q32.1735954284668 -36.78867721557617 32.63019561767578 -36.332075119018555Q33.086795806884766 -35.87547302246094 33.086795806884766 -35.229997634887695Q33.086795806884766 -34.58452224731445 32.63019561767578 -34.127920150756836Q32.1735954284668 -33.67131805419922 31.528118133544922 -33.67131805419922H27.49388885498047Q26.848411560058594 -33.67131805419922 26.391809463500977 -34.127920150756836Q25.93520736694336 -34.58452224731445 25.93520736694336 -35.229997634887695Q25.93520736694336 -35.87547302246094 26.391809463500977 -36.332075119018555Q26.848411560058594 -36.78867721557617 27.49388885498047 -36.78867721557617Z"/>
  </g>
 </g>
</svg>
