<svg xmlns="http://www.w3.org/2000/svg" width="1024" height="1024" viewBox="0 0 1024 1024">
<g transform="translate(7,96) scale(0.597,-0.597) translate(0,-1024)" fill="#c0352a"><path d="M506 774H508Q511 774 514 767L518 769H520Q551 753 551 712Q553 712 553 710L551 706L553 701L551 697Q551 673 595 673Q621 673 630 666Q632 666 632 669Q681 669 724 633Q766 581 766 568Q766 563 768 545Q763 536 763 533L768 530L763 520Q768 520 768 516Q768 513 763 498Q768 498 768 491L766 487Q766 485 768 485L763 460L766 448L757 415Q759 409 761 409Q759 384 753 355Q755 351 755 349H753Q755 345 755 343Q753 339 753 337L757 335L755 324L757 312Q755 308 755 306Q755 304 757 304Q755 283 751 283L753 279L751 267L753 263L751 259Q753 255 753 250H751L753 246V238H749L755 230V199Q755 194 757 191L755 186Q757 172 757 164L755 160Q757 153 763 102Q761 102 761 100Q767 100 772 44Q769 44 766 38V36L770 38H774V36Q772 32 772 30Q776 29 776 26L772 20Q776 20 780 -1L778 -5L780 -17H778L780 -22Q778 -26 778 -28Q781 -28 792 -83Q792 -89 774 -102Q769 -102 766 -100Q762 -102 759 -102Q759 -99 743 -94Q743 -90 735 -81V-79Q735 -77 737 -77Q731 -65 728 -50L731 -40V-30Q731 -25 728 -22Q728 -20 731 -20L724 26L728 28Q726 32 722 53L724 57Q712 146 708 275Q711 303 712 310Q712 312 710 312L712 333V378Q712 380 714 380L712 384V395L718 522Q709 567 681 588Q648 605 562 613Q562 615 555 615H533Q531 615 531 617Q514 615 508 609Q506 609 506 611Q461 606 452 603Q450 603 450 605L436 603H422Q414 595 370 586Q329 569 329 549Q326 549 321 520L323 508Q323 490 321 463Q323 452 323 442L319 440L321 436V432Q321 420 319 403Q321 399 321 395H319L321 390Q321 380 314 372Q317 372 321 370Q319 359 319 357L321 347Q318 331 314 331Q319 324 319 318Q314 318 312 302Q315 302 319 294L316 285Q316 284 319 277L316 269Q319 258 319 252Q314 252 314 246V232H312L314 221V211Q314 209 312 209L314 205V203L310 197Q314 196 314 193L308 184Q312 184 312 180Q310 147 308 145Q310 137 310 131Q310 121 306 121L308 116Q308 112 304 112L306 108V90Q306 79 302 79Q306 73 306 69Q303 69 300 53Q300 51 302 51Q298 31 298 28L300 24Q297 11 294 11Q294 10 296 3Q292 -12 292 -15L294 -20Q291 -32 288 -32L290 -36Q290 -38 286 -57L288 -61Q278 -100 265 -100Q258 -100 255 -102Q232 -95 232 -71V-69Q248 7 253 36Q253 38 251 38Q259 127 261 127Q261 129 259 129Q264 184 267 184L265 189V193Q265 197 267 201Q267 203 265 203Q269 223 269 259V265Q269 267 271 267Q271 269 269 269Q272 314 275 327L273 331V465Q273 473 271 487L273 491Q271 495 271 500Q271 502 273 502L271 506V508Q271 512 273 516Q273 518 271 518Q272 535 275 535L273 539Q283 600 302 613Q359 651 413 656L463 669Q467 666 469 666Q496 672 496 683L477 745V753Q488 774 506 774ZM520 568 522 563 537 568Q560 565 566 563L570 566Q580 563 580 559Q582 559 582 561Q602 561 615 545Q623 545 648 512Q648 504 656 475Q651 474 644 440Q642 440 625 421L617 413Q613 413 613 417Q615 417 615 419H611Q611 397 560 397Q538 397 525 419V425Q532 448 539 448L555 454L560 452Q599 459 599 477Q599 494 553 510Q551 510 551 508Q544 510 543 510Q538 510 535 508Q524 510 516 510H502Q478 507 463 489Q452 483 452 471Q452 469 454 454H452Q452 425 506 407Q535 390 535 370Q538 370 547 345L545 333V331Q549 326 549 322Q549 320 547 320Q550 292 553 292L551 281V279Q551 275 553 271Q551 267 551 263L555 257Q615 265 615 287Q619 287 621 304Q611 347 607 353Q607 382 625 392H634Q649 388 660 370Q671 337 671 324L669 320L671 308Q671 306 669 302L671 289V279Q671 249 640 232Q640 229 613 211L609 213Q593 205 590 205Q586 207 584 207Q584 203 580 203V205L576 203H574Q572 203 572 205Q564 201 557 201V203Q549 200 549 197V184L539 133Q535 132 535 129V127H539V125Q533 115 533 108Q535 108 535 106Q531 106 531 100L533 88Q533 81 520 57L525 55Q522 48 520 48L522 44L516 34Q518 34 518 32Q514 31 514 28Q516 24 516 20Q513 20 508 3L512 1Q506 -11 500 -30L479 -92L481 -96Q468 -121 459 -147Q445 -158 430 -158L415 -149Q415 -144 411 -139Q411 -128 436 -75Q438 -68 438 -67L436 -63Q454 -26 454 -17V-7H457V-11H461V-7H457Q469 27 487 98H490Q490 100 487 104Q494 145 500 160Q498 164 498 166Q501 166 504 172Q504 176 500 176Q502 181 504 195Q499 195 496 197L492 195Q417 210 417 224Q378 255 378 337Q378 348 382 360Q380 360 380 362Q385 364 403 366Q418 362 424 362V360L422 355Q424 355 428 349V337Q428 333 432 316H430L436 296H434Q448 271 465 257V254Q467 254 471 257Q476 257 496 252Q504 255 504 259V279Q504 305 498 320L500 324Q491 354 471 364Q407 400 407 427Q406 430 403 456L405 460L403 473V485Q403 487 405 487Q405 489 403 489Q403 521 436 541Q455 553 494 563Z"/></g>
</svg>
