<svg xmlns="http://www.w3.org/2000/svg" width="1024" height="1024" viewBox="0 0 1024 1024">
<g transform="translate(397,83) scale(0.615,-0.615) translate(0,-1024)" fill="#c0352a"><path d="M512 655Q519 651 524 651H541L551 653V651L555 653Q591 651 598 651V649Q601 649 601 651Q606 651 619 645L623 647Q661 630 673 608Q685 608 693 567V548Q699 528 699 507V499Q704 494 704 490Q704 476 699 476L701 466V439Q701 434 697 420Q699 417 699 412H697Q697 410 699 410Q686 319 666 319Q635 290 563 290Q563 288 549 288V290Q535 289 535 282L537 278L535 274Q537 270 537 268L535 264Q537 260 537 258L535 253Q537 249 537 247L533 245Q537 237 537 223V216Q537 212 535 208L537 204Q537 202 535 198L537 187Q535 183 535 181Q536 181 541 177H566L576 179V177L580 179H592Q604 179 621 181L625 179Q636 181 673 183Q704 183 704 163Q708 162 708 159V155Q689 123 677 122Q675 122 675 124L671 122Q669 122 669 124L664 122H646Q644 122 644 124L627 120Q623 122 621 122Q610 122 586 117V120Q583 117 568 115Q566 115 566 117L555 115H551L541 117Q539 115 537 89Q539 74 539 64L537 56Q540 35 549 35Q551 35 551 37Q553 37 557 35Q645 39 646 41Q650 39 652 39L660 41Q664 39 666 39Q669 39 669 41L679 39H689Q693 39 693 43Q743 39 743 29Q751 18 751 8Q748 8 745 2Q747 2 747 0Q727 -22 718 -23Q714 -21 710 -21Q707 -21 704 -27L666 -21L662 -23H652L627 -25L625 -21Q579 -25 574 -27Q572 -27 572 -25Q544 -27 531 -27H504Q499 -27 495 -25Q492 -27 487 -27H477L473 -25L471 -29L463 -27Q455 -29 454 -29L450 -27Q437 -30 397 -35V-33Q392 -35 376 -37Q374 -37 370 -35Q323 -39 312 -39Q279 -35 279 -14Q276 -14 273 -8V0Q288 27 314 27H331Q335 27 339 29L343 27Q364 29 376 29H384Q389 29 392 31L397 29Q403 29 430 33V31L434 33L446 31L450 33Q454 31 456 31Q456 35 463 35Q465 35 465 33L475 35H485L489 80L487 84Q489 96 489 103V109Q485 114 485 117Q478 115 413 107Q411 107 411 109L399 107Q378 107 337 105Q304 109 304 130Q301 130 298 136V142Q315 171 337 171H341V169L345 171Q347 171 347 169L357 171H360Q380 171 409 173L413 171Q425 175 477 175H481Q484 175 487 181V216Q487 239 489 276L487 280Q489 284 489 286L485 288H463Q455 288 444 290L440 288Q405 295 372 315Q347 342 337 385Q333 385 333 398H335Q330 424 327 431L329 441Q327 444 327 449H329L327 453L329 466L327 470L329 480L327 484L329 488Q327 495 327 496Q331 505 331 509Q329 513 329 515H331Q329 519 329 521Q329 523 331 527Q331 530 329 534Q331 573 357 618Q413 653 510 653Q510 655 512 655ZM537 579 539 575Q539 573 537 573L539 564Q536 534 533 534Q535 530 535 527Q535 525 533 521L535 509L533 499H537Q544 499 547 496Q551 496 551 499L615 494Q646 494 646 505Q646 514 638 548Q640 548 640 550Q634 552 627 573Q619 585 580 591Q576 589 574 589L566 591Q563 591 563 589L553 591H545Q542 591 537 579ZM409 575 405 577H401Q401 573 386 562L378 511Q380 492 395 492L407 494L409 490Q414 492 430 494L434 492Q453 495 458 496Q460 496 460 494L489 499L487 503V523L485 548H487L485 552V589Q467 587 463 587V589Q409 583 409 575ZM623 443H553L533 441V422Q533 411 535 408Q533 397 533 389V369L535 348Q533 348 533 346Q534 346 539 342Q540 342 545 346H561L568 342Q577 348 625 356Q638 356 648 400Q648 402 646 402Q648 431 650 435Q648 438 648 445H644Q639 445 636 443Q634 443 634 445ZM434 439V441Q414 438 409 435Q401 437 395 437Q380 431 380 426Q382 393 409 352Q416 349 454 342L465 344H481Q484 344 487 350V371Q487 378 489 381Q487 413 485 418Q487 422 487 426V443Z"/></g>
</svg>
