<svg xmlns="http://www.w3.org/2000/svg" width="1024" height="1024" viewBox="0 0 2048 2048">
<g transform="translate(0.000000,2048.000000) scale(0.100000,-0.100000)"
fill="#c0201a" stroke="none">
<path d="M10028 18295 c-225 -41 -420 -57 -556 -44 -99 9 -136 9 -223 -4 -120
-19 -352 -24 -519 -13 -100 7 -126 5 -195 -12 -44 -11 -134 -24 -200 -27 -66
-4 -122 -9 -125 -10 -24 -14 -141 -14 -223 -1 -53 9 -136 16 -184 16 -47 0
-123 7 -167 15 -122 21 -481 26 -576 7 -49 -10 -141 -16 -265 -16 -104 -1
-246 -6 -315 -11 -171 -13 -302 -12 -450 3 -69 7 -190 20 -270 27 -80 8 -194
20 -255 26 -69 7 -160 9 -245 4 -164 -9 -184 -9 -285 4 -44 6 -133 13 -199 16
-65 4 -125 9 -133 12 -8 3 -81 -3 -163 -13 -132 -16 -161 -16 -255 -5 -208 26
-269 17 -379 -53 -57 -36 -108 -57 -276 -114 -63 -22 -140 -49 -170 -60 -30
-12 -78 -30 -107 -40 -79 -30 -282 -160 -340 -219 -29 -30 -78 -88 -109 -131
-31 -42 -89 -111 -128 -152 -40 -41 -85 -93 -102 -115 -16 -22 -39 -51 -52
-65 -29 -33 -60 -97 -122 -260 -29 -74 -68 -164 -88 -200 -90 -163 -102 -214
-100 -431 4 -336 1 -455 -11 -494 -40 -133 -47 -425 -15 -563 14 -60 16 -156
15 -712 0 -30 -7 -95 -15 -144 -20 -111 -20 -209 -2 -317 28 -159 29 -203 11
-303 -14 -78 -16 -135 -11 -318 6 -275 20 -456 40 -528 22 -76 20 -172 -5
-260 -19 -68 -21 -101 -21 -363 0 -172 5 -323 13 -375 10 -75 10 -98 -5 -167
-37 -174 -38 -191 -26 -262 6 -37 16 -129 20 -203 5 -74 13 -166 20 -205 18
-114 20 -262 3 -340 -10 -47 -13 -106 -10 -183 2 -66 -2 -148 -10 -200 -14
-92 -11 -411 5 -524 6 -38 4 -95 -5 -165 -11 -87 -11 -137 -2 -254 9 -122 9
-168 -4 -280 -9 -74 -19 -204 -22 -290 -5 -132 -3 -167 14 -236 15 -63 17 -91
10 -129 -6 -29 -6 -181 -2 -374 4 -179 7 -370 5 -425 -2 -55 2 -131 9 -168 12
-73 2 -199 -27 -340 -18 -88 -18 -219 1 -332 8 -49 15 -119 15 -155 0 -38 10
-103 25 -155 29 -106 32 -206 11 -353 -8 -53 -14 -146 -13 -207 1 -93 -3 -122
-25 -190 -14 -44 -28 -93 -31 -110 -8 -45 10 -261 27 -335 8 -36 20 -126 27
-200 11 -127 10 -140 -10 -211 -29 -103 -32 -156 -15 -279 14 -103 23 -581 12
-645 -8 -42 18 -247 41 -330 55 -200 209 -604 266 -700 94 -157 172 -260 266
-350 57 -56 126 -116 152 -134 63 -43 188 -101 307 -141 52 -18 113 -42 134
-52 60 -31 219 -75 348 -98 64 -11 130 -25 145 -31 44 -17 241 -39 439 -49
100 -5 210 -14 245 -21 35 -6 116 -11 179 -11 63 1 158 -6 210 -14 99 -16 184
-17 235 -2 17 5 95 15 175 23 80 8 177 21 215 29 57 12 151 14 505 10 239 -2
480 -9 535 -14 306 -30 333 -31 630 -20 165 6 347 8 405 4 94 -6 117 -3 214
21 158 38 372 36 527 -5 67 -18 558 -20 694 -3 122 15 138 15 395 -11 74 -8
203 -13 285 -11 83 1 181 -2 219 -7 114 -15 542 6 646 33 77 19 101 21 248 14
90 -3 171 -8 180 -10 44 -8 445 -14 502 -7 36 4 101 3 145 -2 102 -11 241 -12
480 -1 247 12 396 8 525 -11 107 -16 304 -13 424 6 80 13 585 1 719 -16 113
-15 122 -15 241 6 108 18 152 20 328 16 112 -2 248 -10 303 -16 106 -12 494 2
565 21 58 15 144 10 236 -13 l86 -22 241 23 c133 12 271 21 307 18 36 -2 108
0 160 4 397 29 443 34 523 67 16 7 31 12 34 12 17 0 334 167 373 196 61 45
287 277 333 341 21 28 69 79 108 114 129 114 292 317 378 472 27 48 94 285
111 389 9 54 10 119 5 215 -8 146 -8 236 -2 583 3 149 9 235 20 280 28 119 36
302 20 485 -13 146 -9 284 9 365 12 54 18 129 19 265 l2 190 -31 81 c-17 45
-35 108 -41 140 -21 121 -10 751 15 866 8 38 14 122 14 195 0 92 6 154 21 223
12 52 23 123 26 156 7 78 -13 311 -34 412 -20 96 -22 238 -5 362 18 126 16
226 -4 302 -15 59 -20 133 -28 488 -2 58 -6 150 -11 205 -6 80 -3 123 13 220
12 66 24 152 27 190 4 39 12 108 20 155 17 109 12 344 -10 560 -14 132 -16
220 -12 438 5 274 2 328 -34 507 -14 73 -6 254 15 340 10 40 16 135 19 275 4
185 8 226 27 290 19 61 23 101 24 220 1 192 -11 358 -33 450 -26 104 -30 174
-32 485 -2 267 -1 271 25 349 23 71 26 95 27 230 1 83 2 192 2 241 1 50 -9
187 -22 305 -13 118 -27 271 -31 340 -4 69 -13 164 -20 212 -17 126 -8 392 19
602 l24 178 -23 107 c-12 58 -33 140 -46 182 -13 42 -31 116 -39 165 -28 160
-93 403 -125 462 -17 32 -71 104 -121 162 -50 58 -110 131 -134 163 -76 100
-287 316 -370 379 -98 74 -175 113 -369 188 -83 32 -176 69 -206 83 -76 35
-133 51 -291 81 -165 32 -226 32 -355 5 -108 -24 -185 -26 -569 -17 -131 3
-266 13 -335 23 -90 14 -147 16 -260 11 -80 -4 -206 -9 -281 -12 -104 -5 -159
-3 -234 10 -92 16 -305 23 -325 11 -5 -3 -174 -8 -377 -12 -453 -8 -439 -8
-603 2 -141 8 -531 -13 -695 -37 -135 -21 -469 -14 -612 11 -93 16 -160 21
-275 20 -102 -1 -183 5 -242 15 -130 24 -356 39 -641 42 -137 1 -263 4 -280 7
-16 3 -88 8 -160 11 -110 4 -150 1 -257 -19z m-3209 -2111 c9 -11 23 -31 32
-44 15 -22 16 -23 42 -6 28 19 32 18 90 -27 57 -44 79 -87 129 -247 65 -209
82 -295 75 -379 -4 -53 -2 -72 8 -81 11 -9 11 -18 4 -38 -6 -15 -8 -42 -4 -60
3 -18 1 -48 -6 -67 -20 -53 2 -132 52 -189 50 -56 100 -73 344 -110 94 -15
195 -32 225 -37 52 -10 134 -44 173 -71 15 -11 20 -10 32 6 13 17 24 18 102
13 48 -3 113 -14 143 -25 76 -27 301 -140 385 -194 85 -55 281 -217 315 -261
13 -18 52 -64 86 -103 64 -74 141 -198 214 -343 23 -46 58 -109 78 -139 41
-61 42 -75 27 -257 -5 -63 -3 -114 7 -172 14 -75 13 -86 -3 -140 -20 -63 -24
-93 -11 -93 5 0 16 -6 26 -13 16 -12 16 -16 -4 -69 l-22 -56 22 -22 c15 -15
20 -29 16 -48 -3 -15 -8 -58 -12 -97 -4 -38 -10 -80 -15 -93 -7 -17 -5 -24 6
-28 20 -8 20 -80 0 -127 -9 -23 -11 -38 -5 -42 6 -3 10 -25 10 -49 0 -48 -25
-225 -39 -271 -6 -24 -3 -46 15 -95 30 -82 30 -104 -2 -248 -46 -213 -45 -208
-25 -260 15 -40 18 -79 20 -262 1 -212 1 -217 -32 -350 -27 -107 -32 -142 -24
-169 6 -24 5 -36 -3 -41 -8 -5 -10 -21 -5 -48 4 -25 2 -55 -6 -76 -12 -32 -11
-36 11 -54 l24 -20 -17 -73 c-9 -41 -17 -109 -17 -152 0 -53 -5 -88 -17 -110
-10 -21 -17 -63 -19 -122 -3 -64 -12 -118 -32 -185 -27 -87 -28 -97 -14 -119
11 -19 13 -41 8 -98 -3 -43 -1 -82 5 -96 6 -14 7 -31 1 -46 -5 -14 -5 -47 1
-78 7 -39 6 -61 -2 -77 -9 -16 -9 -34 -2 -66 15 -65 14 -90 -5 -90 -12 0 -7
-12 19 -48 28 -37 35 -57 36 -92 0 -25 2 -83 5 -130 2 -47 1 -107 -3 -135 -4
-27 -3 -65 2 -84 6 -22 5 -48 -1 -70 -8 -26 -7 -75 2 -176 9 -89 10 -149 4
-164 -5 -14 -6 -31 -3 -39 3 -8 10 -58 15 -110 6 -52 19 -125 31 -161 26 -84
39 -356 20 -414 -9 -28 -10 -41 -2 -51 6 -7 21 -40 32 -72 18 -50 22 -86 25
-231 2 -102 10 -203 19 -245 21 -101 20 -157 -5 -182 -25 -28 -52 -93 -41
-100 5 -3 14 1 21 9 7 8 21 15 32 15 18 0 19 -5 13 -54 -6 -49 -5 -55 14 -65
23 -13 27 -42 10 -89 -9 -27 -7 -39 16 -86 35 -71 43 -158 21 -221 -8 -26 -14
-51 -11 -55 6 -10 17 -155 15 -195 -7 -151 26 -381 81 -555 17 -52 35 -129 41
-171 11 -70 10 -78 -11 -122 -25 -52 -180 -204 -217 -213 -12 -3 -32 -1 -43 5
-16 9 -28 8 -51 -4 -27 -14 -31 -14 -47 2 -10 10 -42 29 -71 43 -35 17 -52 31
-52 43 0 10 -16 55 -35 98 -35 80 -43 127 -25 145 6 6 2 31 -10 71 -11 34 -30
115 -43 180 -20 102 -23 141 -20 288 3 130 7 171 17 177 8 4 19 42 26 87 11
71 10 91 -9 197 -52 286 -51 277 -36 294 12 13 10 28 -15 110 -37 116 -57 257
-42 297 5 17 6 50 2 79 -4 27 -11 111 -14 188 -4 76 -8 141 -10 145 -3 3 -5
53 -7 111 -1 58 -6 121 -11 140 -4 19 -10 87 -13 150 -4 63 -10 133 -15 155
-5 22 -10 153 -10 291 0 173 -4 276 -14 330 -8 44 -17 180 -20 304 -3 135 -11
257 -20 305 -20 102 -20 186 -1 311 20 134 19 184 -7 257 -29 83 -31 310 -3
402 10 33 19 89 21 125 1 36 5 144 9 240 3 96 11 203 17 237 8 50 7 79 -7 145
-31 153 -35 191 -23 205 8 10 8 20 -1 39 -17 38 -14 109 11 211 19 82 21 103
12 205 -8 95 -6 126 9 198 27 132 49 399 37 461 -16 84 -12 395 5 459 21 73
17 260 -6 360 -10 41 -23 113 -29 160 -21 155 -78 296 -176 436 -58 83 -174
162 -306 208 -96 34 -149 60 -262 129 -74 46 -163 75 -246 82 -54 4 -174 15
-215 20 -5 0 -46 4 -90 8 -107 10 -195 27 -221 44 -14 9 -58 13 -149 12 -111
-1 -129 1 -138 16 -19 35 -209 -5 -264 -57 -21 -19 -25 -20 -38 -7 -13 12 -29
14 -88 7 -39 -4 -144 -12 -232 -18 -88 -5 -185 -16 -215 -25 -68 -18 -70 -18
-70 0 0 12 -13 13 -67 9 -147 -11 -207 -24 -233 -49 -48 -46 -287 -156 -443
-205 -32 -10 -84 -35 -115 -56 -31 -21 -81 -53 -110 -72 -29 -19 -66 -50 -82
-69 -42 -48 -88 -142 -99 -205 -6 -29 -17 -89 -24 -133 -8 -44 -20 -91 -25
-105 -6 -14 -25 -70 -41 -125 -25 -80 -31 -119 -31 -190 0 -50 -4 -106 -10
-125 -16 -59 -19 -89 -25 -214 -2 -67 -7 -166 -11 -221 -4 -71 -1 -121 10
-173 20 -92 21 -161 2 -168 -12 -4 -11 -12 1 -52 12 -38 13 -81 7 -232 -4
-102 -7 -215 -5 -252 1 -38 -1 -74 -6 -80 -4 -7 -8 -56 -8 -108 0 -79 -4 -103
-23 -139 -22 -45 -18 -60 14 -61 26 0 33 -26 20 -71 -28 -91 -26 -114 11 -191
32 -64 35 -77 31 -133 -3 -33 -13 -75 -21 -92 -15 -28 -15 -38 -2 -109 14 -70
14 -79 -1 -95 -25 -27 -44 -106 -44 -180 0 -62 3 -71 31 -101 54 -59 62 -82
50 -151 -8 -44 -8 -71 1 -99 10 -34 9 -41 -18 -80 -27 -41 -28 -48 -26 -139 2
-93 2 -96 -22 -107 -14 -6 -27 -22 -30 -34 -18 -90 -30 -179 -28 -213 1 -22 4
-94 6 -160 2 -66 7 -132 11 -148 5 -17 1 -42 -10 -69 -15 -37 -15 -42 -1 -50
22 -12 20 -26 -15 -103 -28 -62 -29 -69 -14 -78 15 -8 16 -23 10 -136 -4 -69
-13 -169 -22 -221 -8 -52 -18 -170 -22 -263 -6 -130 -12 -171 -24 -185 -13
-15 -14 -20 -2 -42 19 -33 18 -45 -1 -65 -15 -14 -14 -18 2 -43 15 -22 19 -51
22 -152 4 -129 -8 -207 -32 -216 -10 -4 -10 -16 2 -61 12 -50 12 -60 -1 -82
-17 -30 -47 -156 -47 -200 0 -16 4 -33 10 -36 13 -8 4 -413 -11 -468 -6 -23
-16 -48 -21 -55 -8 -9 -7 -29 2 -67 11 -48 11 -61 -4 -112 -37 -120 -40 -143
-29 -185 12 -46 -3 -130 -31 -173 -9 -14 -14 -31 -9 -37 4 -7 6 -64 5 -128 -1
-64 3 -133 9 -155 39 -132 5 -267 -104 -420 -70 -98 -93 -115 -179 -127 -40
-5 -80 -14 -89 -19 -25 -13 -106 20 -146 59 -50 49 -67 120 -58 246 4 61 16
128 30 171 29 89 52 247 65 450 12 186 16 224 37 285 8 25 19 97 23 160 5 63
14 175 21 249 13 129 13 134 -6 148 -18 12 -20 26 -20 126 0 109 37 414 56
464 5 13 14 75 19 136 6 62 15 130 20 152 15 61 13 262 -3 272 -26 17 -50 152
-48 272 2 157 38 299 107 422 26 47 32 68 32 121 0 36 6 93 12 128 8 42 8 71
2 84 -18 39 -40 201 -36 266 2 36 11 99 20 140 10 46 17 125 18 205 0 72 5
133 10 137 6 4 5 13 -3 22 -15 18 -3 106 35 273 28 120 29 164 8 253 -9 39
-15 111 -15 180 0 63 -1 171 -2 240 -4 252 13 713 28 770 22 80 22 591 0 710
-8 47 -15 119 -15 160 0 42 -8 104 -18 141 -13 45 -16 74 -10 90 6 16 4 43 -7
82 -9 32 -13 66 -10 75 12 28 15 224 4 244 -12 23 6 136 33 200 11 26 18 53
16 60 -3 7 8 40 23 73 40 88 48 124 69 285 44 351 115 566 222 672 95 95 155
128 383 210 17 6 35 14 40 18 6 4 28 13 50 20 22 7 74 29 115 47 95 44 139 57
275 83 118 23 252 71 344 125 60 35 117 56 280 104 l105 31 21 -20 c25 -24 57
-25 116 -5 113 40 166 81 198 154 18 43 20 58 12 118 -5 37 -23 101 -40 141
-17 40 -36 103 -42 140 -7 37 -22 99 -35 137 -12 39 -27 113 -33 165 -6 52
-15 119 -21 149 -15 79 -12 127 9 169 30 57 118 150 175 183 44 26 59 29 110
26 44 -3 63 -9 75 -23z m7023 -748 c74 -37 83 -39 195 -43 88 -4 133 -1 177
11 43 11 62 13 67 5 4 -8 12 -8 25 -1 19 10 125 -1 294 -28 43 -7 108 -10 153
-7 49 4 76 3 72 -3 -12 -19 21 -10 39 11 14 17 24 20 54 14 45 -8 92 -27 92
-37 0 -5 6 -8 14 -8 7 0 19 -7 26 -15 16 -19 54 -19 70 0 9 11 16 12 33 2 12
-7 24 -15 27 -18 3 -3 27 -20 54 -39 27 -18 57 -41 67 -51 10 -10 58 -48 106
-85 98 -75 94 -71 147 -139 21 -28 67 -78 102 -112 41 -41 76 -87 99 -133 19
-38 40 -70 45 -70 24 0 86 -70 111 -125 42 -93 51 -161 54 -399 3 -260 7 -295
46 -401 16 -44 38 -125 50 -180 19 -88 21 -119 15 -255 -3 -85 -10 -175 -15
-200 -7 -35 -6 -56 7 -92 14 -41 15 -56 4 -119 -14 -83 -43 -153 -71 -177
l-20 -17 20 -100 c14 -74 19 -133 17 -225 -1 -69 -1 -159 1 -200 1 -41 -5
-113 -13 -160 -16 -84 -16 -84 10 -148 21 -52 23 -66 12 -74 -10 -7 -9 -12 7
-24 18 -14 20 -26 19 -157 0 -127 -3 -152 -28 -232 -63 -201 -78 -274 -85
-436 l-7 -157 -82 -163 c-79 -155 -132 -229 -166 -229 -7 0 -51 -43 -100 -95
-91 -99 -127 -123 -225 -155 -31 -10 -98 -37 -150 -59 -52 -23 -128 -51 -169
-62 -41 -12 -94 -29 -116 -39 -58 -24 -151 -38 -297 -45 -69 -3 -150 -10 -180
-16 -89 -17 -199 -23 -199 -10 0 16 -66 13 -100 -4 -42 -21 -59 -82 -35 -119
13 -20 16 -38 12 -71 -4 -28 -1 -56 8 -79 11 -26 12 -42 5 -61 -7 -18 -7 -33
0 -45 15 -27 12 -77 -5 -111 -14 -26 -14 -35 -1 -78 14 -48 14 -50 -8 -65
l-23 -14 23 -70 c13 -39 31 -103 39 -142 15 -70 14 -74 -12 -183 -17 -68 -27
-134 -25 -167 1 -30 -3 -74 -9 -97 -8 -31 -8 -59 0 -109 10 -57 10 -73 -5
-114 l-17 -48 34 -41 34 -42 193 3 c105 2 192 -1 192 -5 0 -4 10 -2 23 4 12 7
59 14 104 16 45 1 115 10 155 18 274 59 270 58 299 41 31 -18 19 -18 250 -17
118 1 204 6 260 17 107 21 239 13 309 -17 66 -28 125 -93 144 -160 9 -29 25
-61 36 -71 30 -28 24 -66 -20 -133 -24 -36 -52 -99 -70 -156 -43 -140 -150
-298 -202 -299 -9 0 -18 6 -21 13 -3 9 -10 9 -32 -3 -22 -12 -29 -12 -32 -2
-6 16 -23 15 -43 -3 -34 -31 -263 -61 -272 -35 -2 6 -31 3 -78 -10 -106 -29
-141 -33 -183 -22 -23 7 -72 7 -134 2 -170 -15 -344 -15 -352 -1 -6 10 -20 9
-67 -2 -101 -26 -146 -31 -154 -17 -7 11 -23 11 -84 0 -57 -10 -85 -10 -120
-1 -76 19 -95 15 -110 -21 -8 -18 -19 -67 -26 -108 -6 -41 -21 -115 -32 -165
-38 -172 -32 -322 21 -508 16 -55 18 -78 10 -125 -5 -31 -6 -73 -3 -92 9 -47
80 -199 106 -227 23 -25 67 -30 86 -11 9 9 18 9 37 0 38 -18 99 -15 195 9 62
15 128 22 240 25 85 3 196 9 247 14 51 6 134 10 185 10 51 0 109 4 128 10 24
7 44 6 67 -2 27 -10 42 -9 84 5 38 12 57 13 71 6 25 -14 76 -15 89 -2 6 6 28
7 57 2 26 -4 84 -8 130 -8 76 -1 85 1 106 24 28 30 68 32 219 10 139 -21 218
-46 310 -100 73 -43 79 -49 108 -113 21 -48 34 -97 44 -172 12 -98 12 -106 -5
-121 -10 -8 -25 -30 -34 -48 -14 -26 -15 -35 -5 -47 12 -15 4 -30 -92 -159
-89 -119 -116 -151 -148 -172 -42 -29 -65 -29 -117 -1 -49 25 -67 20 -95 -27
-20 -33 -24 -35 -72 -35 -29 0 -90 4 -137 10 -47 5 -129 12 -183 15 -88 6
-100 4 -126 -14 -21 -15 -45 -21 -85 -21 -31 0 -93 -11 -138 -24 -46 -13 -108
-26 -138 -30 -53 -6 -56 -6 -72 23 -15 28 -18 29 -55 20 -31 -8 -352 -11 -468
-5 -16 1 -51 -1 -78 -5 -37 -4 -50 -2 -62 11 -13 14 -34 17 -138 14 -67 -1
-160 -10 -207 -19 -47 -9 -139 -18 -205 -20 -66 -2 -163 -7 -216 -10 -75 -5
-104 -3 -135 10 -31 12 -47 13 -68 5 -41 -15 -167 -12 -190 5 -22 17 -36 11
-36 -16 0 -23 -13 -24 -65 -1 -34 16 -45 16 -88 5 -41 -10 -52 -10 -71 2 -21
14 -29 13 -87 -9 -65 -24 -117 -36 -249 -57 -41 -6 -113 -24 -160 -39 -124
-40 -150 -45 -150 -27 0 13 -6 13 -47 1 -72 -22 -191 -18 -232 7 -31 19 -44
20 -133 14 -55 -4 -125 -11 -156 -16 -31 -4 -109 -13 -172 -19 -63 -6 -157
-17 -208 -24 -169 -23 -251 2 -353 105 -72 73 -117 148 -125 212 -4 26 -10 47
-15 47 -15 0 -53 84 -66 145 -14 71 -7 100 44 187 56 95 151 160 338 229 87
32 95 33 245 34 85 1 163 5 173 9 11 5 28 4 43 -4 20 -11 51 -11 182 3 86 9
203 19 259 21 59 3 114 11 130 19 19 10 37 11 58 6 17 -5 37 -7 45 -4 8 2 67
9 131 15 63 6 142 17 175 25 37 8 63 10 70 4 7 -5 21 -6 35 -1 15 6 43 3 81
-7 46 -12 65 -13 88 -4 22 8 38 8 59 0 27 -10 33 -8 55 16 27 29 82 37 103 16
10 -10 62 -5 208 19 l40 7 6 105 c4 58 10 132 14 165 4 34 1 124 -7 210 -16
169 -16 254 0 305 5 19 16 73 22 120 7 47 19 120 27 163 l14 78 -30 45 c-16
25 -32 51 -34 57 -2 7 -37 2 -108 -16 -57 -14 -155 -33 -217 -42 -63 -9 -164
-31 -225 -50 -62 -18 -165 -46 -230 -61 -100 -24 -120 -26 -127 -14 -8 12 -16
12 -57 -3 -84 -29 -123 -30 -247 -7 -89 17 -137 21 -199 17 -466 -33 -520 -31
-632 23 -100 48 -185 159 -185 240 0 24 -7 43 -19 54 -38 35 -36 123 6 216 8
19 47 92 85 163 113 207 215 297 339 297 30 0 60 -5 66 -11 8 -8 17 -8 33 1
18 9 24 9 30 0 6 -10 25 -8 86 8 109 28 157 32 411 34 205 1 223 -1 248 -19
24 -17 33 -18 83 -8 43 9 83 9 167 0 103 -11 218 -11 275 1 14 3 86 12 160 20
148 16 165 23 212 90 38 53 59 202 51 363 -3 64 0 150 5 191 8 50 8 98 2 142
-14 99 -15 429 -1 533 7 50 18 115 26 145 7 30 13 80 13 110 0 30 1 64 3 74 3
13 -5 25 -23 35 -23 13 -39 13 -135 1 -113 -14 -206 -14 -335 -2 -58 6 -84 4
-103 -6 -22 -11 -39 -10 -133 13 -220 53 -222 53 -301 114 -42 32 -87 64 -101
71 -14 7 -74 45 -135 85 -60 39 -129 84 -152 98 -23 15 -55 46 -72 70 -34 49
-97 190 -143 317 -16 47 -39 103 -50 124 -11 22 -37 92 -58 156 -21 64 -54
141 -73 171 -44 69 -66 122 -69 163 -1 17 -9 39 -17 50 -24 27 -29 187 -7 209
13 13 16 37 14 134 -1 65 0 152 2 193 2 58 -2 91 -20 144 -21 65 -22 71 -8
130 9 37 13 87 10 129 -3 45 -1 67 7 67 7 0 8 7 0 23 -6 14 -7 53 -1 110 7 74
5 92 -8 115 -13 21 -14 38 -8 85 4 32 5 64 1 70 -4 7 -8 59 -9 117 -2 86 2
120 22 187 13 44 24 92 24 105 1 43 -8 143 -15 171 -5 19 -2 41 10 67 17 37
17 41 0 87 -15 40 -18 84 -18 273 -1 221 -1 226 25 287 14 34 31 94 38 135 21
128 40 199 81 302 22 56 52 144 65 196 14 52 30 102 35 112 5 9 9 26 9 37 0
37 121 119 270 181 140 60 150 65 320 170 76 47 113 66 145 76 6 2 64 12 130
24 192 32 335 60 410 81 38 10 137 31 220 45 118 21 167 25 231 20 69 -5 83
-3 88 10 3 9 9 14 14 12 4 -2 42 -21 84 -42z m-6939 -1943 c22 -39 25 -39 108
-12 56 19 78 21 176 15 62 -3 136 -11 164 -17 47 -10 54 -9 66 7 11 15 16 16
39 4 14 -8 33 -26 42 -42 12 -20 19 -25 28 -17 34 28 201 -36 277 -106 20 -19
57 -43 80 -53 58 -26 112 -82 183 -189 97 -147 121 -200 128 -278 9 -89 32
-218 57 -318 18 -72 18 -79 3 -108 -19 -37 -94 -332 -94 -369 0 -30 -15 -54
-85 -135 -29 -33 -69 -85 -90 -115 -81 -117 -107 -150 -120 -150 -19 0 -29 38
-14 56 14 17 6 29 -16 21 -9 -4 -15 -18 -15 -35 0 -16 -14 -57 -31 -91 -24
-49 -45 -73 -91 -107 -98 -72 -195 -114 -307 -132 -91 -14 -104 -14 -165 1
-37 9 -91 29 -119 44 -45 25 -60 42 -121 138 -88 140 -90 156 -36 260 23 44
55 115 72 159 l30 78 83 39 c93 44 102 45 125 24 15 -13 23 -13 71 1 129 38
252 123 289 199 20 41 22 58 17 125 -5 73 -16 111 -41 135 -23 23 -164 114
-241 155 -44 24 -102 58 -130 77 -51 34 -71 40 -77 23 -2 -5 -22 -2 -49 7 -41
15 -52 15 -88 3 -37 -12 -58 -10 -212 15 -98 15 -188 25 -212 22 -70 -10 -164
-66 -246 -147 -212 -211 -228 -251 -167 -415 37 -101 44 -135 26 -135 -14 0
-3 -141 16 -201 8 -25 31 -65 50 -88 44 -51 161 -140 268 -205 161 -97 232
-167 321 -315 21 -36 57 -88 80 -116 57 -70 92 -133 100 -180 4 -22 38 -99 76
-172 38 -72 69 -141 69 -153 0 -12 -7 -47 -16 -78 -14 -46 -14 -64 -5 -108 11
-47 10 -56 -9 -92 -32 -62 -31 -174 3 -274 14 -43 32 -88 38 -100 7 -13 14
-64 15 -114 1 -53 9 -114 19 -146 16 -50 16 -60 3 -99 -10 -33 -11 -54 -4 -83
l10 -39 86 6 c150 9 299 76 413 189 67 66 97 116 97 160 0 13 7 33 15 44 8 12
23 68 33 125 17 101 17 106 -1 169 -10 36 -22 113 -27 172 -7 83 -18 134 -48
225 l-40 118 2 155 c3 168 3 169 54 250 116 186 208 185 328 -5 21 -33 63 -89
94 -125 51 -60 60 -77 107 -221 29 -86 56 -182 61 -214 15 -93 14 -372 -2
-408 -9 -24 -12 -91 -11 -260 1 -222 0 -232 -27 -339 -16 -61 -35 -123 -43
-138 -8 -15 -50 -57 -94 -93 -43 -36 -108 -94 -143 -128 -74 -73 -161 -148
-240 -208 -48 -36 -59 -40 -75 -30 -16 10 -27 7 -64 -14 -110 -65 -121 -69
-146 -58 -32 15 -43 14 -43 -3 0 -17 -27 -29 -35 -16 -3 5 -16 4 -31 -2 -19
-9 -30 -9 -44 -1 -13 9 -29 8 -66 -3 -47 -14 -83 -11 -96 9 -4 7 -16 4 -33 -7
-23 -15 -26 -23 -22 -49 30 -166 33 -116 -23 -498 -11 -74 -22 -182 -26 -240
-5 -99 -7 -105 -35 -131 -31 -29 -39 -68 -14 -68 21 0 19 -17 -5 -50 -41 -58
-92 -179 -87 -207 3 -17 -2 -36 -16 -54 -18 -26 -19 -36 -12 -121 11 -132 9
-160 -21 -235 -36 -89 -54 -159 -54 -209 0 -36 3 -43 25 -48 30 -8 32 -28 7
-77 -17 -33 -17 -39 -3 -67 14 -31 13 -35 -22 -102 -20 -38 -34 -77 -31 -85 4
-9 -6 -25 -25 -41 -29 -24 -31 -30 -25 -70 6 -43 1 -57 -45 -141 -6 -10 -22
-45 -37 -78 -25 -58 -25 -60 -6 -73 19 -12 18 -15 -14 -100 -23 -61 -35 -114
-40 -173 -3 -46 -10 -105 -14 -132 -4 -26 -8 -82 -9 -125 -2 -96 -13 -137 -61
-234 -24 -49 -42 -104 -50 -150 -13 -88 -45 -199 -72 -252 -15 -28 -18 -50
-14 -77 8 -47 -16 -113 -79 -224 -26 -44 -55 -107 -66 -140 -11 -33 -31 -89
-44 -125 -13 -36 -26 -78 -29 -93 -9 -39 -108 -101 -212 -133 l-82 -26 -58 32
c-67 37 -94 58 -94 74 0 7 -16 36 -36 66 -43 67 -42 100 11 212 19 42 35 78
35 82 0 3 18 45 39 93 22 49 49 126 61 173 15 61 36 109 74 170 67 109 92 179
77 221 -8 24 -8 38 4 63 47 103 107 280 124 369 19 102 20 161 6 248 -7 42 -5
47 14 52 12 3 21 13 21 24 0 10 11 68 25 128 14 61 37 186 50 280 29 192 37
229 71 303 32 70 41 112 43 207 2 98 2 95 59 280 25 83 53 155 61 162 14 10
14 15 -2 47 -17 36 -16 40 14 169 46 196 85 328 135 461 45 117 45 120 31 158
-9 21 -11 38 -7 38 15 0 33 76 26 105 -4 15 -16 29 -26 32 -17 5 -20 14 -20
72 0 36 -3 90 -6 119 l-7 52 -42 0 c-23 0 -47 -6 -53 -13 -17 -20 -156 -3
-212 27 -135 71 -172 87 -245 106 -44 12 -100 31 -123 43 -53 26 -149 120
-168 164 -8 17 -32 47 -54 65 -46 37 -127 142 -159 205 -11 23 -28 86 -36 139
-9 54 -20 104 -24 113 -5 9 -27 89 -50 178 -34 132 -41 178 -41 255 0 51 -6
125 -14 163 -48 238 -46 211 -31 388 8 102 22 193 35 237 17 57 19 74 9 86
-17 21 -4 30 78 48 101 22 121 21 205 -18 40 -19 90 -41 111 -50 42 -17 43
-22 22 -73 -14 -34 -14 -38 4 -57 39 -44 45 -68 46 -211 1 -114 5 -152 23
-205 12 -35 18 -68 13 -73 -5 -5 -5 -25 0 -45 16 -68 22 -189 10 -196 -8 -5
-6 -16 5 -39 30 -59 176 -256 245 -332 38 -42 69 -84 69 -95 0 -23 9 -25 44
-9 20 10 45 6 138 -20 132 -36 152 -38 195 -11 53 32 58 87 33 360 -7 85 -14
207 -15 270 -1 91 -6 124 -22 160 -15 34 -18 52 -11 72 8 22 -1 60 -46 193
-64 191 -99 250 -190 316 -33 24 -94 76 -136 114 -41 39 -91 81 -110 95 -71
51 -267 233 -319 298 -60 74 -94 141 -111 217 -6 28 -20 86 -30 130 -14 59
-19 114 -19 210 1 152 -3 224 -20 320 -12 69 -7 190 8 200 5 2 6 27 3 54 -9
92 34 253 113 427 40 88 65 119 183 227 90 83 163 125 327 190 121 48 297 94
425 110 137 18 140 18 163 -20z"/>
<path d="M14182 14518 c-5 -7 -31 -55 -57 -107 -40 -80 -46 -100 -41 -133 4
-22 1 -46 -5 -56 -9 -14 -7 -36 8 -94 21 -83 19 -126 -10 -278 -27 -140 -38
-275 -26 -307 6 -15 12 -56 15 -90 2 -34 13 -96 25 -138 16 -58 19 -90 14
-139 l-7 -65 64 2 c44 1 70 -3 86 -15 27 -18 62 -13 62 10 0 13 18 14 138 9
75 -4 166 -13 202 -22 75 -17 324 -40 420 -39 66 2 212 42 258 72 39 26 54 69
59 176 5 94 3 107 -26 191 -19 56 -31 109 -31 142 0 29 -5 86 -11 128 -9 59
-9 82 0 99 11 20 9 26 -17 54 -41 44 -78 125 -96 210 -17 84 -24 94 -125 171
-104 79 -155 107 -225 121 -34 7 -95 23 -136 35 -50 15 -81 20 -92 14 -27 -15
-71 -10 -113 11 -26 14 -50 19 -70 15 -18 -3 -51 3 -83 15 -59 23 -164 27
-180 8z"/>
<path d="M13035 14439 c-117 -18 -209 -41 -313 -80 -132 -50 -155 -62 -181
-94 -16 -22 -23 -24 -40 -16 -35 19 -50 12 -75 -36 -13 -27 -45 -72 -70 -101
l-46 -54 1 -154 c0 -158 -8 -216 -72 -511 -20 -88 -20 -96 -4 -180 30 -164 71
-211 169 -199 28 3 66 9 84 12 30 6 32 4 38 -25 4 -17 12 -31 18 -31 16 0 120
34 200 64 59 23 73 25 98 15 23 -10 37 -8 86 10 58 22 173 39 224 33 16 -2 30
-11 33 -22 9 -27 23 -29 105 -14 41 7 116 13 165 13 l90 1 -3 212 c-3 206 -4
216 -34 308 -26 81 -32 113 -34 218 -2 68 -5 126 -8 130 -2 4 2 45 10 92 8 47
21 128 30 180 8 52 21 120 29 151 8 31 15 62 15 68 0 9 -33 10 -125 5 -91 -5
-125 -4 -125 5 0 13 -173 13 -265 0z"/>
<path d="M14060 12275 c0 -14 6 -58 14 -98 8 -40 18 -110 21 -157 8 -111 12
-129 42 -191 30 -64 28 -116 -10 -269 -33 -133 -51 -298 -52 -470 -1 -149 -12
-260 -26 -260 -16 0 -10 -32 9 -47 60 -48 59 -48 97 -14 20 17 47 31 60 31 14
0 57 9 96 20 l72 19 48 -21 c35 -14 53 -17 61 -10 13 10 135 48 264 81 39 10
131 22 205 26 172 9 198 12 226 30 21 14 103 168 103 194 0 7 20 72 44 144 27
79 52 176 61 242 9 60 18 113 21 117 2 4 -2 11 -11 15 -11 7 -15 31 -15 108
-1 55 1 110 4 121 2 12 17 71 32 130 18 74 28 137 28 197 l1 87 -33 0 c-19 0
-52 -10 -74 -22 -31 -18 -41 -20 -47 -9 -7 11 -18 11 -57 2 -73 -16 -751 -7
-934 13 -80 8 -169 16 -197 16 -50 0 -53 -1 -53 -25z"/>
<path d="M13365 12269 c-129 -13 -243 -29 -345 -49 -167 -32 -160 -31 -160
-14 0 10 -6 14 -17 10 -10 -3 -60 -8 -111 -11 -52 -4 -110 -12 -130 -19 -24
-9 -45 -10 -60 -5 -13 5 -49 10 -81 10 -45 1 -69 -5 -118 -29 -90 -46 -103
-67 -103 -166 0 -88 26 -228 59 -316 11 -30 30 -95 41 -143 24 -99 65 -194
118 -277 19 -30 64 -113 99 -185 35 -71 69 -135 76 -142 30 -29 198 -102 272
-117 44 -10 110 -23 147 -31 56 -12 76 -12 130 -1 60 13 101 11 228 -9 38 -5
50 -3 74 16 59 46 68 121 41 329 -16 121 -9 201 21 245 8 11 14 37 14 58 0 22
10 81 21 131 l22 91 -21 90 c-30 125 -34 150 -37 230 -1 39 -6 125 -10 193
l-8 122 -41 -1 c-23 -1 -77 -5 -121 -10z"/>
<path d="M6220 6126 c0 -25 12 -46 26 -46 9 0 14 11 14 30 0 23 -4 30 -20 30
-11 0 -20 -6 -20 -14z"/>
</g>
</svg>
