<?xml version="1.0" encoding="UTF-8"?>
<!--Generator: Apple Native CoreSVG 228-->
<!DOCTYPE svg
PUBLIC "-//W3C//DTD SVG 1.1//EN"
       "http://www.w3.org/Graphics/SVG/1.1/DTD/svg11.dtd">
<svg version="1.1" xmlns="http://www.w3.org/2000/svg" xmlns:xlink="http://www.w3.org/1999/xlink" width="3300" height="2200">
 <!--glyph: "", point size: 100.0, font version: "19.0d5e1internal", template writer version: "101"-->
 <style>.monochrome-0{fill:#000000}
.monochrome-1{fill:#000000}
.hierarchical-0:secondary{fill:#000000}
.hierarchical-1:primary{fill:#000000}
</style>
 <g id="Notes">
  <rect height="2200" id="artboard" style="fill:white;opacity:1" width="3300" x="0" y="0"/>
  <line style="fill:none;stroke:black;opacity:1;stroke-width:0.5;" x1="263" x2="3036" y1="292" y2="292"/>
  <text style="stroke:none;fill:black;font-family:sans-serif;font-size:13;font-weight:bold;" transform="matrix(1 0 0 1 263 322)">Weight/Scale Variations</text>
  <text style="stroke:none;fill:black;font-family:sans-serif;font-size:13;text-anchor:middle;" transform="matrix(1 0 0 1 559.711 322)">Ultralight</text>
  <text style="stroke:none;fill:black;font-family:sans-serif;font-size:13;text-anchor:middle;" transform="matrix(1 0 0 1 856.422 322)">Thin</text>
  <text style="stroke:none;fill:black;font-family:sans-serif;font-size:13;text-anchor:middle;" transform="matrix(1 0 0 1 1153.13 322)">Light</text>
  <text style="stroke:none;fill:black;font-family:sans-serif;font-size:13;text-anchor:middle;" transform="matrix(1 0 0 1 1449.84 322)">Regular</text>
  <text style="stroke:none;fill:black;font-family:sans-serif;font-size:13;text-anchor:middle;" transform="matrix(1 0 0 1 1746.56 322)">Medium</text>
  <text style="stroke:none;fill:black;font-family:sans-serif;font-size:13;text-anchor:middle;" transform="matrix(1 0 0 1 2043.27 322)">Semibold</text>
  <text style="stroke:none;fill:black;font-family:sans-serif;font-size:13;text-anchor:middle;" transform="matrix(1 0 0 1 2339.98 322)">Bold</text>
  <text style="stroke:none;fill:black;font-family:sans-serif;font-size:13;text-anchor:middle;" transform="matrix(1 0 0 1 2636.69 322)">Heavy</text>
  <text style="stroke:none;fill:black;font-family:sans-serif;font-size:13;text-anchor:middle;" transform="matrix(1 0 0 1 2933.4 322)">Black</text>
  <line style="fill:none;stroke:black;opacity:1;stroke-width:0.5;" x1="263" x2="3036" y1="1903" y2="1903"/>
  <g transform="matrix(1 0 0 1 263 1933)">
   <path d="M9.24805 0.830078C13.5547 0.830078 17.1387-2.74414 17.1387-7.05078C17.1387-11.3574 13.5449-14.9316 9.23828-14.9316C4.94141-14.9316 1.36719-11.3574 1.36719-7.05078C1.36719-2.74414 4.95117 0.830078 9.24805 0.830078ZM9.24805-0.654297C5.70312-0.654297 2.87109-3.49609 2.87109-7.05078C2.87109-10.6055 5.69336-13.4473 9.23828-13.4473C12.793-13.4473 15.6445-10.6055 15.6445-7.05078C15.6445-3.49609 12.8027-0.654297 9.24805-0.654297ZM5.6543-7.05078C5.6543-6.62109 5.95703-6.32812 6.40625-6.32812L8.50586-6.32812L8.50586-4.20898C8.50586-3.76953 8.79883-3.4668 9.22852-3.4668C9.67773-3.4668 9.9707-3.76953 9.9707-4.20898L9.9707-6.32812L12.0898-6.32812C12.5293-6.32812 12.832-6.62109 12.832-7.05078C12.832-7.49023 12.5293-7.79297 12.0898-7.79297L9.9707-7.79297L9.9707-9.90234C9.9707-10.3516 9.67773-10.6543 9.22852-10.6543C8.79883-10.6543 8.50586-10.3516 8.50586-9.90234L8.50586-7.79297L6.40625-7.79297C5.95703-7.79297 5.6543-7.49023 5.6543-7.05078Z"/>
  </g>
  <g transform="matrix(1 0 0 1 281.867 1933)">
   <path d="M11.709 2.91016C17.1582 2.91016 21.6699-1.61133 21.6699-7.05078C21.6699-12.5 17.1484-17.0117 11.6992-17.0117C6.25977-17.0117 1.74805-12.5 1.74805-7.05078C1.74805-1.61133 6.26953 2.91016 11.709 2.91016ZM11.709 1.25C7.09961 1.25 3.41797-2.44141 3.41797-7.05078C3.41797-11.6602 7.08984-15.3516 11.6992-15.3516C16.3086-15.3516 20.0098-11.6602 20.0098-7.05078C20.0098-2.44141 16.3184 1.25 11.709 1.25ZM7.17773-7.05078C7.17773-6.57227 7.50977-6.25 8.00781-6.25L10.8789-6.25L10.8789-3.36914C10.8789-2.88086 11.2109-2.53906 11.6895-2.53906C12.1777-2.53906 12.5195-2.87109 12.5195-3.36914L12.5195-6.25L15.4004-6.25C15.8887-6.25 16.2305-6.57227 16.2305-7.05078C16.2305-7.53906 15.8887-7.88086 15.4004-7.88086L12.5195-7.88086L12.5195-10.752C12.5195-11.25 12.1777-11.5918 11.6895-11.5918C11.2109-11.5918 10.8789-11.25 10.8789-10.752L10.8789-7.88086L8.00781-7.88086C7.50977-7.88086 7.17773-7.53906 7.17773-7.05078Z"/>
  </g>
  <g transform="matrix(1 0 0 1 305.646 1933)">
   <path d="M14.9707 5.66406C21.9336 5.66406 27.6953-0.0976562 27.6953-7.05078C27.6953-14.0137 21.9238-19.7754 14.9609-19.7754C8.00781-19.7754 2.25586-14.0137 2.25586-7.05078C2.25586-0.0976562 8.01758 5.66406 14.9707 5.66406ZM14.9707 3.84766C8.93555 3.84766 4.08203-1.01562 4.08203-7.05078C4.08203-13.0957 8.92578-17.9492 14.9609-17.9492C21.0059-17.9492 25.8691-13.0957 25.8691-7.05078C25.8691-1.01562 21.0156 3.84766 14.9707 3.84766ZM9.19922-7.05078C9.19922-6.5332 9.57031-6.17188 10.1172-6.17188L14.0625-6.17188L14.0625-2.2168C14.0625-1.67969 14.4336-1.29883 14.9512-1.29883C15.4883-1.29883 15.8594-1.66992 15.8594-2.2168L15.8594-6.17188L19.8145-6.17188C20.3516-6.17188 20.7324-6.5332 20.7324-7.05078C20.7324-7.59766 20.3613-7.96875 19.8145-7.96875L15.8594-7.96875L15.8594-11.9141C15.8594-12.4609 15.4883-12.8418 14.9512-12.8418C14.4336-12.8418 14.0625-12.4609 14.0625-11.9141L14.0625-7.96875L10.1172-7.96875C9.57031-7.96875 9.19922-7.59766 9.19922-7.05078Z"/>
  </g>
  <text style="stroke:none;fill:black;font-family:sans-serif;font-size:13;font-weight:bold;" transform="matrix(1 0 0 1 263 1953)">Design Variations</text>
  <text style="stroke:none;fill:black;font-family:sans-serif;font-size:13;" transform="matrix(1 0 0 1 263 1971)">Symbols are supported in up to nine weights and three scales.</text>
  <text style="stroke:none;fill:black;font-family:sans-serif;font-size:13;" transform="matrix(1 0 0 1 263 1989)">For optimal layout with text and other symbols, vertically align</text>
  <text style="stroke:none;fill:black;font-family:sans-serif;font-size:13;" transform="matrix(1 0 0 1 263 2007)">symbols with the adjacent text.</text>
  <line style="fill:none;stroke:#00AEEF;stroke-width:0.5;opacity:1.0;" x1="776" x2="776" y1="1919" y2="1933"/>
  <g transform="matrix(1 0 0 1 776 1933)">
   <path d="M3.31055 0.15625C3.82812 0.15625 4.08203-0.0390625 4.26758-0.585938L5.52734-4.0332L11.2891-4.0332L12.5488-0.585938C12.7344-0.0390625 12.9883 0.15625 13.4961 0.15625C14.0137 0.15625 14.3457-0.15625 14.3457-0.644531C14.3457-0.810547 14.3164-0.966797 14.2383-1.17188L9.6582-13.3691C9.43359-13.9648 9.0332-14.2676 8.4082-14.2676C7.80273-14.2676 7.39258-13.9746 7.17773-13.3789L2.59766-1.16211C2.51953-0.957031 2.49023-0.800781 2.49023-0.634766C2.49023-0.146484 2.80273 0.15625 3.31055 0.15625ZM6.00586-5.51758L8.37891-12.0898L8.42773-12.0898L10.8008-5.51758Z"/>
  </g>
  <line style="fill:none;stroke:#00AEEF;stroke-width:0.5;opacity:1.0;" x1="793.197" x2="793.197" y1="1919" y2="1933"/>
  <text style="stroke:none;fill:black;font-family:sans-serif;font-size:13;font-weight:bold;" transform="matrix(1 0 0 1 776 1953)">Margins</text>
  <text style="stroke:none;fill:black;font-family:sans-serif;font-size:13;" transform="matrix(1 0 0 1 776 1971)">Leading and trailing margins on the left and right side of each symbol</text>
  <text style="stroke:none;fill:black;font-family:sans-serif;font-size:13;" transform="matrix(1 0 0 1 776 1989)">can be adjusted by modifying the x-location of the margin guidelines.</text>
  <text style="stroke:none;fill:black;font-family:sans-serif;font-size:13;" transform="matrix(1 0 0 1 776 2007)">Modifications are automatically applied proportionally to all</text>
  <text style="stroke:none;fill:black;font-family:sans-serif;font-size:13;" transform="matrix(1 0 0 1 776 2025)">scales and weights.</text>
  <g transform="matrix(1 0 0 1 1289 1933)">
   <path d="M2.8418 1.86523L4.54102 3.57422C5.40039 4.44336 6.38672 4.38477 7.31445 3.35938L18.0078-8.42773L17.041-9.4043L6.42578 2.27539C6.07422 2.67578 5.74219 2.77344 5.27344 2.30469L4.10156 1.14258C3.63281 0.683594 3.74023 0.341797 4.14062-0.0195312L15.6152-10.8203L14.6387-11.7871L3.04688-0.898438C2.06055 0.0195312 1.98242 0.996094 2.8418 1.86523ZM9.25781-16.3281C8.83789-15.918 8.80859-15.3418 9.04297-14.9512C9.27734-14.5898 9.73633-14.3555 10.3809-14.5215C11.8457-14.8633 13.3691-14.9219 14.7949-13.9844L14.209-12.5293C13.8672-11.6992 14.043-11.1133 14.5801-10.5664L16.875-8.25195C17.3633-7.76367 17.7734-7.74414 18.3398-7.8418L19.4043-8.03711L20.0684-7.36328L20.0293-6.80664C19.9902-6.30859 20.1172-5.92773 20.6055-5.44922L21.3672-4.70703C21.8457-4.22852 22.4609-4.19922 22.9297-4.66797L25.8398-7.58789C26.3086-8.05664 26.2891-8.65234 25.8105-9.13086L25.0391-9.89258C24.5605-10.3711 24.1895-10.5273 23.7109-10.4883L23.1348-10.4395L22.4902-11.0742L22.7344-12.1973C22.8613-12.7637 22.7051-13.2031 22.1191-13.7891L19.9219-15.9766C16.582-19.2969 12.1484-19.2188 9.25781-16.3281ZM10.752-15.957C13.1836-17.7344 16.4746-17.4316 18.7012-15.2051L21.1328-12.793C21.3672-12.5586 21.4062-12.373 21.3379-12.0312L21.0156-10.5469L22.5195-9.0625L23.5059-9.12109C23.7598-9.13086 23.8379-9.11133 24.0332-8.91602L24.6094-8.33984L22.168-5.89844L21.5918-6.47461C21.3965-6.66992 21.3672-6.74805 21.377-7.01172L21.4453-7.98828L19.9512-9.47266L18.4277-9.21875C18.1055-9.15039 17.959-9.17969 17.7148-9.41406L15.7129-11.416C15.459-11.6504 15.4297-11.8164 15.5859-12.1875L16.4648-14.2773C14.9023-15.7324 12.8711-16.3574 10.8398-15.7617C10.6836-15.7227 10.625-15.8496 10.752-15.957Z"/>
  </g>
  <text style="stroke:none;fill:black;font-family:sans-serif;font-size:13;font-weight:bold;" transform="matrix(1 0 0 1 1289 1953)">Exporting</text>
  <text style="stroke:none;fill:black;font-family:sans-serif;font-size:13;" transform="matrix(1 0 0 1 1289 1971)">Symbols should be outlined when exporting to ensure the</text>
  <text style="stroke:none;fill:black;font-family:sans-serif;font-size:13;" transform="matrix(1 0 0 1 1289 1989)">design is preserved when submitting to Xcode.</text>
  <text id="template-version" style="stroke:none;fill:black;font-family:sans-serif;font-size:13;text-anchor:end;" transform="matrix(1 0 0 1 3036 1933)">Template v.4.0</text>
  <text style="stroke:none;fill:black;font-family:sans-serif;font-size:13;text-anchor:end;" transform="matrix(1 0 0 1 3036 1951)">Requires Xcode 14 or greater</text>
  <text id="descriptive-name" style="stroke:none;fill:black;font-family:sans-serif;font-size:13;text-anchor:end;" transform="matrix(1 0 0 1 3036 1969)">Generated from StrokeOrder</text>
  <text style="stroke:none;fill:black;font-family:sans-serif;font-size:13;text-anchor:end;" transform="matrix(1 0 0 1 3036 1987)">Typeset at 100 points</text>
  <text style="stroke:none;fill:black;font-family:sans-serif;font-size:13;" transform="matrix(1 0 0 1 263 726)">Small</text>
  <text style="stroke:none;fill:black;font-family:sans-serif;font-size:13;" transform="matrix(1 0 0 1 263 1156)">Medium</text>
  <text style="stroke:none;fill:black;font-family:sans-serif;font-size:13;" transform="matrix(1 0 0 1 263 1586)">Large</text>
 </g>
 <g id="Guides">
  <g id="H-reference" style="fill:#27AAE1;stroke:none;" transform="matrix(1 0 0 1 339 696)">
   <path d="M0.993654 0L3.63775 0L29.3281-67.1323L30.0303-67.1323L30.0303-70.459L28.1226-70.459ZM11.6885-24.4799L46.9815-24.4799L46.2315-26.7285L12.4385-26.7285ZM55.1196 0L57.7637 0L30.6382-70.459L29.4326-70.459L29.4326-67.1323Z"/>
  </g>
  <line id="Baseline-S" style="fill:none;stroke:#27AAE1;opacity:1;stroke-width:0.5;" x1="263" x2="3036" y1="696" y2="696"/>
  <line id="Capline-S" style="fill:none;stroke:#27AAE1;opacity:1;stroke-width:0.5;" x1="263" x2="3036" y1="625.541" y2="625.541"/>
  <g id="H-reference" style="fill:#27AAE1;stroke:none;" transform="matrix(1 0 0 1 339 1126)">
   <path d="M0.993654 0L3.63775 0L29.3281-67.1323L30.0303-67.1323L30.0303-70.459L28.1226-70.459ZM11.6885-24.4799L46.9815-24.4799L46.2315-26.7285L12.4385-26.7285ZM55.1196 0L57.7637 0L30.6382-70.459L29.4326-70.459L29.4326-67.1323Z"/>
  </g>
  <line id="Baseline-M" style="fill:none;stroke:#27AAE1;opacity:1;stroke-width:0.5;" x1="263" x2="3036" y1="1126" y2="1126"/>
  <line id="Capline-M" style="fill:none;stroke:#27AAE1;opacity:1;stroke-width:0.5;" x1="263" x2="3036" y1="1055.54" y2="1055.54"/>
  <g id="H-reference" style="fill:#27AAE1;stroke:none;" transform="matrix(1 0 0 1 339 1556)">
   <path d="M0.993654 0L3.63775 0L29.3281-67.1323L30.0303-67.1323L30.0303-70.459L28.1226-70.459ZM11.6885-24.4799L46.9815-24.4799L46.2315-26.7285L12.4385-26.7285ZM55.1196 0L57.7637 0L30.6382-70.459L29.4326-70.459L29.4326-67.1323Z"/>
  </g>
  <line id="Baseline-L" style="fill:none;stroke:#27AAE1;opacity:1;stroke-width:0.5;" x1="263" x2="3036" y1="1556" y2="1556"/>
  <line id="Capline-L" style="fill:none;stroke:#27AAE1;opacity:1;stroke-width:0.5;" x1="263" x2="3036" y1="1485.54" y2="1485.54"/>
  <line id="left-margin-Ultralight-S" style="fill:none;stroke:#00AEEF;stroke-width:0.5;opacity:1.0;" x1="507.128" x2="507.128" y1="600.785" y2="720.121"/>
  <line id="right-margin-Ultralight-S" style="fill:none;stroke:#00AEEF;stroke-width:0.5;opacity:1.0;" x1="612.295" x2="612.295" y1="600.785" y2="720.121"/>
  <line id="left-margin-Regular-S" style="fill:none;stroke:#00AEEF;stroke-width:0.5;opacity:1.0;" x1="1394.4" x2="1394.4" y1="600.785" y2="720.121"/>
  <line id="right-margin-Regular-S" style="fill:none;stroke:#00AEEF;stroke-width:0.5;opacity:1.0;" x1="1505.29" x2="1505.29" y1="600.785" y2="720.121"/>
  <line id="left-margin-Black-S" style="fill:none;stroke:#00AEEF;stroke-width:0.5;opacity:1.0;" x1="2873.15" x2="2873.15" y1="600.785" y2="720.121"/>
  <line id="right-margin-Black-S" style="fill:none;stroke:#00AEEF;stroke-width:0.5;opacity:1.0;" x1="2993.65" x2="2993.65" y1="600.785" y2="720.121"/>
 </g>
 <g id="Symbols">
  <g id="Ultralight-S" transform="matrix(1 0 0 1 507.128 696)">
   <path class="monochrome-0 hierarchical-0:secondary" d="M57.94024658203125 -30.27106475830078Q61.47240447998047 -30.747364044189453 66.09832000732422 -31.16250991821289Q71.46483612060547 -31.930156707763672 76.7542495727539 -32.9256477355957Q79.03965759277344 -33.6424674987793 80.3944320678711 -33.01853561401367Q83.82080078125 -31.46746826171875 86.13951873779297 -29.231121063232422Q87.546875 -27.825519561767578 86.63200378417969 -26.12723159790039Q86.575927734375 -26.022075653076172 86.49705505371094 -25.932693481445312Q85.58744049072266 -24.89163589477539 83.33883666992188 -25.18958282470703Q70.73941802978516 -26.293941497802734 58.919525146484375 -25.072628021240234Q60.30012512207031 -12.204750061035156 58.385040283203125 -5.080024719238281Q58.37803268432617 -5.05023193359375 58.367515563964844 -5.0204315185546875Q56.83747863769531 -0.43383026123046875 54.60989761352539 0.7737274169921875Q54.59412384033203 0.780731201171875 54.58010482788086 0.7894973754882812Q52.485721588134766 1.8375625610351562 50.55083084106445 -0.2042388916015625Q50.51402282714844 -0.2427978515625 50.482479095458984 -0.28310394287109375Q47.60467529296875 -3.9934005737304688 42.49929428100586 -8.1856689453125Q41.76845169067383 -8.779800415039062 41.491539001464844 -9.167129516601562Q41.15678787231445 -9.635086059570312 41.21637725830078 -10.118804931640625Q41.30926513671875 -10.875938415527344 42.01382064819336 -11.08099365234375Q42.8953857421875 -11.506881713867188 44.01355743408203 -11.172134399414062Q50.61567687988281 -9.146102905273438 51.644466400146484 -9.028678894042969Q53.99593734741211 -12.79574203491211 52.857200622558594 -24.560054779052734Q44.70320129394531 -23.857563018798828 38.1983642578125 -22.339824676513672Q38.17207717895508 -22.332813262939453 38.14403533935547 -22.327556610107422Q32.71617126464844 -21.363616943359375 31.39995574951172 -21.04638671875Q29.731460571289062 -20.29100799560547 28.56421661376953 -20.75720977783203Q26.107044219970703 -21.74042510986328 24.73824691772461 -22.765708923339844Q22.890987396240234 -24.202857971191406 23.015422821044922 -25.70134735107422Q23.01892852783203 -25.753925323486328 23.029443740844727 -25.804752349853516Q23.351924896240234 -27.567886352539062 25.260528564453125 -27.443450927734375Q33.077213287353516 -27.522319793701172 38.19310760498047 -28.284709930419922Q38.20888137817383 -28.288211822509766 38.222904205322266 -28.289966583251953Q48.48067855834961 -29.52283477783203 51.918338775634766 -29.725482940673828Q51.24646759033203 -32.205020904541016 50.28969192504883 -34.2401123046875Q49.44843292236328 -35.92963409423828 50.19855499267578 -36.77439880371094Q51.237857818603516 -38.106388092041016 52.766143798828125 -37.08987045288086Q53.745853424072266 -36.625423431396484 54.61865997314453 -35.752620697021484L55.39507293701172 -34.977962493896484Q56.80287551879883 -33.57171630859375 57.94024658203125 -30.27106475830078ZM54.953643798828125 -24.729053497314453Q56.16222381591797 -12.131072998046875 53.362030029296875 -7.8088531494140625Q53.300689697265625 -7.715965270996094 53.22182083129883 -7.637092590332031L53.12017059326172 -7.484619140625Q52.95016860961914 -7.23223876953125 52.67150115966797 -7.10955810546875Q51.74085998535156 -6.6959381103515625 45.28070068359375 -8.594024658203125Q49.52204132080078 -4.9398193359375 52.11066436767578 -1.616851806640625Q52.94315719604492 -0.7580642700195312 53.623172760009766 -1.0858001708984375Q55.10588836669922 -1.9042739868164062 56.36251449584961 -5.656639099121094Q58.16769027709961 -12.410003662109375 56.82557678222656 -24.87655258178711ZM58.623565673828125 -27.15534210205078Q70.69170379638672 -28.411293029785156 83.54564666748047 -27.28396224975586Q83.57193756103516 -27.28045654296875 83.59471893310547 -27.278705596923828Q84.5569076538086 -27.147258758544922 84.83382415771484 -27.26293182373047Q84.88639831542969 -27.510051727294922 84.65330505371094 -27.74489974975586Q82.62201690673828 -29.700828552246094 79.52864074707031 -31.10116958618164Q78.88367462158203 -31.39911651611328 77.33260345458984 -30.903121948242188Q77.26951599121094 -30.882091522216797 77.2064208984375 -30.869823455810547Q71.82588195800781 -29.856807708740234 66.36822509765625 -29.076892852783203Q66.34017944335938 -29.073387145996094 66.31388854980469 -29.069881439208984Q61.85780334472656 -28.671371459960938 58.43796157836914 -28.215660095214844ZM52.36560821533203 -27.724117279052734Q50.060813903808594 -27.59455108642578 38.48929977416992 -26.202598571777344Q33.219173431396484 -25.417423248291016 25.239498138427734 -25.340309143066406Q25.193927764892578 -25.340309143066406 25.148361206054688 -25.343814849853516L25.146608352661133 -25.345565795898438Q25.293827056884766 -24.998546600341797 26.028175354003906 -24.42719268798828Q27.144594192504883 -23.59119415283203 29.34588623046875 -22.709625244140625Q29.698162078857422 -22.569416046142578 30.604263305664062 -22.995304107666016Q30.69540023803711 -23.039119720458984 30.795299530029297 -23.063655853271484Q32.07120895385742 -23.384384155273438 37.74794387817383 -24.39389419555664Q44.3430061340332 -25.930450439453125 52.55952835083008 -26.644805908203125ZM54.05891799926758 -29.856155395507812 55.796661376953125 -30.026447296142578Q54.89508819580078 -32.5034294128418 53.90884780883789 -33.48823547363281L53.13243865966797 -34.26639938354492Q52.71005630493164 -34.68702697753906 52.27190399169922 -34.965694427490234Q53.33600997924805 -32.657352447509766 54.05891799926758 -29.856155395507812ZM54.6661262512207 -26.81542205810547 56.52277374267578 -26.961544036865234 56.34683609008789 -27.96731948852539 54.49203109741211 -27.78586196899414ZM42.92517852783203 -9.184661865234375Q42.916419982910156 -9.18115234375 42.907657623291016 -9.175895690917969Q42.755516052246094 -9.089187622070312 42.585044860839844 -9.055938720703125Q42.781551361083984 -9.093864440917969 42.92517852783203 -9.184661865234375ZM51.803951263427734 -35.414363861083984Q51.82323455810547 -35.43714904785156 51.84426498413086 -35.46519088745117Q51.79869842529297 -35.405601501464844 51.746116638183594 -35.353023529052734Q51.77766418457031 -35.38457107543945 51.803951263427734 -35.414363861083984Z"/>
   <path class="monochrome-1 hierarchical-1:primary" d="M49.50977325439453 -63.54741668701172Q46.55485916137695 -65.40694427490234 45.834529876708984 -66.96502685546875Q45.73638153076172 -67.17884063720703 45.68730926513672 -67.40843963623047Q45.21410369873047 -69.61673736572266 46.49176025390625 -70.8908920288086Q46.84053421020508 -71.23790740966797 47.306732177734375 -71.39564514160156Q48.149742126464844 -71.67781829833984 50.02679443359375 -71.57967376708984Q50.098655700683594 -71.57616424560547 50.17051315307617 -71.5674057006836Q59.042274475097656 -70.49129486083984 60.691490173339844 -66.75821685791016Q60.709014892578125 -66.71790313720703 60.7230339050293 -66.6793441772461Q61.969146728515625 -63.51762008666992 61.51872634887695 -61.49334716796875Q61.513465881347656 -61.46530532836914 61.5064582824707 -61.437259674072266Q61.25087356567383 -60.418922424316406 60.74636459350586 -59.75563049316406Q64.6578369140625 -60.25506591796875 68.9989013671875 -60.76600646972656Q76.13907623291016 -62.16459655761719 78.70140838623047 -60.24372863769531Q85.21764373779297 -55.57474899291992 85.39289855957031 -53.853675842285156Q85.4034194946289 -53.74851989746094 85.4034194946289 -53.64160919189453Q85.4034194946289 -51.450836181640625 81.12352752685547 -49.950592041015625Q81.08321380615234 -49.934818267822266 81.04115295410156 -49.922550201416016Q77.80756378173828 -48.93757629394531 73.79933166503906 -46.02472686767578Q71.38597106933594 -44.319427490234375 69.68067169189453 -45.29388427734375Q69.58602905273438 -45.34646224975586 69.49840545654297 -45.40955352783203Q67.48989868164062 -46.84845733642578 68.82013702392578 -49.41779327392578Q69.9891357421875 -52.20796585083008 70.57450866699219 -53.681922912597656Q70.67440795898438 -53.93605041503906 70.75678253173828 -54.14811706542969Q70.2450180053711 -54.13759994506836 69.42127990722656 -54.039451599121094Q69.36870574951172 -54.03244400024414 69.31787872314453 -54.02893829345703Q51.779415130615234 -52.80210494995117 40.36285400390625 -49.3021240234375Q40.276973724365234 -49.27583312988281 40.1893424987793 -49.256553649902344Q38.09184646606445 -48.803863525390625 36.431190490722656 -49.04734802246094Q33.305606842041016 -41.7825813293457 32.14306640625 -40.15345001220703Q32.10275650024414 -40.09736633300781 32.060691833496094 -40.046539306640625Q30.57447052001953 -38.22381591796875 28.897212982177734 -38.22381591796875Q26.96582794189453 -38.22381591796875 25.89322280883789 -40.30943298339844Q25.349910736083984 -41.14017105102539 25.188671112060547 -42.14267349243164Q23.709461212158203 -46.846702575683594 27.903480529785156 -51.3667106628418Q30.632308959960938 -54.807098388671875 30.443023681640625 -56.23723602294922Q30.407974243164062 -56.494873046875 30.437767028808594 -56.75601577758789Q30.688392639160156 -58.9222526550293 32.14657211303711 -59.61628723144531Q33.799293518066406 -60.40321731567383 35.523868560791016 -58.888954162597656Q36.885616302490234 -57.75621032714844 37.5120964050293 -56.47529602050781Q40.24773025512695 -56.792457580566406 43.070648193359375 -57.1959228515625Q48.44402313232422 -58.10374450683594 55.42605972290039 -59.054603576660156Q54.767757415771484 -59.373046875 54.14896011352539 -59.87567901611328Q51.75312805175781 -61.89820098876953 49.50977325439453 -63.54741668701172ZM55.913848876953125 -32.55058670043945Q53.05707550048828 -30.408885955810547 51.58312225341797 -31.882835388183594Q50.16700744628906 -33.297203063964844 52.121177673339844 -36.167991638183594Q54.28040313720703 -39.43838119506836 56.26962661743164 -42.27412033081055Q49.022544860839844 -39.650447845458984 47.17879104614258 -39.047542572021484Q43.65427017211914 -37.17049026489258 40.33305740356445 -38.88630676269531Q40.27522277832031 -38.916099548339844 40.217384338378906 -38.95115280151367Q38.16857147216797 -40.17798614501953 37.35009765625 -41.697505950927734Q37.29401397705078 -41.80266189575195 37.25019836425781 -41.914833068847656Q36.4720344543457 -43.86199188232422 37.593711853027344 -45.19398498535156Q38.56991958618164 -46.35246276855469 40.518836975097656 -46.27184295654297Q44.69532775878906 -46.12812805175781 46.32351303100586 -46.58380889892578Q53.46718978881836 -48.58179473876953 58.15369415283203 -50.273075103759766Q60.801902770996094 -51.191444396972656 63.08556365966797 -49.99090576171875L63.155670166015625 -49.95234680175781Q68.79560089111328 -46.704742431640625 69.4686050415039 -44.56479263305664V-44.56654357910156Q70.45532989501953 -41.41358184814453 67.10256958007812 -40.17798614501953Q66.96936798095703 -40.128910064697266 66.8326644897461 -40.099117279052734Q65.1939697265625 -39.73457336425781 55.94013595581055 -32.569862365722656ZM71.0442123413086 -54.85266876220703Q71.08277130126953 -55.1365966796875 71.19668579101562 -55.402992248535156Q71.07050323486328 -55.11030578613281 71.0424575805664 -54.84916687011719Z"/>
  </g>
  <g id="Regular-S" transform="matrix(1 0 0 1 1394.4 696)">
   <path class="monochrome-0 hierarchical-0:secondary" d="M57.94024658203125 -30.27106475830078Q61.47240447998047 -30.747364044189453 66.09832000732422 -31.16250991821289Q71.46483612060547 -31.930156707763672 76.7542495727539 -32.9256477355957Q79.03965759277344 -33.6424674987793 80.3944320678711 -33.01853561401367Q83.82080078125 -31.46746826171875 86.13951873779297 -29.231121063232422Q87.546875 -27.825519561767578 86.63200378417969 -26.12723159790039Q86.575927734375 -26.022075653076172 86.49705505371094 -25.932693481445312Q85.58744049072266 -24.89163589477539 83.33883666992188 -25.18958282470703Q70.73941802978516 -26.293941497802734 58.919525146484375 -25.072628021240234Q60.30012512207031 -12.204750061035156 58.385040283203125 -5.080024719238281Q58.37803268432617 -5.05023193359375 58.367515563964844 -5.0204315185546875Q56.83747863769531 -0.43383026123046875 54.60989761352539 0.7737274169921875Q54.59412384033203 0.780731201171875 54.58010482788086 0.7894973754882812Q52.485721588134766 1.8375625610351562 50.55083084106445 -0.2042388916015625Q50.51402282714844 -0.2427978515625 50.482479095458984 -0.28310394287109375Q47.60467529296875 -3.9934005737304688 42.49929428100586 -8.1856689453125Q41.76845169067383 -8.779800415039062 41.491539001464844 -9.167129516601562Q41.15678787231445 -9.635086059570312 41.21637725830078 -10.118804931640625Q41.30926513671875 -10.875938415527344 42.01382064819336 -11.08099365234375Q42.8953857421875 -11.506881713867188 44.01355743408203 -11.172134399414062Q50.61567687988281 -9.146102905273438 51.644466400146484 -9.028678894042969Q53.99593734741211 -12.79574203491211 52.857200622558594 -24.560054779052734Q44.70320129394531 -23.857563018798828 38.1983642578125 -22.339824676513672Q38.17207717895508 -22.332813262939453 38.14403533935547 -22.327556610107422Q32.71617126464844 -21.363616943359375 31.39995574951172 -21.04638671875Q29.731460571289062 -20.29100799560547 28.56421661376953 -20.75720977783203Q26.107044219970703 -21.74042510986328 24.73824691772461 -22.765708923339844Q22.890987396240234 -24.202857971191406 23.015422821044922 -25.70134735107422Q23.01892852783203 -25.753925323486328 23.029443740844727 -25.804752349853516Q23.351924896240234 -27.567886352539062 25.260528564453125 -27.443450927734375Q33.077213287353516 -27.522319793701172 38.19310760498047 -28.284709930419922Q38.20888137817383 -28.288211822509766 38.222904205322266 -28.289966583251953Q48.48067855834961 -29.52283477783203 51.918338775634766 -29.725482940673828Q51.24646759033203 -32.205020904541016 50.28969192504883 -34.2401123046875Q49.44843292236328 -35.92963409423828 50.19855499267578 -36.77439880371094Q51.237857818603516 -38.106388092041016 52.766143798828125 -37.08987045288086Q53.745853424072266 -36.625423431396484 54.61865997314453 -35.752620697021484L55.39507293701172 -34.977962493896484Q56.80287551879883 -33.57171630859375 57.94024658203125 -30.27106475830078ZM54.953643798828125 -24.729053497314453Q56.16222381591797 -12.131072998046875 53.362030029296875 -7.8088531494140625Q53.300689697265625 -7.715965270996094 53.22182083129883 -7.637092590332031L53.12017059326172 -7.484619140625Q52.95016860961914 -7.23223876953125 52.67150115966797 -7.10955810546875Q51.74085998535156 -6.6959381103515625 45.28070068359375 -8.594024658203125Q49.52204132080078 -4.9398193359375 52.11066436767578 -1.616851806640625Q52.94315719604492 -0.7580642700195312 53.623172760009766 -1.0858001708984375Q55.10588836669922 -1.9042739868164062 56.36251449584961 -5.656639099121094Q58.16769027709961 -12.410003662109375 56.82557678222656 -24.87655258178711ZM58.623565673828125 -27.15534210205078Q70.69170379638672 -28.411293029785156 83.54564666748047 -27.28396224975586Q83.57193756103516 -27.28045654296875 83.59471893310547 -27.278705596923828Q84.5569076538086 -27.147258758544922 84.83382415771484 -27.26293182373047Q84.88639831542969 -27.510051727294922 84.65330505371094 -27.74489974975586Q82.62201690673828 -29.700828552246094 79.52864074707031 -31.10116958618164Q78.88367462158203 -31.39911651611328 77.33260345458984 -30.903121948242188Q77.26951599121094 -30.882091522216797 77.2064208984375 -30.869823455810547Q71.82588195800781 -29.856807708740234 66.36822509765625 -29.076892852783203Q66.34017944335938 -29.073387145996094 66.31388854980469 -29.069881439208984Q61.85780334472656 -28.671371459960938 58.43796157836914 -28.215660095214844ZM52.36560821533203 -27.724117279052734Q50.060813903808594 -27.59455108642578 38.48929977416992 -26.202598571777344Q33.219173431396484 -25.417423248291016 25.239498138427734 -25.340309143066406Q25.193927764892578 -25.340309143066406 25.148361206054688 -25.343814849853516L25.146608352661133 -25.345565795898438Q25.293827056884766 -24.998546600341797 26.028175354003906 -24.42719268798828Q27.144594192504883 -23.59119415283203 29.34588623046875 -22.709625244140625Q29.698162078857422 -22.569416046142578 30.604263305664062 -22.995304107666016Q30.69540023803711 -23.039119720458984 30.795299530029297 -23.063655853271484Q32.07120895385742 -23.384384155273438 37.74794387817383 -24.39389419555664Q44.3430061340332 -25.930450439453125 52.55952835083008 -26.644805908203125ZM54.05891799926758 -29.856155395507812 55.796661376953125 -30.026447296142578Q54.89508819580078 -32.5034294128418 53.90884780883789 -33.48823547363281L53.13243865966797 -34.26639938354492Q52.71005630493164 -34.68702697753906 52.27190399169922 -34.965694427490234Q53.33600997924805 -32.657352447509766 54.05891799926758 -29.856155395507812ZM54.6661262512207 -26.81542205810547 56.52277374267578 -26.961544036865234 56.34683609008789 -27.96731948852539 54.49203109741211 -27.78586196899414ZM42.92517852783203 -9.184661865234375Q42.916419982910156 -9.18115234375 42.907657623291016 -9.175895690917969Q42.755516052246094 -9.089187622070312 42.585044860839844 -9.055938720703125Q42.781551361083984 -9.093864440917969 42.92517852783203 -9.184661865234375ZM51.803951263427734 -35.414363861083984Q51.82323455810547 -35.43714904785156 51.84426498413086 -35.46519088745117Q51.79869842529297 -35.405601501464844 51.746116638183594 -35.353023529052734Q51.77766418457031 -35.38457107543945 51.803951263427734 -35.414363861083984Z"/>
   <path class="monochrome-1 hierarchical-1:primary" d="M49.50977325439453 -63.54741668701172Q46.55485916137695 -65.40694427490234 45.834529876708984 -66.96502685546875Q45.73638153076172 -67.17884063720703 45.68730926513672 -67.40843963623047Q45.21410369873047 -69.61673736572266 46.49176025390625 -70.8908920288086Q46.84053421020508 -71.23790740966797 47.306732177734375 -71.39564514160156Q48.149742126464844 -71.67781829833984 50.02679443359375 -71.57967376708984Q50.098655700683594 -71.57616424560547 50.17051315307617 -71.5674057006836Q59.042274475097656 -70.49129486083984 60.691490173339844 -66.75821685791016Q60.709014892578125 -66.71790313720703 60.7230339050293 -66.6793441772461Q61.969146728515625 -63.51762008666992 61.51872634887695 -61.49334716796875Q61.513465881347656 -61.46530532836914 61.5064582824707 -61.437259674072266Q61.25087356567383 -60.418922424316406 60.74636459350586 -59.75563049316406Q64.6578369140625 -60.25506591796875 68.9989013671875 -60.76600646972656Q76.13907623291016 -62.16459655761719 78.70140838623047 -60.24372863769531Q85.21764373779297 -55.57474899291992 85.39289855957031 -53.853675842285156Q85.4034194946289 -53.74851989746094 85.4034194946289 -53.64160919189453Q85.4034194946289 -51.450836181640625 81.12352752685547 -49.950592041015625Q81.08321380615234 -49.934818267822266 81.04115295410156 -49.922550201416016Q77.80756378173828 -48.93757629394531 73.79933166503906 -46.02472686767578Q71.38597106933594 -44.319427490234375 69.68067169189453 -45.29388427734375Q69.58602905273438 -45.34646224975586 69.49840545654297 -45.40955352783203Q67.48989868164062 -46.84845733642578 68.82013702392578 -49.41779327392578Q69.9891357421875 -52.20796585083008 70.57450866699219 -53.681922912597656Q70.67440795898438 -53.93605041503906 70.75678253173828 -54.14811706542969Q70.2450180053711 -54.13759994506836 69.42127990722656 -54.039451599121094Q69.36870574951172 -54.03244400024414 69.31787872314453 -54.02893829345703Q51.779415130615234 -52.80210494995117 40.36285400390625 -49.3021240234375Q40.276973724365234 -49.27583312988281 40.1893424987793 -49.256553649902344Q38.09184646606445 -48.803863525390625 36.431190490722656 -49.04734802246094Q33.305606842041016 -41.7825813293457 32.14306640625 -40.15345001220703Q32.10275650024414 -40.09736633300781 32.060691833496094 -40.046539306640625Q30.57447052001953 -38.22381591796875 28.897212982177734 -38.22381591796875Q26.96582794189453 -38.22381591796875 25.89322280883789 -40.30943298339844Q25.349910736083984 -41.14017105102539 25.188671112060547 -42.14267349243164Q23.709461212158203 -46.846702575683594 27.903480529785156 -51.3667106628418Q30.632308959960938 -54.807098388671875 30.443023681640625 -56.23723602294922Q30.407974243164062 -56.494873046875 30.437767028808594 -56.75601577758789Q30.688392639160156 -58.9222526550293 32.14657211303711 -59.61628723144531Q33.799293518066406 -60.40321731567383 35.523868560791016 -58.888954162597656Q36.885616302490234 -57.75621032714844 37.5120964050293 -56.47529602050781Q40.24773025512695 -56.792457580566406 43.070648193359375 -57.1959228515625Q48.44402313232422 -58.10374450683594 55.42605972290039 -59.054603576660156Q54.767757415771484 -59.373046875 54.14896011352539 -59.87567901611328Q51.75312805175781 -61.89820098876953 49.50977325439453 -63.54741668701172ZM55.913848876953125 -32.55058670043945Q53.05707550048828 -30.408885955810547 51.58312225341797 -31.882835388183594Q50.16700744628906 -33.297203063964844 52.121177673339844 -36.167991638183594Q54.28040313720703 -39.43838119506836 56.26962661743164 -42.27412033081055Q49.022544860839844 -39.650447845458984 47.17879104614258 -39.047542572021484Q43.65427017211914 -37.17049026489258 40.33305740356445 -38.88630676269531Q40.27522277832031 -38.916099548339844 40.217384338378906 -38.95115280151367Q38.16857147216797 -40.17798614501953 37.35009765625 -41.697505950927734Q37.29401397705078 -41.80266189575195 37.25019836425781 -41.914833068847656Q36.4720344543457 -43.86199188232422 37.593711853027344 -45.19398498535156Q38.56991958618164 -46.35246276855469 40.518836975097656 -46.27184295654297Q44.69532775878906 -46.12812805175781 46.32351303100586 -46.58380889892578Q53.46718978881836 -48.58179473876953 58.15369415283203 -50.273075103759766Q60.801902770996094 -51.191444396972656 63.08556365966797 -49.99090576171875L63.155670166015625 -49.95234680175781Q68.79560089111328 -46.704742431640625 69.4686050415039 -44.56479263305664V-44.56654357910156Q70.45532989501953 -41.41358184814453 67.10256958007812 -40.17798614501953Q66.96936798095703 -40.128910064697266 66.8326644897461 -40.099117279052734Q65.1939697265625 -39.73457336425781 55.94013595581055 -32.569862365722656ZM71.0442123413086 -54.85266876220703Q71.08277130126953 -55.1365966796875 71.19668579101562 -55.402992248535156Q71.07050323486328 -55.11030578613281 71.0424575805664 -54.84916687011719Z"/>
  </g>
  <g id="Black-S" transform="matrix(1 0 0 1 2873.15 696)">
   <path class="monochrome-0 hierarchical-0:secondary" d="M57.94024658203125 -30.27106475830078Q61.47240447998047 -30.747364044189453 66.09832000732422 -31.16250991821289Q71.46483612060547 -31.930156707763672 76.7542495727539 -32.9256477355957Q79.03965759277344 -33.6424674987793 80.3944320678711 -33.01853561401367Q83.82080078125 -31.46746826171875 86.13951873779297 -29.231121063232422Q87.546875 -27.825519561767578 86.63200378417969 -26.12723159790039Q86.575927734375 -26.022075653076172 86.49705505371094 -25.932693481445312Q85.58744049072266 -24.89163589477539 83.33883666992188 -25.18958282470703Q70.73941802978516 -26.293941497802734 58.919525146484375 -25.072628021240234Q60.30012512207031 -12.204750061035156 58.385040283203125 -5.080024719238281Q58.37803268432617 -5.05023193359375 58.367515563964844 -5.0204315185546875Q56.83747863769531 -0.43383026123046875 54.60989761352539 0.7737274169921875Q54.59412384033203 0.780731201171875 54.58010482788086 0.7894973754882812Q52.485721588134766 1.8375625610351562 50.55083084106445 -0.2042388916015625Q50.51402282714844 -0.2427978515625 50.482479095458984 -0.28310394287109375Q47.60467529296875 -3.9934005737304688 42.49929428100586 -8.1856689453125Q41.76845169067383 -8.779800415039062 41.491539001464844 -9.167129516601562Q41.15678787231445 -9.635086059570312 41.21637725830078 -10.118804931640625Q41.30926513671875 -10.875938415527344 42.01382064819336 -11.08099365234375Q42.8953857421875 -11.506881713867188 44.01355743408203 -11.172134399414062Q50.61567687988281 -9.146102905273438 51.644466400146484 -9.028678894042969Q53.99593734741211 -12.79574203491211 52.857200622558594 -24.560054779052734Q44.70320129394531 -23.857563018798828 38.1983642578125 -22.339824676513672Q38.17207717895508 -22.332813262939453 38.14403533935547 -22.327556610107422Q32.71617126464844 -21.363616943359375 31.39995574951172 -21.04638671875Q29.731460571289062 -20.29100799560547 28.56421661376953 -20.75720977783203Q26.107044219970703 -21.74042510986328 24.73824691772461 -22.765708923339844Q22.890987396240234 -24.202857971191406 23.015422821044922 -25.70134735107422Q23.01892852783203 -25.753925323486328 23.029443740844727 -25.804752349853516Q23.351924896240234 -27.567886352539062 25.260528564453125 -27.443450927734375Q33.077213287353516 -27.522319793701172 38.19310760498047 -28.284709930419922Q38.20888137817383 -28.288211822509766 38.222904205322266 -28.289966583251953Q48.48067855834961 -29.52283477783203 51.918338775634766 -29.725482940673828Q51.24646759033203 -32.205020904541016 50.28969192504883 -34.2401123046875Q49.44843292236328 -35.92963409423828 50.19855499267578 -36.77439880371094Q51.237857818603516 -38.106388092041016 52.766143798828125 -37.08987045288086Q53.745853424072266 -36.625423431396484 54.61865997314453 -35.752620697021484L55.39507293701172 -34.977962493896484Q56.80287551879883 -33.57171630859375 57.94024658203125 -30.27106475830078ZM54.953643798828125 -24.729053497314453Q56.16222381591797 -12.131072998046875 53.362030029296875 -7.8088531494140625Q53.300689697265625 -7.715965270996094 53.22182083129883 -7.637092590332031L53.12017059326172 -7.484619140625Q52.95016860961914 -7.23223876953125 52.67150115966797 -7.10955810546875Q51.74085998535156 -6.6959381103515625 45.28070068359375 -8.594024658203125Q49.52204132080078 -4.9398193359375 52.11066436767578 -1.616851806640625Q52.94315719604492 -0.7580642700195312 53.623172760009766 -1.0858001708984375Q55.10588836669922 -1.9042739868164062 56.36251449584961 -5.656639099121094Q58.16769027709961 -12.410003662109375 56.82557678222656 -24.87655258178711ZM58.623565673828125 -27.15534210205078Q70.69170379638672 -28.411293029785156 83.54564666748047 -27.28396224975586Q83.57193756103516 -27.28045654296875 83.59471893310547 -27.278705596923828Q84.5569076538086 -27.147258758544922 84.83382415771484 -27.26293182373047Q84.88639831542969 -27.510051727294922 84.65330505371094 -27.74489974975586Q82.62201690673828 -29.700828552246094 79.52864074707031 -31.10116958618164Q78.88367462158203 -31.39911651611328 77.33260345458984 -30.903121948242188Q77.26951599121094 -30.882091522216797 77.2064208984375 -30.869823455810547Q71.82588195800781 -29.856807708740234 66.36822509765625 -29.076892852783203Q66.34017944335938 -29.073387145996094 66.31388854980469 -29.069881439208984Q61.85780334472656 -28.671371459960938 58.43796157836914 -28.215660095214844ZM52.36560821533203 -27.724117279052734Q50.060813903808594 -27.59455108642578 38.48929977416992 -26.202598571777344Q33.219173431396484 -25.417423248291016 25.239498138427734 -25.340309143066406Q25.193927764892578 -25.340309143066406 25.148361206054688 -25.343814849853516L25.146608352661133 -25.345565795898438Q25.293827056884766 -24.998546600341797 26.028175354003906 -24.42719268798828Q27.144594192504883 -23.59119415283203 29.34588623046875 -22.709625244140625Q29.698162078857422 -22.569416046142578 30.604263305664062 -22.995304107666016Q30.69540023803711 -23.039119720458984 30.795299530029297 -23.063655853271484Q32.07120895385742 -23.384384155273438 37.74794387817383 -24.39389419555664Q44.3430061340332 -25.930450439453125 52.55952835083008 -26.644805908203125ZM54.05891799926758 -29.856155395507812 55.796661376953125 -30.026447296142578Q54.89508819580078 -32.5034294128418 53.90884780883789 -33.48823547363281L53.13243865966797 -34.26639938354492Q52.71005630493164 -34.68702697753906 52.27190399169922 -34.965694427490234Q53.33600997924805 -32.657352447509766 54.05891799926758 -29.856155395507812ZM54.6661262512207 -26.81542205810547 56.52277374267578 -26.961544036865234 56.34683609008789 -27.96731948852539 54.49203109741211 -27.78586196899414ZM42.92517852783203 -9.184661865234375Q42.916419982910156 -9.18115234375 42.907657623291016 -9.175895690917969Q42.755516052246094 -9.089187622070312 42.585044860839844 -9.055938720703125Q42.781551361083984 -9.093864440917969 42.92517852783203 -9.184661865234375ZM51.803951263427734 -35.414363861083984Q51.82323455810547 -35.43714904785156 51.84426498413086 -35.46519088745117Q51.79869842529297 -35.405601501464844 51.746116638183594 -35.353023529052734Q51.77766418457031 -35.38457107543945 51.803951263427734 -35.414363861083984Z"/>
   <path class="monochrome-1 hierarchical-1:primary" d="M49.50977325439453 -63.54741668701172Q46.55485916137695 -65.40694427490234 45.834529876708984 -66.96502685546875Q45.73638153076172 -67.17884063720703 45.68730926513672 -67.40843963623047Q45.21410369873047 -69.61673736572266 46.49176025390625 -70.8908920288086Q46.84053421020508 -71.23790740966797 47.306732177734375 -71.39564514160156Q48.149742126464844 -71.67781829833984 50.02679443359375 -71.57967376708984Q50.098655700683594 -71.57616424560547 50.17051315307617 -71.5674057006836Q59.042274475097656 -70.49129486083984 60.691490173339844 -66.75821685791016Q60.709014892578125 -66.71790313720703 60.7230339050293 -66.6793441772461Q61.969146728515625 -63.51762008666992 61.51872634887695 -61.49334716796875Q61.513465881347656 -61.46530532836914 61.5064582824707 -61.437259674072266Q61.25087356567383 -60.418922424316406 60.74636459350586 -59.75563049316406Q64.6578369140625 -60.25506591796875 68.9989013671875 -60.76600646972656Q76.13907623291016 -62.16459655761719 78.70140838623047 -60.24372863769531Q85.21764373779297 -55.57474899291992 85.39289855957031 -53.853675842285156Q85.4034194946289 -53.74851989746094 85.4034194946289 -53.64160919189453Q85.4034194946289 -51.450836181640625 81.12352752685547 -49.950592041015625Q81.08321380615234 -49.934818267822266 81.04115295410156 -49.922550201416016Q77.80756378173828 -48.93757629394531 73.79933166503906 -46.02472686767578Q71.38597106933594 -44.319427490234375 69.68067169189453 -45.29388427734375Q69.58602905273438 -45.34646224975586 69.49840545654297 -45.40955352783203Q67.48989868164062 -46.84845733642578 68.82013702392578 -49.41779327392578Q69.9891357421875 -52.20796585083008 70.57450866699219 -53.681922912597656Q70.67440795898438 -53.93605041503906 70.75678253173828 -54.14811706542969Q70.2450180053711 -54.13759994506836 69.42127990722656 -54.039451599121094Q69.36870574951172 -54.03244400024414 69.31787872314453 -54.02893829345703Q51.779415130615234 -52.80210494995117 40.36285400390625 -49.3021240234375Q40.276973724365234 -49.27583312988281 40.1893424987793 -49.256553649902344Q38.09184646606445 -48.803863525390625 36.431190490722656 -49.04734802246094Q33.305606842041016 -41.7825813293457 32.14306640625 -40.15345001220703Q32.10275650024414 -40.09736633300781 32.060691833496094 -40.046539306640625Q30.57447052001953 -38.22381591796875 28.897212982177734 -38.22381591796875Q26.96582794189453 -38.22381591796875 25.89322280883789 -40.30943298339844Q25.349910736083984 -41.14017105102539 25.188671112060547 -42.14267349243164Q23.709461212158203 -46.846702575683594 27.903480529785156 -51.3667106628418Q30.632308959960938 -54.807098388671875 30.443023681640625 -56.23723602294922Q30.407974243164062 -56.494873046875 30.437767028808594 -56.75601577758789Q30.688392639160156 -58.9222526550293 32.14657211303711 -59.61628723144531Q33.799293518066406 -60.40321731567383 35.523868560791016 -58.888954162597656Q36.885616302490234 -57.75621032714844 37.5120964050293 -56.47529602050781Q40.24773025512695 -56.792457580566406 43.070648193359375 -57.1959228515625Q48.44402313232422 -58.10374450683594 55.42605972290039 -59.054603576660156Q54.767757415771484 -59.373046875 54.14896011352539 -59.87567901611328Q51.75312805175781 -61.89820098876953 49.50977325439453 -63.54741668701172ZM55.913848876953125 -32.55058670043945Q53.05707550048828 -30.408885955810547 51.58312225341797 -31.882835388183594Q50.16700744628906 -33.297203063964844 52.121177673339844 -36.167991638183594Q54.28040313720703 -39.43838119506836 56.26962661743164 -42.27412033081055Q49.022544860839844 -39.650447845458984 47.17879104614258 -39.047542572021484Q43.65427017211914 -37.17049026489258 40.33305740356445 -38.88630676269531Q40.27522277832031 -38.916099548339844 40.217384338378906 -38.95115280151367Q38.16857147216797 -40.17798614501953 37.35009765625 -41.697505950927734Q37.29401397705078 -41.80266189575195 37.25019836425781 -41.914833068847656Q36.4720344543457 -43.86199188232422 37.593711853027344 -45.19398498535156Q38.56991958618164 -46.35246276855469 40.518836975097656 -46.27184295654297Q44.69532775878906 -46.12812805175781 46.32351303100586 -46.58380889892578Q53.46718978881836 -48.58179473876953 58.15369415283203 -50.273075103759766Q60.801902770996094 -51.191444396972656 63.08556365966797 -49.99090576171875L63.155670166015625 -49.95234680175781Q68.79560089111328 -46.704742431640625 69.4686050415039 -44.56479263305664V-44.56654357910156Q70.45532989501953 -41.41358184814453 67.10256958007812 -40.17798614501953Q66.96936798095703 -40.128910064697266 66.8326644897461 -40.099117279052734Q65.1939697265625 -39.73457336425781 55.94013595581055 -32.569862365722656ZM71.0442123413086 -54.85266876220703Q71.08277130126953 -55.1365966796875 71.19668579101562 -55.402992248535156Q71.07050323486328 -55.11030578613281 71.0424575805664 -54.84916687011719Z"/>
  </g>
 </g>
</svg>
